<svg width="643" height="641" xmlns="http://www.w3.org/2000/svg" xmlns:xlink="http://www.w3.org/1999/xlink" xml:space="preserve" overflow="hidden"><defs><clipPath id="clip0"><rect x="317" y="0" width="643" height="641"/></clipPath><clipPath id="clip1"><rect x="318" y="0" width="641" height="641"/></clipPath><clipPath id="clip2"><rect x="318" y="0" width="642" height="641"/></clipPath></defs><g clip-path="url(#clip0)" transform="translate(-317 0)"><g clip-path="url(#clip1)"><g clip-path="url(#clip2)"><path d="M486.143 220.493C521.089 220.493 549.462 184.646 549.462 140.511 549.462 100.88 525.774 77.192 486.143 77.192 446.512 77.192 422.824 100.88 422.824 140.511 422.912 184.646 451.284 220.493 486.143 220.493ZM486.143 86.1075C520.639 86.1075 540.455 105.923 540.455 140.42 540.455 179.6 516.136 211.394 486.143 211.394 456.15 211.394 431.831 179.507 431.831 140.42 431.919 105.923 451.642 86.1075 486.143 86.1075Z" fill="#000000" fill-rule="nonzero" fill-opacity="1"/><path d="M511.455 251.57C511.455 249.049 509.473 247.066 506.952 247.066L465.427 247.066C462.905 247.066 460.923 249.049 460.923 251.57 460.923 254.091 462.905 256.073 465.427 256.073L469.48 256.073 460.923 362.171C460.835 363.341 461.192 364.511 461.912 365.412L482.628 390.543C483.529 391.625 484.792 392.164 486.143 392.164 487.494 392.164 488.757 391.533 489.657 390.543L510.373 365.412C511.093 364.511 511.455 363.341 511.363 362.171L502.806 256.073 506.859 256.073C509.384 256.073 511.455 254.091 511.455 251.57ZM486.147 380.551 470.023 361.098 478.491 256.08 493.803 256.08 502.271 361.098Z" fill="#000000" fill-rule="nonzero" fill-opacity="1"/><path d="M794.359 220.493C829.306 220.493 857.678 184.646 857.678 140.511 857.678 100.88 833.99 77.192 794.359 77.192 754.728 77.192 731.04 100.88 731.04 140.511 731.04 184.646 759.412 220.493 794.359 220.493ZM794.359 86.1075C828.856 86.1075 848.671 105.923 848.671 140.42 848.671 179.6 824.352 211.394 794.359 211.394 764.366 211.394 740.047 179.507 740.047 140.42 740.047 105.923 759.863 86.1075 794.359 86.1075Z" fill="#000000" fill-rule="nonzero" fill-opacity="1"/><path d="M851.016 223.107 737.62 223.107C723.12 223.107 710.329 230.401 702.581 241.391 703.12 237.069 703.482 232.654 703.482 228.15 703.482 188.519 679.794 164.831 640.162 164.831 600.531 164.831 576.843 188.519 576.843 228.15 576.843 232.654 577.205 237.069 577.744 241.391 570 230.402 557.209 223.107 542.705 223.107L429.494 223.107C405.806 223.107 386.53 242.385 386.53 266.072L386.53 407.21C386.53 409.731 388.512 411.713 391.033 411.713L540.643 411.713 540.643 494.848C540.643 497.369 542.626 499.351 545.147 499.351L735.376 499.351C737.897 499.351 739.879 497.369 739.879 494.848L739.879 411.713 889.489 411.713C892.01 411.713 893.993 409.731 893.993 407.21L893.997 266.072C893.997 242.379 874.72 223.107 851.033 223.107ZM640.251 173.75C674.747 173.75 694.563 193.565 694.563 228.062 694.563 267.242 670.244 299.036 640.251 299.036 610.346 299.036 585.939 267.149 585.939 228.062 585.939 193.565 605.754 173.75 640.251 173.75ZM585.758 268.682C596.747 292.282 617.013 308.132 640.251 308.132 663.489 308.132 683.666 292.282 694.744 268.682L694.744 310.746 585.754 310.746ZM547.116 331.281C546.304 332.632 545.676 333.983 544.953 335.422 544.502 336.323 543.963 337.224 543.602 338.213 542.97 339.833 542.52 341.546 542.07 343.167 541.889 344.067 541.531 344.88 541.35 345.688 540.811 348.302 540.537 351.004 540.537 353.706L540.537 402.706 395.529 402.706 395.529 266.077C395.529 247.343 410.752 232.12 429.486 232.12L542.882 232.12C561.616 232.12 576.84 247.343 576.84 266.077L576.84 311.475C576.12 311.563 575.4 311.836 574.676 312.013 573.506 312.283 572.336 312.552 571.162 312.914 569.811 313.364 568.46 313.815 567.109 314.353 566.027 314.804 564.945 315.254 563.956 315.793 562.693 316.424 561.435 317.232 560.265 317.956 559.276 318.588 558.375 319.219 557.382 319.939 556.212 320.839 555.218 321.829 554.141 322.822 553.329 323.634 552.52 324.354 551.708 325.162 550.719 326.244 549.818 327.414 549.006 328.584 548.375 329.485 547.655 330.297 547.112 331.286ZM730.86 407.21 730.86 490.344 549.638 490.348 549.638 353.709C549.638 335.876 563.687 321.102 581.525 320.02 581.975 320.02 582.426 319.932 583.507 319.839L697.532 319.928C697.982 320.016 698.432 320.016 698.883 320.109 716.808 321.19 730.77 335.959 730.77 353.797L730.766 407.208ZM884.968 402.706 739.867 402.706 739.867 353.706C739.867 351.004 739.598 348.301 739.055 345.688 738.874 344.787 738.604 343.975 738.335 343.167 737.885 341.454 737.434 339.745 736.803 338.213 736.441 337.224 735.902 336.411 735.452 335.422 734.821 333.983 734.101 332.632 733.289 331.281 732.75 330.38 732.026 329.479 731.399 328.667 730.498 327.497 729.686 326.327 728.697 325.152 727.977 324.34 727.076 323.62 726.264 322.812 725.182 321.823 724.193 320.83 723.023 319.929 722.122 319.209 721.133 318.578 720.232 318.039 719.062 317.227 717.8 316.507 716.541 315.876 715.552 315.337 714.47 314.887 713.389 314.437 712.038 313.898 710.687 313.355 709.336 312.997 708.165 312.635 707.084 312.366 705.821 312.096 705.101 311.915 704.382 311.646 703.658 311.558L703.658 266.16C703.658 247.426 718.881 232.203 737.615 232.203L851.011 232.203C869.745 232.203 884.968 247.426 884.968 266.16Z" fill="#000000" fill-rule="nonzero" fill-opacity="1"/><path d="M819.579 251.57C819.579 249.049 817.597 247.066 815.075 247.066L773.554 247.066C771.033 247.066 769.051 249.049 769.051 251.57 769.051 254.091 771.033 256.073 773.554 256.073L777.608 256.073 769.051 362.171C768.962 363.341 769.32 364.511 770.04 365.412L790.756 390.543C791.569 391.625 792.92 392.164 794.271 392.164 795.622 392.164 796.884 391.533 797.785 390.543L818.501 365.412C819.221 364.511 819.583 363.341 819.49 362.171L810.934 256.073 814.987 256.073C817.508 256.073 819.579 254.091 819.579 251.57ZM794.359 380.551 778.235 361.098 786.703 256.08 802.015 256.08 810.484 361.098Z" fill="#000000" fill-rule="nonzero" fill-opacity="1"/><path d="M659.439 343.709C661.96 343.709 663.942 341.727 663.942 339.206 663.942 336.685 661.96 334.702 659.439 334.702L618.006 334.702C615.485 334.702 613.503 336.685 613.503 339.206 613.503 341.727 615.485 343.709 618.006 343.709L623.591 343.709 615.035 449.818C614.946 450.988 615.304 452.158 616.024 453.059L636.74 478.19C637.641 479.271 638.903 479.81 640.254 479.81 641.605 479.81 642.868 479.179 643.769 478.19L664.485 453.059C665.205 452.158 665.567 450.988 665.474 449.818L656.917 343.72ZM640.254 468.192 624.13 448.739 632.598 343.722 647.91 343.722 656.378 448.739Z" fill="#000000" fill-rule="nonzero" fill-opacity="1"/><path d="M382.198 709.756C380.642 710.56 379.018 711.168 377.325 711.574 375.64 711.992 373.887 712.201 372.065 712.201 366.597 712.201 362.258 710.673 359.053 707.617 355.856 704.561 354.26 700.411 354.26 695.168 354.26 689.924 355.856 685.775 359.053 682.719 362.258 679.662 366.596 678.135 372.065 678.135 373.887 678.135 375.64 678.34 377.325 678.746 379.018 679.156 380.642 679.767 382.198 680.579L382.198 687.367C380.622 686.297 379.07 685.513 377.55 685.019 376.026 684.516 374.422 684.263 372.741 684.263 369.717 684.263 367.341 685.236 365.616 687.174 363.886 689.104 363.026 691.77 363.026 695.168 363.026 698.557 363.887 701.223 365.616 703.161 367.341 705.091 369.717 706.056 372.741 706.056 374.422 706.056 376.026 705.811 377.55 705.317 379.07 704.814 380.622 704.026 382.198 702.952Z" fill="#000000" fill-rule="nonzero" fill-opacity="1"/><path d="M407.161 693.64C406.461 693.319 405.77 693.085 405.086 692.933 404.411 692.772 403.727 692.691 403.043 692.691 401.017 692.691 399.457 693.343 398.363 694.638 397.277 695.936 396.739 697.798 396.739 700.219L396.739 711.558 388.857 711.558 388.857 686.934 396.739 686.934 396.739 690.971C397.744 689.362 398.902 688.188 400.213 687.448 401.532 686.708 403.108 686.338 404.941 686.338 405.199 686.338 405.48 686.351 405.794 686.371 406.104 686.395 406.55 686.443 407.129 686.515Z" fill="#000000" fill-rule="nonzero" fill-opacity="1"/><path d="M435.658 699.173 435.658 701.425 417.241 701.425C417.434 703.271 418.097 704.654 419.235 705.575 420.381 706.499 421.986 706.958 424.044 706.958 425.693 706.958 427.39 706.717 429.127 706.234 430.864 705.744 432.649 704.996 434.483 703.998L434.483 710.062C432.625 710.77 430.768 711.301 428.902 711.654 427.036 712.016 425.174 712.201 423.321 712.201 418.857 712.201 415.391 711.071 412.915 708.807 410.446 706.536 409.215 703.355 409.215 699.27 409.215 695.249 410.426 692.092 412.85 689.796 415.283 687.492 418.624 686.338 422.871 686.338 426.739 686.338 429.839 687.508 432.167 689.844 434.491 692.173 435.657 695.281 435.657 699.173ZM427.567 696.568C427.567 695.068 427.125 693.862 426.248 692.949 425.38 692.028 424.242 691.565 422.839 691.565 421.303 691.565 420.06 691.996 419.107 692.852 418.162 693.713 417.571 694.951 417.338 696.568Z" fill="#000000" fill-rule="nonzero" fill-opacity="1"/><path d="M452.643 700.475C451.003 700.475 449.768 700.757 448.944 701.312 448.115 701.871 447.705 702.691 447.705 703.773 447.705 704.77 448.035 705.554 448.703 706.121 449.366 706.68 450.295 706.957 451.485 706.957 452.965 706.957 454.207 706.426 455.217 705.365 456.234 704.303 456.745 702.976 456.745 701.376L456.745 700.475ZM464.675 697.5 464.675 711.557 456.745 711.557 456.745 707.906C455.684 709.398 454.493 710.487 453.174 711.171 451.855 711.855 450.251 712.2 448.365 712.2 445.812 712.2 443.737 711.457 442.141 709.965 440.552 708.477 439.76 706.547 439.76 704.174 439.76 701.279 440.749 699.164 442.736 697.821 444.73 696.47 447.851 695.795 452.097 695.795L456.745 695.795 456.745 695.167C456.745 693.925 456.25 693.012 455.265 692.433 454.288 691.854 452.756 691.565 450.665 691.565 448.98 691.565 447.416 691.737 445.969 692.079 444.521 692.413 443.17 692.916 441.915 693.591L441.915 687.592C443.608 687.174 445.301 686.864 446.998 686.659 448.703 686.446 450.4 686.337 452.097 686.337 456.544 686.337 459.753 687.218 461.715 688.975 463.685 690.724 464.674 693.567 464.674 697.5Z" fill="#000000" fill-rule="nonzero" fill-opacity="1"/><path d="M480.605 679.936 480.605 686.933 488.711 686.933 488.711 692.562 480.605 692.562 480.605 703.001C480.605 704.151 480.83 704.927 481.28 705.333 481.73 705.731 482.631 705.928 483.982 705.928L488.035 705.928 488.035 711.558 481.28 711.558C478.168 711.558 475.964 710.911 474.67 709.612 473.371 708.317 472.723 706.114 472.723 703.001L472.723 692.562 468.815 692.562 468.815 686.933 472.723 686.933 472.723 679.936Z" fill="#000000" fill-rule="nonzero" fill-opacity="1"/><path d="M518.12 699.173 518.12 701.425 499.704 701.425C499.897 703.271 500.56 704.654 501.698 705.575 502.844 706.499 504.449 706.958 506.507 706.958 508.156 706.958 509.853 706.717 511.59 706.234 513.327 705.744 515.112 704.996 516.946 703.998L516.946 710.062C515.088 710.77 513.23 711.301 511.365 711.654 509.499 712.016 507.637 712.201 505.783 712.201 501.32 712.201 497.854 711.071 495.377 708.807 492.909 706.536 491.678 703.355 491.678 699.27 491.678 695.249 492.888 692.092 495.313 689.796 497.746 687.492 501.087 686.338 505.333 686.338 509.202 686.338 512.302 687.508 514.63 689.844 516.954 692.173 518.12 695.281 518.12 699.173ZM510.03 696.568C510.03 695.068 509.588 693.862 508.711 692.949 507.843 692.028 506.705 691.565 505.301 691.565 503.765 691.565 502.523 691.996 501.57 692.852 500.625 693.713 500.034 694.951 499.801 696.568Z" fill="#000000" fill-rule="nonzero" fill-opacity="1"/><path d="M540.831 690.536 540.831 677.347 548.745 677.347 548.745 711.558 540.831 711.558 540.831 708.003C539.746 709.451 538.552 710.512 537.245 711.188 535.934 711.863 534.422 712.201 532.709 712.201 529.673 712.201 527.18 710.995 525.23 708.582 523.288 706.17 522.319 703.065 522.319 699.27 522.319 695.474 523.288 692.37 525.23 689.957 527.18 687.544 529.673 686.338 532.709 686.338 534.414 686.338 535.918 686.684 537.229 687.367 538.547 688.043 539.746 689.1 540.831 690.536ZM535.636 706.475C537.329 706.475 538.616 705.859 539.496 704.625 540.385 703.395 540.831 701.609 540.831 699.269 540.831 696.921 540.385 695.131 539.496 693.897 538.616 692.666 537.329 692.047 535.636 692.047 533.964 692.047 532.681 692.666 531.792 693.897 530.912 695.131 530.473 696.921 530.473 699.269 530.473 701.609 530.912 703.395 531.792 704.625 532.681 705.859 533.964 706.475 535.636 706.475Z" fill="#000000" fill-rule="nonzero" fill-opacity="1"/><path d="M585.095 706.475C586.775 706.475 588.062 705.86 588.955 704.625 589.843 703.395 590.29 701.61 590.29 699.269 590.29 696.921 589.843 695.132 588.955 693.897 588.062 692.667 586.775 692.048 585.095 692.048 583.41 692.048 582.119 692.671 581.218 693.913 580.318 695.148 579.867 696.933 579.867 699.269 579.867 701.598 580.318 703.383 581.218 704.625 582.119 705.86 583.41 706.475 585.095 706.475ZM579.867 690.536C580.949 689.101 582.151 688.043 583.47 687.368 584.789 686.684 586.305 686.338 588.022 686.338 591.054 686.338 593.547 687.545 595.501 689.957 597.451 692.37 598.428 695.474 598.428 699.27 598.428 703.066 597.451 706.17 595.501 708.583 593.547 710.995 591.054 712.201 588.022 712.201 586.305 712.201 584.789 711.856 583.47 711.172 582.151 710.489 580.949 709.431 579.867 708.004L579.867 711.558 571.986 711.558 571.986 677.348 579.867 677.348Z" fill="#000000" fill-rule="nonzero" fill-opacity="1"/><path d="M600.99 686.933 608.871 686.933 615.482 703.644 621.111 686.933 628.992 686.933 618.635 713.89C617.593 716.633 616.375 718.547 614.983 719.632 613.6 720.726 611.771 721.273 609.499 721.273L604.947 721.273 604.947 716.11 607.408 716.11C608.747 716.11 609.716 715.893 610.319 715.467 610.93 715.048 611.405 714.284 611.75 713.183L611.96 712.507Z" fill="#000000" fill-rule="nonzero" fill-opacity="1"/><path d="M662.366 706.475C664.047 706.475 665.334 705.86 666.226 704.625 667.115 703.395 667.561 701.61 667.561 699.269 667.561 696.921 667.115 695.132 666.226 693.897 665.334 692.667 664.047 692.048 662.366 692.048 660.681 692.048 659.391 692.671 658.49 693.913 657.589 695.148 657.139 696.933 657.139 699.269 657.139 701.598 657.589 703.383 658.49 704.625 659.391 705.86 660.681 706.475 662.366 706.475ZM657.139 690.536C658.221 689.101 659.423 688.043 660.742 687.368 662.061 686.684 663.577 686.338 665.294 686.338 668.325 686.338 670.818 687.545 672.773 689.957 674.723 692.37 675.7 695.474 675.7 699.27 675.7 703.066 674.723 706.17 672.773 708.583 670.818 710.995 668.325 712.201 665.294 712.201 663.577 712.201 662.061 711.856 660.742 711.172 659.423 710.489 658.221 709.431 657.139 708.004L657.139 711.558 649.258 711.558 649.258 677.348 657.139 677.348Z" fill="#000000" fill-rule="nonzero" fill-opacity="1"/><path d="M692.533 700.475C690.892 700.475 689.657 700.757 688.833 701.312 688.005 701.871 687.595 702.691 687.595 703.773 687.595 704.77 687.924 705.554 688.592 706.121 689.255 706.68 690.184 706.957 691.374 706.957 692.854 706.957 694.097 706.426 695.106 705.365 696.123 704.303 696.634 702.976 696.634 701.376L696.634 700.475ZM704.564 697.5 704.564 711.557 696.635 711.557 696.635 707.906C695.573 709.398 694.383 710.487 693.064 711.171 691.745 711.855 690.141 712.2 688.255 712.2 685.701 712.2 683.626 711.457 682.03 709.965 680.442 708.477 679.65 706.547 679.65 704.174 679.65 701.279 680.639 699.164 682.625 697.821 684.62 696.47 687.74 695.795 691.986 695.795L696.634 695.795 696.634 695.167C696.634 693.925 696.14 693.012 695.155 692.433 694.178 691.854 692.646 691.565 690.555 691.565 688.87 691.565 687.306 691.737 685.858 692.079 684.411 692.413 683.059 692.916 681.805 693.591L681.805 687.592C683.498 687.174 685.191 686.864 686.887 686.659 688.592 686.446 690.289 686.337 691.986 686.337 696.433 686.337 699.642 687.218 701.604 688.975 703.575 690.724 704.564 693.567 704.564 697.5Z" fill="#000000" fill-rule="nonzero" fill-opacity="1"/><path d="M730.189 693.64C729.489 693.319 728.797 693.085 728.114 692.933 727.438 692.772 726.755 692.691 726.071 692.691 724.045 692.691 722.484 693.343 721.391 694.638 720.305 695.936 719.766 697.798 719.766 700.219L719.766 711.558 711.885 711.558 711.885 686.934 719.766 686.934 719.766 690.971C720.771 689.362 721.93 688.188 723.24 687.448 724.559 686.708 726.136 686.338 727.969 686.338 728.227 686.338 728.508 686.351 728.822 686.371 729.131 686.395 729.578 686.443 730.157 686.515Z" fill="#000000" fill-rule="nonzero" fill-opacity="1"/><path d="M733.84 701.972 733.84 686.933 741.753 686.933 741.753 689.394C741.753 690.725 741.741 692.398 741.721 694.412 741.709 696.431 741.705 697.774 741.705 698.45 741.705 700.436 741.753 701.859 741.85 702.728 741.954 703.596 742.139 704.232 742.397 704.626 742.718 705.141 743.137 705.539 743.651 705.816 744.174 706.097 744.777 706.234 745.453 706.234 747.093 706.234 748.38 705.607 749.313 704.352 750.254 703.09 750.728 701.337 750.728 699.093L750.728 686.934 758.593 686.934 758.593 711.559 750.728 711.559 750.728 708.004C749.538 709.432 748.275 710.489 746.948 711.173 745.63 711.856 744.17 712.202 742.574 712.202 739.719 712.202 737.547 711.329 736.06 709.58 734.58 707.835 733.84 705.298 733.84 701.973Z" fill="#000000" fill-rule="nonzero" fill-opacity="1"/><path d="M784.46 693.64C783.761 693.319 783.069 693.085 782.385 692.933 781.71 692.772 781.026 692.691 780.343 692.691 778.316 692.691 776.756 693.343 775.662 694.638 774.577 695.936 774.038 697.798 774.038 700.219L774.038 711.558 766.157 711.558 766.157 686.934 774.038 686.934 774.038 690.971C775.043 689.362 776.201 688.188 777.512 687.448 778.831 686.708 780.407 686.338 782.241 686.338 782.498 686.338 782.78 686.351 783.093 686.371 783.403 686.395 783.849 686.443 784.428 686.515Z" fill="#000000" fill-rule="nonzero" fill-opacity="1"/><path d="M812.961 699.173 812.961 701.425 794.544 701.425C794.737 703.271 795.401 704.654 796.539 705.575 797.685 706.499 799.289 706.958 801.348 706.958 802.996 706.958 804.693 706.717 806.43 706.234 808.167 705.744 809.953 704.996 811.786 703.998L811.786 710.062C809.929 710.77 808.071 711.301 806.205 711.654 804.339 712.016 802.478 712.201 800.624 712.201 796.161 712.201 792.695 711.071 790.218 708.807 787.749 706.536 786.519 703.355 786.519 699.27 786.519 695.249 787.729 692.092 790.154 689.796 792.586 687.492 795.928 686.338 800.174 686.338 804.042 686.338 807.142 687.508 809.47 689.844 811.795 692.173 812.961 695.281 812.961 699.173ZM804.871 696.568C804.871 695.068 804.428 693.862 803.552 692.949 802.683 692.028 801.545 691.565 800.142 691.565 798.606 691.565 797.363 691.996 796.41 692.852 795.465 693.713 794.874 694.951 794.641 696.568Z" fill="#000000" fill-rule="nonzero" fill-opacity="1"/><path d="M817.706 686.933 839.194 686.933 839.194 692.434 826.215 705.928 839.194 705.928 839.194 711.557 817.16 711.557 817.16 706.056 830.124 692.562 817.707 692.562Z" fill="#000000" fill-rule="nonzero" fill-opacity="1"/><path d="M869.717 699.173 869.717 701.425 851.301 701.425C851.494 703.271 852.157 704.654 853.295 705.575 854.441 706.499 856.046 706.958 858.104 706.958 859.753 706.958 861.45 706.717 863.187 706.234 864.924 705.744 866.709 704.996 868.543 703.998L868.543 710.062C866.685 710.77 864.827 711.301 862.962 711.654 861.096 712.016 859.234 712.201 857.38 712.201 852.917 712.201 849.451 711.071 846.974 708.807 844.506 706.536 843.275 703.355 843.275 699.27 843.275 695.249 844.485 692.092 846.91 689.796 849.343 687.492 852.684 686.338 856.93 686.338 860.799 686.338 863.899 687.508 866.227 689.844 868.551 692.173 869.717 695.281 869.717 699.173ZM861.627 696.568C861.627 695.068 861.185 693.862 860.308 692.949 859.44 692.028 858.302 691.565 856.898 691.565 855.362 691.565 854.12 691.996 853.167 692.852 852.222 693.713 851.631 694.951 851.398 696.568Z" fill="#000000" fill-rule="nonzero" fill-opacity="1"/><path d="M875.669 677.347 883.55 677.347 883.55 695.973 892.605 686.934 901.757 686.934 889.726 698.225 902.69 711.558 893.152 711.558 883.55 701.297 883.55 711.558 875.669 711.558Z" fill="#000000" fill-rule="nonzero" fill-opacity="1"/><path d="M905.617 686.933 913.499 686.933 913.499 711.558 905.617 711.558ZM905.617 677.347 913.499 677.347 913.499 683.764 905.617 683.764Z" fill="#000000" fill-rule="nonzero" fill-opacity="1"/></g></g></g></svg>