<svg width="604" height="605" xmlns="http://www.w3.org/2000/svg" xmlns:xlink="http://www.w3.org/1999/xlink" xml:space="preserve" overflow="hidden"><defs><clipPath id="clip0"><rect x="640" y="76" width="604" height="605"/></clipPath><clipPath id="clip1"><rect x="640" y="77" width="604" height="604"/></clipPath><clipPath id="clip2"><rect x="640" y="77" width="604" height="604"/></clipPath><clipPath id="clip3"><rect x="640" y="77" width="604" height="604"/></clipPath><clipPath id="clip4"><rect x="640" y="77" width="604" height="604"/></clipPath><clipPath id="clip5"><rect x="641" y="77" width="603" height="604"/></clipPath><clipPath id="clip6"><rect x="641" y="99" width="603" height="582"/></clipPath><clipPath id="clip7"><rect x="588" y="99" width="721" height="720"/></clipPath></defs><g clip-path="url(#clip0)" transform="translate(-640 -76)"><g clip-path="url(#clip1)"><g clip-path="url(#clip2)"><g clip-path="url(#clip3)"><g clip-path="url(#clip4)"><g clip-path="url(#clip5)"><g clip-path="url(#clip6)"><g clip-path="url(#clip7)"><path d="M568.735 282.035C567.324 282.035 565.982 281.378 565.133 280.252 562.142 276.302 492.011 182.977 492.011 141.624 492.011 99.6336 526.431 65.4416 568.73 65.4416 611.045 65.4416 645.448 99.6336 645.448 141.624 645.448 183.555 575.307 276.345 572.318 280.252 571.474 281.374 570.148 282.035 568.734 282.035ZM568.735 74.4462C531.411 74.4462 501.044 104.58 501.044 141.62 501.044 174.902 554.27 250.1 568.735 269.942 583.223 250.191 636.425 175.383 636.425 141.62 636.425 104.58 606.063 74.4462 568.735 74.4462Z" fill="#000000" fill-rule="nonzero" fill-opacity="1" transform="matrix(1.00317 0 0 1 588.348 100.198)"/><path d="M569.084 173.646C547.001 173.646 529.031 155.677 529.031 133.594 529.031 111.51 547 93.5418 569.084 93.5418 591.167 93.5418 609.136 111.51 609.136 133.594 609.136 155.677 591.167 173.646 569.084 173.646ZM569.084 102.227C551.783 102.227 537.715 116.295 537.715 133.595 537.715 150.896 551.783 164.963 569.084 164.963 586.384 164.963 600.451 150.896 600.451 133.595 600.451 116.295 586.368 102.227 569.084 102.227Z" fill="#000000" fill-rule="nonzero" fill-opacity="1" transform="matrix(1.00317 0 0 1 588.348 100.198)"/><path d="M196.975 519.801C194.463 519.801 192.092 518.628 190.586 516.633 185.286 509.623 60.9306 344.145 60.9306 270.806 60.9306 196.334 121.956 135.706 196.974 135.706 272.008 135.706 333.018 196.334 333.018 270.806 333.018 345.171 208.643 509.691 203.342 516.633 201.824 518.628 199.481 519.801 196.977 519.801ZM196.975 151.692C130.782 151.692 76.938 205.131 76.938 270.806 76.938 329.832 171.318 463.187 196.975 498.349 222.659 463.333 317.012 330.671 317.012 270.806 317.016 205.127 263.169 151.692 196.975 151.692Z" fill="#000000" fill-rule="nonzero" fill-opacity="1" transform="matrix(1.00317 0 0 1 588.348 100.198)"/><path d="M197.59 327.584C158.424 327.584 126.563 295.728 126.563 256.557 126.563 217.391 158.419 185.529 197.59 185.529 236.756 185.529 268.617 217.385 268.617 256.557 268.617 295.723 236.745 327.584 197.59 327.584ZM197.59 200.944C166.916 200.944 141.973 225.899 141.973 256.56 141.973 287.235 166.928 312.178 197.59 312.178 228.265 312.178 253.207 287.223 253.207 256.56 253.207 225.899 228.265 200.944 197.59 200.944Z" fill="#000000" fill-rule="nonzero" fill-opacity="1" transform="matrix(1.00317 0 0 1 588.348 100.198)"/><path d="M198.421 517.227 196.362 511.616C216.546 504.185 237.159 496.759 257.531 489.424 354.879 454.334 465.191 414.579 463.519 394.735 463.267 391.828 459.286 386.3 435.38 382.03 383.063 372.684 376.45 362.698 376.03 355.985 375.277 344.105 397.635 336.511 402.122 335.109L567.226 274.585 569.285 280.197 404.037 340.764C394.86 343.649 381.666 350.298 382.003 355.597 382.171 358.169 386.573 367.239 436.434 376.138 458.257 380.04 468.76 385.78 469.477 394.215 471.452 417.472 390.995 447.678 259.571 495.044 239.2 502.39 218.598 509.809 198.43 517.227Z" fill="#000000" fill-rule="nonzero" fill-opacity="1" transform="matrix(1.00317 0 0 1 588.348 100.198)"/><path d="M40.0717-2.3873C38.0089-1.31778 35.8579-0.512715 33.6147 0.0320959 31.3716 0.576907 29.0364 0.849241 26.613 0.849241 19.3469 0.849241 13.5911-1.17763 9.34064-5.23926 5.09875-9.29688 2.9798-14.8046 2.9798-21.7579 2.9798-28.7196 5.09875-34.2313 9.34064-38.293 13.5905-42.3627 19.3466-44.3974 26.613-44.3974 29.0364-44.3974 31.3716-44.1251 33.6147-43.5803 35.8579-43.0355 38.0089-42.2224 40.0717-41.1449L40.0717-32.1243C37.9889-33.5422 35.93-34.5837 33.9032-35.2487 31.8843-35.9096 29.7534-36.2421 27.5103-36.2421 23.5047-36.2421 20.3483-34.9523 18.041-32.3807 15.7418-29.8172 14.5962-26.2763 14.5962-21.7583 14.5962-17.2601 15.7418-13.7231 18.041-11.1512 20.3483-8.58766 23.5046-7.30587 27.5103-7.30587 29.7534-7.30587 31.8843-7.63433 33.9032-8.29926 35.9301-8.96018 37.9889-10.0017 40.0717-11.4237Z" fill="#000000" fill-rule="nonzero" fill-opacity="1" transform="matrix(1.00317 0 0 1 597.349 853.891)"/><path d="M16.4387-41.9944 16.4387-32.7015 27.2221-32.7015 27.2221-25.2351 16.4387-25.2351 16.4387-11.36C16.4387-9.84187 16.7351-8.81645 17.3359-8.28373 17.9448-7.74699 19.1464-7.48261 20.9409-7.48261L26.3085-7.48261 26.3085-0.000153814 17.3519-0.000153814C13.2182-0.000153814 10.2901-0.857352 8.57168-2.57973 6.84926-4.31014 5.9921-7.23426 5.9921-11.36L5.9921-25.2351 0.784864-25.2351 0.784864-32.7014 5.9921-32.7014 5.9921-41.9944Z" fill="#000000" fill-rule="nonzero" fill-opacity="1" transform="matrix(1.00317 0 0 1 752.17 853.891)"/><path d="M27.2703-27.9266 27.2703-45.4389 37.7974-45.4389 37.7974 0 27.2703 0 27.2703-4.72662C25.8364-2.80394 24.2501-1.39397 22.5117-0.496719 20.7813 0.400533 18.7785 0.849159 16.5033 0.849159 12.4736 0.849159 9.16509-0.753076 6.56942-3.95755 3.98185-7.16202 2.69206-11.2837 2.69206-16.3263 2.69206-21.3654 3.98185-25.4911 6.56942-28.695 9.16499-31.8996 12.4736-33.5018 16.5033-33.5018 18.7544-33.5018 20.7532-33.0451 22.4957-32.1399 24.2461-31.2306 25.8364-29.8246 27.2703-27.926ZM20.3807-6.74528C22.6238-6.74528 24.3302-7.56243 25.5078-9.19668 26.6814-10.8311 27.2703-13.2063 27.2703-16.3266 27.2703-19.443 26.6815-21.8223 25.5078-23.4565 24.3302-25.0908 22.6238-25.908 20.3807-25.908 18.1575-25.908 16.4592-25.0907 15.2854-23.4565 14.1079-21.8222 13.5229-19.4429 13.5229-16.3266 13.5229-13.2062 14.1078-10.8309 15.2854-9.19668 16.4591-7.56234 18.1575-6.74528 20.3807-6.74528Z" fill="#000000" fill-rule="nonzero" fill-opacity="1" transform="matrix(1.00317 0 0 1 821.553 853.891)"/><path d="M22.4313-6.74538C24.6624-6.74538 26.3647-7.56253 27.5425-9.19678 28.728-10.8312 29.3209-13.2064 29.3209-16.3267 29.3209-19.4431 28.7281-21.8224 27.5425-23.4566 26.3648-25.0909 24.6624-25.9081 22.4313-25.9081 20.1882-25.9081 18.4657-25.0829 17.2721-23.4407 16.0744-21.7943 15.4776-19.423 15.4776-16.3267 15.4776-13.2265 16.0744-10.8551 17.2721-9.21278 18.4658-7.56645 20.1883-6.74538 22.4313-6.74538ZM15.4776-27.9266C16.9197-29.8253 18.5138-31.2314 20.2683-32.1406 22.0188-33.0458 24.0336-33.5025 26.3088-33.5025 30.3464-33.5025 33.6551-31.9003 36.2426-28.6957 38.8262-25.4913 40.12-21.3656 40.12-16.327 40.12-11.2839 38.8262-7.16222 36.2426-3.95827 33.6551-0.753794 30.3464 0.848441 26.3088 0.848441 24.0335 0.848441 22.0188 0.391807 20.2683-0.513433 18.5139-1.41869 16.9198-2.82465 15.4776-4.72734L15.4776-0.000717801 5.03056-0.000717801 5.03056-45.4396 15.4776-45.4396Z" fill="#000000" fill-rule="nonzero" fill-opacity="1" transform="matrix(1.00317 0 0 1 885.396 853.891)"/><path d="M5.49569-43.5972 24.1462-43.5972C29.698-43.5972 33.9599-42.3635 36.9323-39.896 39.9004-37.4366 41.3866-33.9357 41.3866-29.3853 41.3866-24.803 39.9005-21.2781 36.9323-18.8112 33.9602-16.3518 29.6982-15.1259 24.1462-15.1259L16.7279-15.1259 16.7279-0.000820345 5.49631-0.000820345ZM16.7273-35.4579 16.7273-23.2809 22.9599-23.2809C25.139-23.2809 26.8213-23.8096 28.007-24.8671 29.1926-25.9246 29.7855-27.4307 29.7855-29.3853 29.7855-31.3281 29.1926-32.8222 28.007-33.8716 26.8214-34.929 25.139-35.4579 22.9599-35.4579Z" fill="#000000" fill-rule="nonzero" fill-opacity="1" transform="matrix(1.00317 0 0 1 988.357 853.891)"/><path d="M27.2703-27.9266 27.2703-45.4389 37.7974-45.4389 37.7974 0 27.2703 0 27.2703-4.72662C25.8364-2.80394 24.2501-1.39397 22.5117-0.496719 20.7813 0.400533 18.7785 0.849159 16.5033 0.849159 12.4736 0.849159 9.16509-0.753076 6.56942-3.95755 3.98185-7.16202 2.69206-11.2837 2.69206-16.3263 2.69206-21.3654 3.98185-25.4911 6.56942-28.695 9.16499-31.8996 12.4736-33.5018 16.5033-33.5018 18.7544-33.5018 20.7532-33.0451 22.4957-32.1399 24.2461-31.2306 25.8364-29.8246 27.2703-27.926ZM20.3807-6.74528C22.6238-6.74528 24.3302-7.56243 25.5078-9.19668 26.6814-10.8311 27.2703-13.2063 27.2703-16.3266 27.2703-19.443 26.6815-21.8223 25.5078-23.4565 24.3302-25.0908 22.6238-25.908 20.3807-25.908 18.1575-25.908 16.4592-25.0907 15.2854-23.4565 14.1079-21.8222 13.5229-19.4429 13.5229-16.3266 13.5229-13.2062 14.1078-10.8309 15.2854-9.19668 16.4591-7.56234 18.1575-6.74528 20.3807-6.74528Z" fill="#000000" fill-rule="nonzero" fill-opacity="1" transform="matrix(1.00317 0 0 1 1178.63 853.891)"/><path d="M44.6862-3.23647C41.8743-1.87859 38.9583-0.857157 35.938-0.176169 32.9259 0.504778 29.8175 0.849261 26.613 0.849261 19.3469 0.849261 13.5911-1.17761 9.34064-5.23924 5.09875-9.29686 2.9798-14.8046 2.9798-21.7579 2.9798-28.7837 5.13485-34.3112 9.45283-38.3411 13.7789-42.3788 19.6991-44.3975 27.2215-44.3975 30.1135-44.3975 32.8933-44.1252 35.5531-43.5804 38.2128-43.0356 40.7204-42.2225 43.0837-41.145L43.0837-32.1244C40.6483-33.5024 38.2209-34.5318 35.8095-35.2167 33.4061-35.8977 30.9947-36.2421 28.5834-36.2421 24.1051-36.2421 20.6563-34.9923 18.2327-32.493 15.8053-29.9935 14.5955-26.4125 14.5955-21.7577 14.5955-17.1432 15.7652-13.5782 18.1045-11.0707 20.4437-8.55919 23.7643-7.3054 28.0704-7.3054 29.232-7.3054 30.3176-7.37349 31.323-7.51368 32.3244-7.66189 33.2297-7.8902 34.0308-8.20264L34.0308-16.6784 27.1572-16.6784 27.1572-24.209 44.6859-24.209Z" fill="#000000" fill-rule="nonzero" fill-opacity="1" transform="matrix(1.00317 0 0 1 1242.48 853.891)"/><path d="M37.9091-19.916 37.9091 0 27.3985 0 27.3985-15.1886C27.3985-18.0487 27.3344-20.0153 27.2062-21.0849 27.078-22.1505 26.8577-22.9435 26.5493-23.4562 26.1407-24.1292 25.588-24.6579 24.883-25.0425 24.178-25.427 23.381-25.6193 22.4957-25.6193 20.3046-25.6193 18.5862-24.774 17.3365-23.0877 16.0949-21.3974 15.4779-19.066 15.4779-16.0859L15.4779 0.00102543 5.03085 0.00102543 5.03085-45.4378 15.4779-45.4378 15.4779-27.9256C17.0562-29.8242 18.7305-31.2302 20.4929-32.1395 22.2634-33.0447 24.2261-33.5014 26.3732-33.5014 30.1544-33.5014 33.0224-32.3398 34.9771-30.0245 36.9318-27.7053 37.9092-24.3365 37.9092-19.9144Z" fill="#000000" fill-rule="nonzero" fill-opacity="1" transform="matrix(1.00317 0 0 1 1291.73 853.891)"/></g></g></g></g></g></g></g></g></svg>