<svg width="618" height="617" xmlns="http://www.w3.org/2000/svg" xmlns:xlink="http://www.w3.org/1999/xlink" xml:space="preserve" overflow="hidden"><defs><clipPath id="clip0"><rect x="334" y="0" width="618" height="617"/></clipPath><clipPath id="clip1"><rect x="335" y="0" width="616" height="617"/></clipPath><clipPath id="clip2"><rect x="335" y="0" width="617" height="618"/></clipPath></defs><g clip-path="url(#clip0)" transform="translate(-334 0)"><g clip-path="url(#clip1)"><g clip-path="url(#clip2)"><path d="M413.659 521.571C408.693 521.571 404.667 525.597 404.667 530.563L314.741 530.563C314.741 525.597 310.714 521.571 305.748 521.571 300.782 521.571 296.756 525.597 296.756 530.563L296.756 533.799C296.756 542.073 304.355 548.549 314.067 548.549L405.385 548.549C409.665 548.87 413.896 547.469 417.136 544.659 420.38 541.848 422.363 537.858 422.652 533.575L422.652 530.564C422.652 528.179 421.705 525.891 420.019 524.205 418.333 522.518 416.044 521.571 413.66 521.571Z" fill="#000000" fill-rule="nonzero" fill-opacity="1" transform="matrix(1 0 0 1.00164 280.548 -4.39019e-14)"/><path d="M391.173 557.541 328.225 557.541C323.259 557.541 319.232 561.568 319.232 566.534 319.232 571.499 323.259 575.526 328.225 575.526L391.173 575.526C396.139 575.526 400.165 571.499 400.165 566.534 400.165 561.568 396.139 557.541 391.173 557.541Z" fill="#000000" fill-rule="nonzero" fill-opacity="1" transform="matrix(1 0 0 1.00164 280.548 -4.39019e-14)"/><path d="M557.541 192.308C556.152 142.925 536.589 95.7902 502.598 59.9369 491.598 48.5035 479.265 38.4308 465.861 29.9438 438.634 12.5567 407.417 2.40385 375.172 0.449116 370.106 0.148023 365.039-0.000513863 359.973-0.000513863 348.596-0.0567181 337.231 0.77028 325.982 2.4724 305.508 5.33883 285.716 11.8384 267.53 21.6703 264.652 23.1557 261.866 24.7294 259.256 26.1666 260.035 27.5958 261.147 28.8122 262.496 29.7194L279.895 41.9031C280.429 42.2805 281.003 42.5976 281.606 42.8506L342.037 67.8931 370.5 90.8238 377.69 110.833 385.109 132.865C385.847 135.149 387.465 137.04 389.605 138.124L454.127 168.205 455.114 168.611 489.511 179.852 490.366 180.077 529.352 188.845C533.623 197.251 545.583 218.745 553.72 234.795 555.844 220.725 557.121 206.533 557.542 192.305ZM494.593 162.632 461.095 151.66 400.845 123.514 394.594 104.991 386.726 82.5099C386.172 80.9402 385.192 79.5552 383.895 78.5074L352.421 53.1915 352.421 53.1955C351.751 52.6575 351.008 52.2159 350.217 51.8908L294.957 29.0033C315.792 21.4519 337.816 17.722 359.972 17.9872 364.469 17.9872 369.326 17.9872 374.091 18.3926 403.27 20.1389 431.524 29.2845 456.193 44.9645 468.362 52.6644 479.562 61.7976 489.558 72.1673 515.669 99.6826 532.562 134.65 537.893 172.21L537.399 172.21Z" fill="#000000" fill-rule="nonzero" fill-opacity="1" transform="matrix(1 0 0 1.00164 280.548 -4.39019e-14)"/><path d="M542.659 255.575C532.138 232.6 523.012 212.772 516.762 202.157 515.525 199.981 513.442 198.415 511.005 197.841L489.829 193.345 450.217 179.856 373.78 146.314 353.771 104.992 349.275 92.8527C348.717 91.2831 347.737 89.898 346.441 88.8502L332.952 77.834C332.281 77.2961 331.543 76.8585 330.748 76.5294L275.4 53.5988 254.986 43.1252 246.579 34.1326C243.926 35.9753 239.474 39.5724 239.474 39.5724 218.289 55.8639 200.605 76.257 187.473 99.5298 174.337 122.806 166.027 148.488 163.037 175.047 159.865 203.43 163.185 232.166 172.748 259.08 184.575 291.365 203.953 319.242 223.199 347.344 241.947 374.684 261.329 402.917 265.913 434.347 267.623 446.082 267.623 476.432 267.712 488.303 267.72 494.638 270.201 500.72 274.629 505.256 279.053 509.789 285.07 512.418 291.405 512.583L427.733 512.583C434.076 512.43 440.11 509.797 444.538 505.252 448.97 500.704 451.439 494.606 451.427 488.259 451.427 476.343 451.427 446.219 453.226 434.303 457.722 404.491 474.315 378.686 490.995 354.406 507.675 330.126 525.167 304.947 537.937 277.969 538.792 276.126 543.289 264.031 544.637 259.984ZM478.499 341.004 476.25 344.288C457.503 371.579 440.28 398.781 435.47 431.786L435.466 431.786C433.876 449.362 433.218 467.013 433.487 484.661L433.487 488.17 433.487 488.166C433.543 491.55 430.93 494.38 427.554 494.597L368.696 494.597 368.696 221.407 406.553 248.385 407.496 248.971 407.501 248.967C415.313 252.926 424.546 252.926 432.362 248.967L462.8 233.142 462.804 233.142C467.212 230.846 468.923 225.41 466.626 221.003 464.326 216.595 458.894 214.885 454.487 217.181L423.731 233.187C421.383 234.162 418.757 234.242 416.356 233.411L371.393 201.488 370.494 200.902 370.494 200.906C362.521 196.928 353.095 197.149 345.315 201.488L344.327 202.163 305.747 233.099C303.279 234.003 300.573 234.003 298.104 233.099L297.61 233.099 263.976 219.61C261.747 218.631 259.218 218.599 256.962 219.518 254.71 220.441 252.928 222.236 252.02 224.492 251.113 226.752 251.161 229.281 252.149 231.505 253.14 233.73 254.991 235.456 257.275 236.291L290.685 249.78C298.722 253.184 307.883 252.686 315.502 248.431L316.49 247.756 350.71 219.923 350.71 494.604 291.403 494.604C288.103 494.254 285.606 491.448 285.65 488.128L285.65 484.619 285.65 484.623C285.915 466.943 285.257 449.263 283.671 431.655 278.5 396.091 257.954 366.098 237.99 337.233L237.227 336.109C218.342 308.638 200.538 282.647 189.566 253.015L189.562 253.015C180.971 228.715 177.988 202.781 180.838 177.164 186.073 130.691 209.101 88.0532 245.092 58.1946L267.124 69.66 322.341 92.5906 333.043 101.222 358.893 157.382C359.796 159.377 361.394 160.979 363.389 161.878L443.379 196.949 444.142 197.262 484.608 210.751 485.419 210.976 503.135 215.023C508.8 225.364 516.938 243.081 525.617 261.828 524.404 264.751 523.188 267.674 521.795 270.821 510.149 294.924 494.592 317.313 478.494 341.012Z" fill="#000000" fill-rule="nonzero" fill-opacity="1" transform="matrix(1 0 0 1.00164 280.548 -4.39019e-14)"/><path d="M15.0623-0.89926C14.2795-0.489773 13.4645-0.184672 12.6215 0.0160531 11.7865 0.216778 10.9113 0.321164 10.004 0.321164 7.27414 0.321164 5.11026-0.437585 3.51646-1.95915 1.91866-3.48872 1.12382-5.5602 1.12382-8.1737 1.12382-10.7952 1.9187-12.8667 3.51646-14.3883 5.11026-15.9178 7.27403-16.6846 10.004-16.6846 10.9113-16.6846 11.7865-16.5802 12.6215-16.3795 13.4645-16.1748 14.2795-15.8696 15.0623-15.4642L15.0623-12.0759C14.2795-12.6098 13.5087-12.9992 12.75-13.2481 11.9872-13.493 11.1843-13.6174 10.3412-13.6174 8.83165-13.6174 7.6434-13.1357 6.7762-12.1723 5.91709-11.2088 5.49155-9.87591 5.49155-8.17379 5.49155-6.47968 5.91709-5.15484 6.7762-4.19135 7.64335-3.22786 8.83165-2.74616 10.3412-2.74616 11.1842-2.74616 11.9872-2.8666 12.75-3.11551 13.5087-3.36039 14.2795-3.74981 15.0623-4.28773Z" fill="#000000" fill-rule="nonzero" fill-opacity="1" transform="matrix(1 0 0 1.00164 352.489 644.022)"/><path d="M11.0162-8.9444C10.6709-9.10498 10.3297-9.2214 9.98846-9.29768 9.65525-9.38198 9.31402-9.42614 8.96074-9.42614 7.95308-9.42614 7.17825-9.09695 6.63232-8.4466 6.08634-7.80427 5.81335-6.87695 5.81335-5.66855L5.81335-3.08318e-05 1.89515-3.08318e-05 1.89515-12.3009 5.81335-12.3009 5.81335-10.2775C6.31517-11.0804 6.89328-11.6626 7.54763-12.0278 8.21003-12.4012 8.99693-12.5898 9.90822-12.5898 10.0447-12.5898 10.1892-12.5818 10.3418-12.5738 10.4903-12.5617 10.7151-12.5417 11.0162-12.5096Z" fill="#000000" fill-rule="nonzero" fill-opacity="1" transform="matrix(1 0 0 1.00164 368.989 644.022)"/><path d="M14.1631-6.18238 14.1631-5.05826 4.97779-5.05826C5.07414-4.13491 5.40333-3.44442 5.9734-2.98677 6.53945-2.5251 7.33832-2.29627 8.36604-2.29627 9.18902-2.29627 10.0361-2.41671 10.9033-2.66561 11.7704-2.9105 12.6616-3.27984 13.585-3.7736L13.585-0.738626C12.6537-0.393372 11.7223-0.132433 10.7909 0.0482209 9.85943 0.228874 8.92811 0.321205 7.99668 0.321205 5.7807 0.321205 4.05042-0.240837 2.80985-1.36488 1.5774-2.49702 0.963133-4.08671 0.963133-6.13414 0.963133-8.13338 1.56532-9.70713 2.77768-10.8553 3.98608-12.0115 5.65614-12.5896 7.78785-12.5896 9.71483-12.5896 11.2564-12.0035 12.4126-10.8393 13.5768-9.68308 14.1629-8.12947 14.1629-6.18245ZM10.1164-7.48307C10.1164-8.22978 9.89562-8.83196 9.45803-9.28159 9.02847-9.73925 8.46242-9.9721 7.75591-9.9721 6.99315-9.9721 6.37486-9.75531 5.89316-9.32977 5.41944-8.90021 5.12639-8.28601 5.00995-7.48305Z" fill="#000000" fill-rule="nonzero" fill-opacity="1" transform="matrix(1 0 0 1.00164 380.073 644.022)"/><path d="M7.40281-5.54006C6.57581-5.54006 5.95762-5.39955 5.54006-5.12254 5.13057-4.84152 4.92984-4.43203 4.92984-3.88609 4.92984-3.39229 5.09444-3.00288 5.42765-2.71386 5.75684-2.43284 6.22254-2.29635 6.82474-2.29635 7.56342-2.29635 8.18165-2.5573 8.68749-3.0832 9.18931-3.61713 9.44223-4.28759 9.44223-5.09045L9.44223-5.54008ZM13.4086-7.01741 13.4086 0 9.44223 0 9.44223-1.81455C8.91632-1.07587 8.32221-0.533903 7.65974-0.192698 7.00537 0.148537 6.20242 0.321164 5.25096 0.321164 3.97432 0.321164 2.94258-0.0481798 2.15175-0.786826 1.35686-1.53353 0.963492-2.50508 0.963492-3.69334 0.963492-5.1265 1.45327-6.18238 2.44085-6.85678 3.43646-7.53122 4.99814-7.86845 7.12984-7.86845L9.44223-7.86845 9.44223-8.17356C9.44223-8.7918 9.19332-9.24949 8.70355-9.53848 8.20976-9.82753 7.44294-9.97206 6.4072-9.97206 5.57217-9.97206 4.78935-9.88374 4.06275-9.71513 3.3321-9.55455 2.65765-9.30163 2.03937-8.96039L2.03937-11.9633C2.88242-12.164 3.72946-12.3206 4.57661-12.429 5.41967-12.5334 6.27072-12.5896 7.1299-12.5896 9.34588-12.5896 10.9437-12.148 11.9313-11.2728 12.9149-10.4057 13.4087-8.98451 13.4087-7.01744Z" fill="#000000" fill-rule="nonzero" fill-opacity="1" transform="matrix(1 0 0 1.00164 395.324 644.022)"/><path d="M6.18238-15.7848 6.18238-12.3002 10.2291-12.3002 10.2291-9.49002 6.18238-9.49002 6.18238-4.27112C6.18238-3.70105 6.2948-3.31566 6.5196-3.11493 6.74442-2.91019 7.19405-2.80982 7.86849-2.80982L9.89188-2.80982 9.89188 0.000390536 6.5197 0.000390536C4.96609 0.000390536 3.86211-0.320774 3.21166-0.963102 2.56933-1.61346 2.24817-2.71743 2.24817-4.27114L2.24817-9.49004 0.28912-9.49004 0.28912-12.3002 2.24817-12.3002 2.24817-15.7849Z" fill="#000000" fill-rule="nonzero" fill-opacity="1" transform="matrix(1 0 0 1.00164 410.491 644.022)"/><path d="M14.1631-6.18238 14.1631-5.05826 4.97779-5.05826C5.07414-4.13491 5.40333-3.44442 5.9734-2.98677 6.53945-2.5251 7.33832-2.29627 8.36604-2.29627 9.18902-2.29627 10.0361-2.41671 10.9033-2.66561 11.7704-2.9105 12.6616-3.27984 13.585-3.7736L13.585-0.738626C12.6537-0.393372 11.7223-0.132433 10.7909 0.0482209 9.85943 0.228874 8.92811 0.321205 7.99668 0.321205 5.7807 0.321205 4.05042-0.240837 2.80985-1.36488 1.5774-2.49702 0.963133-4.08671 0.963133-6.13414 0.963133-8.13338 1.56532-9.70713 2.77768-10.8553 3.98608-12.0115 5.65614-12.5896 7.78785-12.5896 9.71483-12.5896 11.2564-12.0035 12.4126-10.8393 13.5768-9.68308 14.1629-8.12947 14.1629-6.18245ZM10.1164-7.48307C10.1164-8.22978 9.89562-8.83196 9.45803-9.28159 9.02847-9.73925 8.46242-9.9721 7.75591-9.9721 6.99315-9.9721 6.37486-9.75531 5.89316-9.32977 5.41944-8.90021 5.12639-8.28601 5.00995-7.48305Z" fill="#000000" fill-rule="nonzero" fill-opacity="1" transform="matrix(1 0 0 1.00164 421.238 644.022)"/><path d="M10.2452-10.5023 10.2452-17.0861 14.2116-17.0861 14.2116-0.000205545 10.2452-0.000205545 10.2452-1.78269C9.70724-1.05204 9.11304-0.518076 8.4627-0.176872 7.80833 0.152319 7.05359 0.320938 6.19852 0.320938 4.689 0.320938 3.44452-0.277229 2.47302-1.47758 1.49748-2.68598 1.01169-4.23959 1.01169-6.13441 1.01169-8.02923 1.49746-9.57493 2.47302-10.7752 3.44453-11.9836 4.689-12.5898 6.19852-12.5898 7.05362-12.5898 7.80835-12.4171 8.4627-12.0759 9.11306-11.7427 9.70717-11.2168 10.2452-10.5022ZM7.65984-2.53745C8.50289-2.53745 9.14521-2.84256 9.58683-3.45277 10.0244-4.071 10.2452-4.9663 10.2452-6.13451 10.2452-7.31074 10.0244-8.206 9.58683-8.81626 9.14522-9.42647 8.50288-9.73157 7.65984-9.73157 6.82481-9.73157 6.18649-9.42646 5.74889-8.81626 5.30729-8.20605 5.09051-7.31085 5.09051-6.13451 5.09051-4.9663 5.3073-4.07105 5.74889-3.45277 6.18647-2.84255 6.82481-2.53745 7.65984-2.53745Z" fill="#000000" fill-rule="nonzero" fill-opacity="1" transform="matrix(1 0 0 1.00164 436.485 644.022)"/><path d="M8.43053-2.53725C9.27359-2.53725 9.9159-2.84236 10.3575-3.45256 10.7951-4.0708 11.0159-4.96609 11.0159-6.13431 11.0159-7.31054 10.7951-8.20579 10.3575-8.81605 9.91591-9.42627 9.27358-9.73137 8.43053-9.73137 7.58346-9.73137 6.93715-9.41823 6.48752-8.79999 6.03789-8.18978 5.81307-7.29859 5.81307-6.13428 5.81307-4.96606 6.03789-4.07081 6.48752-3.45253 6.93715-2.84232 7.58348-2.53722 8.43053-2.53722ZM5.81302-10.5021C6.359-11.2167 6.95719-11.7426 7.61154-12.0758 8.27394-12.417 9.03268-12.5896 9.89186-12.5896 11.4014-12.5896 12.6418-11.9834 13.6174-10.7751 14.5889-9.5747 15.0787-8.0291 15.0787-6.13429 15.0787-4.23947 14.5889-2.68575 13.6174-1.47746 12.6418-0.277075 11.4014 0.321061 9.89186 0.321061 9.03274 0.321061 8.27401 0.148434 7.61154-0.192801 6.95717-0.534037 6.35895-1.06396 5.81302-1.78259L5.81302-0.000102773 1.89482-0.000102773 1.89482-17.086 5.81302-17.086Z" fill="#000000" fill-rule="nonzero" fill-opacity="1" transform="matrix(1 0 0 1.00164 460.408 644.022)"/><path d="M0.272984-12.3008 4.20722-12.3008 7.51526-3.95058 10.3255-12.3008 14.2437-12.3008 9.07298 1.15619C8.55912 2.52512 7.95297 3.48461 7.25843 4.03064 6.57194 4.57661 5.66063 4.84961 4.52859 4.84961L2.24827 4.84961 2.24827 2.2803 3.48473 2.2803C4.14713 2.2803 4.6289 2.1719 4.92992 1.95913 5.23904 1.74234 5.47589 1.36498 5.63648 0.818974L5.74889 0.465693Z" fill="#000000" fill-rule="nonzero" fill-opacity="1" transform="matrix(1 0 0 1.00164 476.498 644.022)"/><path d="M0.674445-16.3953 4.72111-16.3953 7.54736-4.47985 10.3576-16.3953 14.4364-16.3953 17.2466-4.47985 20.0729-16.3953 24.0874-16.3953 20.2334 0 15.3517 0 12.381-12.4612 9.44228 0 4.56058 0Z" fill="#000000" fill-rule="nonzero" fill-opacity="1" transform="matrix(1 0 0 1.00164 498.98 644.022)"/><path d="M2.07148-16.3953 13.4731-16.3953 13.4731-13.1997 6.29502-13.1997 6.29502-10.1486 13.0395-10.1486 13.0395-6.95297 6.29502-6.95297 6.29502-3.1954 13.714-3.1954 13.714 0.000205545 2.07189 0.000205545Z" fill="#000000" fill-rule="nonzero" fill-opacity="1" transform="matrix(1 0 0 1.00164 523.778 644.022)"/><path d="M8.62323-10.0364C9.29768-10.0364 9.80347-10.1809 10.1488-10.4699 10.49-10.767 10.6626-11.2006 10.6626-11.7706 10.6626-12.3367 10.49-12.7702 10.1488-13.0713 9.80353-13.3684 9.29771-13.5209 8.62323-13.5209L6.29482-13.5209 6.29482-10.0363ZM8.76775-2.87434C9.6108-2.87434 10.2491-3.05099 10.6787-3.40426 11.1042-3.76556 11.321-4.31154 11.321-5.04225 11.321-5.74881 11.1042-6.2787 10.6787-6.63203 10.2612-6.98531 9.62292-7.16195 8.76775-7.16195L6.29484-7.16195 6.29484-2.87438ZM12.702-8.76773C13.6093-8.5108 14.3118-8.02102 14.8056-7.30641 15.3075-6.59985 15.5604-5.73275 15.5604-4.70503 15.5604-3.11925 15.0224-1.935 13.9546-1.15619 12.8826-0.385397 11.2568 1.82561e-15 9.07286 1.82561e-15L2.07148 1.82561e-15 2.07148-16.3953 8.4145-16.3953C10.6827-16.3953 12.3247-16.046 13.3444-15.3515 14.3721-14.6651 14.886-13.5691 14.886-12.0596 14.886-11.2567 14.6973-10.5703 14.3239-10.0042 13.9466-9.44616 13.4086-9.03267 12.7021-8.76773Z" fill="#000000" fill-rule="nonzero" fill-opacity="1" transform="matrix(1 0 0 1.00164 539.137 644.022)"/><path d="M0.112413-16.3953 15.2076-16.3953 15.2076-13.1997 9.78002-13.1997 9.78002 0.00041109 5.55668 0.00041109 5.55668-13.1997 0.112926-13.1997Z" fill="#000000" fill-rule="nonzero" fill-opacity="1" transform="matrix(1 0 0 1.00164 556.271 644.022)"/><path d="M2.07148-16.3953 13.4731-16.3953 13.4731-13.1997 6.29502-13.1997 6.29502-10.1486 13.0395-10.1486 13.0395-6.95297 6.29502-6.95297 6.29502-3.1954 13.714-3.1954 13.714 0.000205545 2.07189 0.000205545Z" fill="#000000" fill-rule="nonzero" fill-opacity="1" transform="matrix(1 0 0 1.00164 571.607 644.022)"/><path d="M15.0623-0.89926C14.2795-0.489773 13.4645-0.184672 12.6215 0.0160531 11.7865 0.216778 10.9113 0.321164 10.004 0.321164 7.27414 0.321164 5.11026-0.437585 3.51646-1.95915 1.91866-3.48872 1.12382-5.5602 1.12382-8.1737 1.12382-10.7952 1.9187-12.8667 3.51646-14.3883 5.11026-15.9178 7.27403-16.6846 10.004-16.6846 10.9113-16.6846 11.7865-16.5802 12.6215-16.3795 13.4645-16.1748 14.2795-15.8696 15.0623-15.4642L15.0623-12.0759C14.2795-12.6098 13.5087-12.9992 12.75-13.2481 11.9872-13.493 11.1843-13.6174 10.3412-13.6174 8.83165-13.6174 7.6434-13.1357 6.7762-12.1723 5.91709-11.2088 5.49155-9.87591 5.49155-8.17379 5.49155-6.47968 5.91709-5.15484 6.7762-4.19135 7.64335-3.22786 8.83165-2.74616 10.3412-2.74616 11.1842-2.74616 11.9872-2.8666 12.75-3.11551 13.5087-3.36039 14.2795-3.74981 15.0623-4.28773Z" fill="#000000" fill-rule="nonzero" fill-opacity="1" transform="matrix(1 0 0 1.00164 586.963 644.022)"/><path d="M2.07148-16.3953 6.29482-16.3953 6.29482-10.1487 12.5254-10.1487 12.5254-16.3953 16.7487-16.3953 16.7487 0 12.5254 0 12.5254-6.95318 6.29482-6.95318 6.29482 0 2.07148 0Z" fill="#000000" fill-rule="nonzero" fill-opacity="1" transform="matrix(1 0 0 1.00164 603.463 644.022)"/><path d="M9.55466-13.6174C8.25798-13.6174 7.25831-13.1396 6.55175-12.1882 5.84519-11.2448 5.49196-9.90789 5.49196-8.1737 5.49196-6.45946 5.84524-5.1267 6.55175-4.17524 7.25831-3.21977 8.25798-2.74608 9.55466-2.74608 10.8473-2.74608 11.851-3.2198 12.5576-4.17524 13.2641-5.12668 13.6174-6.45956 13.6174-8.1737 13.6174-9.90799 13.2641-11.2449 12.5576-12.1882 11.851-13.1397 10.8473-13.6174 9.55466-13.6174ZM9.55466-16.6845C12.1882-16.6845 14.2477-15.9298 15.737-14.4203 17.2344-12.9108 17.9852-10.8273 17.9852-8.1737 17.9852-5.52813 17.2345-3.45254 15.737-1.94312 14.2477-0.433597 12.1882 0.321061 9.55466 0.321061 6.92111 0.321061 4.85364-0.433679 3.35624-1.94312 1.86686-3.45264 1.12413-5.52813 1.12413-8.1737 1.12413-10.8273 1.86682-12.9109 3.35624-14.4203 4.85364-15.9298 6.92122-16.6845 9.55466-16.6845Z" fill="#000000" fill-rule="nonzero" fill-opacity="1" transform="matrix(1 0 0 1.00164 622.279 644.022)"/><path d="M2.07148-16.3953 9.07286-16.3953C11.1604-16.3953 12.7582-15.9296 13.8743-14.9982 14.9984-14.0749 15.5604-12.7581 15.5604-11.0478 15.5604-9.32157 14.9983-7.99673 13.8743-7.06541 12.7583-6.14206 11.1605-5.68435 9.07286-5.68435L6.29482-5.68435 6.29482 0.000205545 2.07148 0.000205545ZM6.29482-13.3282 6.29482-8.75159 8.62323-8.75159C9.44621-8.75159 10.0765-8.94831 10.5182-9.34574 10.9678-9.73917 11.1926-10.3092 11.1926-11.0479 11.1926-11.7745 10.9678-12.3365 10.5182-12.7339 10.0765-13.1274 9.44623-13.3281 8.62323-13.3281Z" fill="#000000" fill-rule="nonzero" fill-opacity="1" transform="matrix(1 0 0 1.00164 641.388 644.022)"/><path d="M13.4725-15.866 13.4725-12.3974C12.5732-12.8029 11.694-13.108 10.8389-13.3128 9.97979-13.5135 9.17286-13.6179 8.41409-13.6179 7.39439-13.6179 6.64763-13.4774 6.16594-13.2004 5.68419-12.9193 5.44333-12.4938 5.44333-11.9157 5.44333-11.4741 5.60391-11.1329 5.92507-10.888 6.25426-10.6391 6.84842-10.4263 7.70756-10.2456L9.50608-9.89237C11.3246-9.52704 12.6213-8.96902 13.3921-8.22232 14.1629-7.47159 14.5483-6.41177 14.5483-5.04274 14.5483-3.2322 14.0063-1.88331 12.9265-0.996071 11.8545-0.116883 10.2207 0.32065 8.02872 0.32065 6.98897 0.32065 5.94522 0.216274 4.89735 0.0155392 3.84557-0.177159 2.7977-0.466207 1.74994-0.851604L1.74994-4.41658C2.7977-3.8706 3.8094-3.45308 4.78491-3.16399 5.76848-2.88296 6.7119-2.74647 7.61116-2.74647 8.54253-2.74647 9.24915-2.89501 9.73084-3.1961 10.2206-3.50522 10.4695-3.95084 10.4695-4.52896 10.4695-5.03078 10.3009-5.42019 9.97171-5.70118 9.6385-5.97818 8.9761-6.2311 7.98049-6.45592L6.3425-6.82527C4.70451-7.1665 3.50423-7.72453 2.74547-8.49532 1.9827-9.26611 1.60531-10.3019 1.60531-11.6106 1.60531-13.2364 2.1272-14.489 3.17896-15.3681 4.23875-16.2433 5.75629-16.6849 7.73949-16.6849 8.63875-16.6849 9.56206-16.6126 10.5175-16.4761 11.469-16.3476 12.4525-16.1429 13.4722-15.8659Z" fill="#000000" fill-rule="nonzero" fill-opacity="1" transform="matrix(1 0 0 1.00164 657.868 644.022)"/><path d="M2.07148-16.3953 6.29482-16.3953 6.29482-3.1952 13.7138-3.1952 13.7138 0.00041109 2.07169 0.00041109Z" fill="#000000" fill-rule="nonzero" fill-opacity="1" transform="matrix(1 0 0 1.00164 681.883 644.022)"/><path d="M2.07148-16.3953 6.29482-16.3953 6.29482-3.1952 13.7138-3.1952 13.7138 0.00041109 2.07169 0.00041109Z" fill="#000000" fill-rule="nonzero" fill-opacity="1" transform="matrix(1 0 0 1.00164 696.211 644.022)"/><path d="M2.07148-16.3953 9.07286-16.3953C11.1604-16.3953 12.7582-15.9296 13.8743-14.9982 14.9984-14.0749 15.5604-12.7581 15.5604-11.0478 15.5604-9.32157 14.9983-7.99673 13.8743-7.06541 12.7583-6.14206 11.1605-5.68435 9.07286-5.68435L6.29482-5.68435 6.29482 0.000205545 2.07148 0.000205545ZM6.29482-13.3282 6.29482-8.75159 8.62323-8.75159C9.44621-8.75159 10.0765-8.94831 10.5182-9.34574 10.9678-9.73917 11.1926-10.3092 11.1926-11.0479 11.1926-11.7745 10.9678-12.3365 10.5182-12.7339 10.0765-13.1274 9.44623-13.3281 8.62323-13.3281Z" fill="#000000" fill-rule="nonzero" fill-opacity="1" transform="matrix(1 0 0 1.00164 710.535 644.022)"/><path d="M9.97212-17.0859 9.97212-14.5006 7.80424-14.5006C7.24621-14.5006 6.8568-14.3962 6.63201-14.1955 6.41523-13.9907 6.31085-13.6415 6.31085-13.1517L6.31085-12.3006 9.66699-12.3006 9.66699-9.49043 6.31085-9.49043 6.31085 0 2.37661 0 2.37661-9.49043 0.433597-9.49043 0.433597-12.3006 2.37661-12.3006 2.37661-13.1517C2.37661-14.4886 2.74997-15.4801 3.50074-16.1225 4.24744-16.7648 5.40368-17.086 6.96931-17.086Z" fill="#000000" fill-rule="nonzero" fill-opacity="1" transform="matrix(1 0 0 1.00164 352.489 666.54)"/><path d="M11.0162-8.9444C10.6709-9.10498 10.3297-9.2214 9.98846-9.29768 9.65525-9.38198 9.31402-9.42614 8.96074-9.42614 7.95308-9.42614 7.17825-9.09695 6.63232-8.4466 6.08634-7.80427 5.81335-6.87695 5.81335-5.66855L5.81335-3.08318e-05 1.89515-3.08318e-05 1.89515-12.3009 5.81335-12.3009 5.81335-10.2775C6.31517-11.0804 6.89328-11.6626 7.54763-12.0278 8.21003-12.4012 8.99693-12.5898 9.90822-12.5898 10.0447-12.5898 10.1892-12.5818 10.3418-12.5738 10.4903-12.5617 10.7151-12.5417 11.0162-12.5096Z" fill="#000000" fill-rule="nonzero" fill-opacity="1" transform="matrix(1 0 0 1.00164 362.268 666.54)"/><path d="M7.74-9.77942C6.87286-9.77942 6.20643-9.46228 5.74879-8.83198 5.28711-8.20973 5.05828-7.31044 5.05828-6.1342 5.05828-4.95396 5.28711-4.0507 5.74879-3.42039 6.20644-2.79814 6.87291-2.48902 7.74-2.48902 8.5951-2.48902 9.24953-2.79814 9.69905-3.42039 10.1567-4.05068 10.3896-4.95396 10.3896-6.1342 10.3896-7.31044 10.1567-8.2097 9.69905-8.83198 9.24942-9.46227 8.59507-9.77942 7.74-9.77942ZM7.74-12.5896C9.84766-12.5896 11.4976-12.0156 12.6859-10.8714 13.8823-9.73523 14.4845-8.15757 14.4845-6.13418 14.4845-4.1108 13.8823-2.52512 12.6859-1.38095 11.4977-0.244804 9.84766 0.321164 7.74 0.321164 5.62032 0.321164 3.95828-0.244886 2.76191-1.38095 1.56153-2.52512 0.96339-4.1108 0.96339-6.13418 0.96339-8.15757 1.56156-9.73523 2.76191-10.8714 3.95828-12.0155 5.62022-12.5896 7.74-12.5896Z" fill="#000000" fill-rule="nonzero" fill-opacity="1" transform="matrix(1 0 0 1.00164 373.356 666.54)"/><path d="M13.2803-10.2452C13.7821-11.016 14.3722-11.5981 15.0467-11.9955 15.7292-12.3889 16.4839-12.5897 17.3109-12.5897 18.724-12.5897 19.7999-12.1481 20.5386-11.2729 21.2773-10.4058 21.6466-9.14122 21.6466-7.4832L21.6466-0.000123327 17.6962-0.000123327 17.6962-6.40737C17.7042-6.50372 17.7123-6.60007 17.7123-6.69642L17.7123-7.14605C17.7123-8.01319 17.5838-8.64345 17.3269-9.04097 17.0699-9.43439 16.6564-9.63512 16.0904-9.63512 15.3397-9.63512 14.7616-9.32198 14.3561-8.70374 13.9587-8.09353 13.7499-7.20234 13.7298-6.03803L13.7298-0.000143882 9.77947-0.000143882 9.77947-6.40739C9.77947-7.7643 9.65903-8.64352 9.42619-9.04094 9.18933-9.43436 8.77182-9.63509 8.1736-9.63509 7.42287-9.63509 6.84074-9.32195 6.42328-8.70371 6.01379-8.08146 5.81307-7.1983 5.81307-6.05413L5.81307-0.000215822 1.8627-0.000215822 1.8627-12.3011 5.81307-12.3011 5.81307-10.5025C6.29481-11.185 6.8448-11.7069 7.46709-12.0602 8.09737-12.4134 8.79193-12.5901 9.5546-12.5901 10.3977-12.5901 11.1484-12.3853 11.8028-11.9799 12.4531-11.5704 12.9469-10.9923 13.2801-10.2456Z" fill="#000000" fill-rule="nonzero" fill-opacity="1" transform="matrix(1 0 0 1.00164 388.8 666.54)"/><path d="M6.18238-15.7848 6.18238-12.3002 10.2291-12.3002 10.2291-9.49002 6.18238-9.49002 6.18238-4.27112C6.18238-3.70105 6.2948-3.31566 6.5196-3.11493 6.74442-2.91019 7.19405-2.80982 7.86849-2.80982L9.89188-2.80982 9.89188 0.000390536 6.5197 0.000390536C4.96609 0.000390536 3.86211-0.320774 3.21166-0.963102 2.56933-1.61346 2.24817-2.71743 2.24817-4.27114L2.24817-9.49004 0.28912-9.49004 0.28912-12.3002 2.24817-12.3002 2.24817-15.7849Z" fill="#000000" fill-rule="nonzero" fill-opacity="1" transform="matrix(1 0 0 1.00164 420.054 666.54)"/><path d="M14.2432-7.48307 14.2432 0 10.2929 0 10.2929-5.70069C10.2929-6.78062 10.2648-7.51925 10.2126-7.91667 10.1684-8.32214 10.0881-8.62323 9.9717-8.81593 9.81915-9.07286 9.6104-9.26958 9.34543-9.41008 9.0885-9.55861 8.78741-9.63489 8.44617-9.63489 7.63121-9.63489 6.98886-9.31373 6.51919-8.6714 6.04546-8.0371 5.81262-7.16599 5.81262-6.05389L5.81262 3.08318e-05 1.89442 3.08318e-05 1.89442-17.0859 5.81262-17.0859 5.81262-10.5021C6.41079-11.2167 7.04106-11.7426 7.70754-12.0757 8.36994-12.417 9.10463-12.5896 9.90749-12.5896 11.3286-12.5896 12.4046-12.148 13.1352-11.2729 13.8738-10.4057 14.2432-9.14117 14.2432-7.48314Z" fill="#000000" fill-rule="nonzero" fill-opacity="1" transform="matrix(1 0 0 1.00164 430.801 666.54)"/><path d="M14.1631-6.18238 14.1631-5.05826 4.97779-5.05826C5.07414-4.13491 5.40333-3.44442 5.9734-2.98677 6.53945-2.5251 7.33832-2.29627 8.36604-2.29627 9.18902-2.29627 10.0361-2.41671 10.9033-2.66561 11.7704-2.9105 12.6616-3.27984 13.585-3.7736L13.585-0.738626C12.6537-0.393372 11.7223-0.132433 10.7909 0.0482209 9.85943 0.228874 8.92811 0.321205 7.99668 0.321205 5.7807 0.321205 4.05042-0.240837 2.80985-1.36488 1.5774-2.49702 0.963133-4.08671 0.963133-6.13414 0.963133-8.13338 1.56532-9.70713 2.77768-10.8553 3.98608-12.0115 5.65614-12.5896 7.78785-12.5896 9.71483-12.5896 11.2564-12.0035 12.4126-10.8393 13.5768-9.68308 14.1629-8.12947 14.1629-6.18245ZM10.1164-7.48307C10.1164-8.22978 9.89562-8.83196 9.45803-9.28159 9.02847-9.73925 8.46242-9.9721 7.75591-9.9721 6.99315-9.9721 6.37486-9.75531 5.89316-9.32977 5.41944-8.90021 5.12639-8.28601 5.00995-7.48305Z" fill="#000000" fill-rule="nonzero" fill-opacity="1" transform="matrix(1 0 0 1.00164 446.807 666.54)"/><path d="M2.07148-16.3953 6.77651-16.3953 12.7502-5.15404 12.7502-16.3953 16.7486-16.3953 16.7486 0 12.0275 0 6.06985-11.2413 6.06985 0 2.07138 0Z" fill="#000000" fill-rule="nonzero" fill-opacity="1" transform="matrix(1 0 0 1.00164 469.878 666.54)"/><path d="M7.74-9.77942C6.87286-9.77942 6.20643-9.46228 5.74879-8.83198 5.28711-8.20973 5.05828-7.31044 5.05828-6.1342 5.05828-4.95396 5.28711-4.0507 5.74879-3.42039 6.20644-2.79814 6.87291-2.48902 7.74-2.48902 8.5951-2.48902 9.24953-2.79814 9.69905-3.42039 10.1567-4.05068 10.3896-4.95396 10.3896-6.1342 10.3896-7.31044 10.1567-8.2097 9.69905-8.83198 9.24942-9.46227 8.59507-9.77942 7.74-9.77942ZM7.74-12.5896C9.84766-12.5896 11.4976-12.0156 12.6859-10.8714 13.8823-9.73523 14.4845-8.15757 14.4845-6.13418 14.4845-4.1108 13.8823-2.52512 12.6859-1.38095 11.4977-0.244804 9.84766 0.321164 7.74 0.321164 5.62032 0.321164 3.95828-0.244886 2.76191-1.38095 1.56153-2.52512 0.96339-4.1108 0.96339-6.13418 0.96339-8.15757 1.56156-9.73523 2.76191-10.8714 3.95828-12.0155 5.62022-12.5896 7.74-12.5896Z" fill="#000000" fill-rule="nonzero" fill-opacity="1" transform="matrix(1 0 0 1.00164 488.695 666.54)"/><path d="M1.75032-4.78529 1.75032-12.3005 5.70069-12.3005 5.70069-11.0641C5.70069-10.3977 5.69266-9.56267 5.68463-8.559L5.68463-6.53561C5.68463-5.54803 5.70872-4.8375 5.76492-4.3999 5.81711-3.97034 5.90141-3.65319 6.02185-3.45246 6.18244-3.19553 6.3912-2.9948 6.64813-2.85831 6.91309-2.7178 7.21418-2.64956 7.54739-2.64956 8.37037-2.64956 9.01272-2.9627 9.47437-3.597 9.94407-4.22728 10.1809-5.10652 10.1809-6.23054L10.1809-12.3005 14.1152-12.3005 14.1152 0.000349427 10.1809 0.000349427 10.1809-1.78214C9.59079-1.06353 8.96452-0.533657 8.30215-0.192349 7.63573 0.148887 6.90907 0.321514 6.11823 0.321514 4.69309 0.321514 3.60514-0.112063 2.85839-0.979175 2.11971-1.85435 1.7504-3.12291 1.7504-4.78494Z" fill="#000000" fill-rule="nonzero" fill-opacity="1" transform="matrix(1 0 0 1.00164 504.138 666.54)"/><path d="M14.2432-7.48307 14.2432 0 10.2929 0 10.2929-5.73275C10.2929-6.79254 10.2648-7.51925 10.2126-7.91667 10.1684-8.32214 10.0881-8.62323 9.9717-8.81593 9.81915-9.07286 9.6104-9.26958 9.34543-9.41008 9.0885-9.55861 8.78741-9.63489 8.44617-9.63489 7.63121-9.63489 6.98886-9.31373 6.51919-8.6714 6.04546-8.0371 5.81262-7.16599 5.81262-6.05389L5.81262 3.08318e-05 1.89442 3.08318e-05 1.89442-12.3008 5.81262-12.3008 5.81262-10.5023C6.41079-11.2169 7.04106-11.7428 7.70754-12.0759 8.36994-12.4172 9.10463-12.5898 9.90749-12.5898 11.3286-12.5898 12.4046-12.1482 13.1352-11.2731 13.8738-10.4059 14.2432-9.14138 14.2432-7.48335Z" fill="#000000" fill-rule="nonzero" fill-opacity="1" transform="matrix(1 0 0 1.00164 520.145 666.54)"/><path d="M2.07148-16.3953 9.07286-16.3953C11.1604-16.3953 12.7582-15.9296 13.8743-14.9982 14.9984-14.0749 15.5604-12.7581 15.5604-11.0478 15.5604-9.32157 14.9983-7.99673 13.8743-7.06541 12.7583-6.14206 11.1605-5.68435 9.07286-5.68435L6.29482-5.68435 6.29482 0.000205545 2.07148 0.000205545ZM6.29482-13.3282 6.29482-8.75159 8.62323-8.75159C9.44621-8.75159 10.0765-8.94831 10.5182-9.34574 10.9678-9.73917 11.1926-10.3092 11.1926-11.0479 11.1926-11.7745 10.9678-12.3365 10.5182-12.7339 10.0765-13.1274 9.44623-13.3281 8.62323-13.3281Z" fill="#000000" fill-rule="nonzero" fill-opacity="1" transform="matrix(1 0 0 1.00164 543.975 666.54)"/><path d="M11.0162-8.9444C10.6709-9.10498 10.3297-9.2214 9.98846-9.29768 9.65525-9.38198 9.31402-9.42614 8.96074-9.42614 7.95308-9.42614 7.17825-9.09695 6.63232-8.4466 6.08634-7.80427 5.81335-6.87695 5.81335-5.66855L5.81335-3.08318e-05 1.89515-3.08318e-05 1.89515-12.3009 5.81335-12.3009 5.81335-10.2775C6.31517-11.0804 6.89328-11.6626 7.54763-12.0278 8.21003-12.4012 8.99693-12.5898 9.90822-12.5898 10.0447-12.5898 10.1892-12.5818 10.3418-12.5738 10.4903-12.5617 10.7151-12.5417 11.0162-12.5096Z" fill="#000000" fill-rule="nonzero" fill-opacity="1" transform="matrix(1 0 0 1.00164 560.455 666.54)"/><path d="M7.74-9.77942C6.87286-9.77942 6.20643-9.46228 5.74879-8.83198 5.28711-8.20973 5.05828-7.31044 5.05828-6.1342 5.05828-4.95396 5.28711-4.0507 5.74879-3.42039 6.20644-2.79814 6.87291-2.48902 7.74-2.48902 8.5951-2.48902 9.24953-2.79814 9.69905-3.42039 10.1567-4.05068 10.3896-4.95396 10.3896-6.1342 10.3896-7.31044 10.1567-8.2097 9.69905-8.83198 9.24942-9.46227 8.59507-9.77942 7.74-9.77942ZM7.74-12.5896C9.84766-12.5896 11.4976-12.0156 12.6859-10.8714 13.8823-9.73523 14.4845-8.15757 14.4845-6.13418 14.4845-4.1108 13.8823-2.52512 12.6859-1.38095 11.4977-0.244804 9.84766 0.321164 7.74 0.321164 5.62032 0.321164 3.95828-0.244886 2.76191-1.38095 1.56153-2.52512 0.96339-4.1108 0.96339-6.13418 0.96339-8.15757 1.56156-9.73523 2.76191-10.8714 3.95828-12.0155 5.62022-12.5896 7.74-12.5896Z" fill="#000000" fill-rule="nonzero" fill-opacity="1" transform="matrix(1 0 0 1.00164 571.539 666.54)"/><path d="M1.89492-12.3008 5.81312-12.3008 5.81312-0.225072C5.81312 1.42093 5.41568 2.68144 4.62487 3.54863 3.84203 4.41578 2.70189 4.84932 1.20449 4.84932L-0.738523 4.84932-0.738523 2.28001-0.0640787 2.28001C0.682625 2.28001 1.19653 2.10738 1.47751 1.76615 1.75451 1.43294 1.89502 0.770537 1.89502-0.225072ZM1.89492-17.0861 5.81312-17.0861 5.81312-13.8745 1.89492-13.8745Z" fill="#000000" fill-rule="nonzero" fill-opacity="1" transform="matrix(1 0 0 1.00164 586.987 666.54)"/><path d="M14.1631-6.18238 14.1631-5.05826 4.97779-5.05826C5.07414-4.13491 5.40333-3.44442 5.9734-2.98677 6.53945-2.5251 7.33832-2.29627 8.36604-2.29627 9.18902-2.29627 10.0361-2.41671 10.9033-2.66561 11.7704-2.9105 12.6616-3.27984 13.585-3.7736L13.585-0.738626C12.6537-0.393372 11.7223-0.132433 10.7909 0.0482209 9.85943 0.228874 8.92811 0.321205 7.99668 0.321205 5.7807 0.321205 4.05042-0.240837 2.80985-1.36488 1.5774-2.49702 0.963133-4.08671 0.963133-6.13414 0.963133-8.13338 1.56532-9.70713 2.77768-10.8553 3.98608-12.0115 5.65614-12.5896 7.78785-12.5896 9.71483-12.5896 11.2564-12.0035 12.4126-10.8393 13.5768-9.68308 14.1629-8.12947 14.1629-6.18245ZM10.1164-7.48307C10.1164-8.22978 9.89562-8.83196 9.45803-9.28159 9.02847-9.73925 8.46242-9.9721 7.75591-9.9721 6.99315-9.9721 6.37486-9.75531 5.89316-9.32977 5.41944-8.90021 5.12639-8.28601 5.00995-7.48305Z" fill="#000000" fill-rule="nonzero" fill-opacity="1" transform="matrix(1 0 0 1.00164 594.691 666.54)"/><path d="M11.8188-11.9154 11.8188-8.7038C11.2809-9.06511 10.7469-9.33409 10.213-9.50671 9.67507-9.68737 9.12106-9.7797 8.54297-9.7797 7.43898-9.7797 6.58392-9.45854 5.97365-8.81621 5.36339-8.17388 5.05834-7.27863 5.05834-6.13446 5.05834-4.98629 5.36345-4.09504 5.97365-3.45271 6.58385-2.81039 7.43898-2.48922 8.54297-2.48922 9.15318-2.48922 9.73122-2.57754 10.2773-2.76221 10.8313-2.94286 11.3452-3.21586 11.8188-3.58118L11.8188-0.369539C11.2086-0.132679 10.5864 0.0359293 9.95609 0.144323 9.32179 0.260744 8.68746 0.320969 8.04514 0.320969 5.82915 0.320969 4.09477-0.245082 2.84228-1.38115 1.58969-2.52532 0.963492-4.11099 0.963492-6.13438 0.963492-8.15776 1.58977-9.73542 2.84228-10.8716 4.09487-12.0157 5.82905-12.5898 8.04514-12.5898 8.68746-12.5898 9.31777-12.5296 9.94005-12.4132 10.5703-12.3048 11.1967-12.1402 11.8188-11.9154Z" fill="#000000" fill-rule="nonzero" fill-opacity="1" transform="matrix(1 0 0 1.00164 609.938 666.54)"/><path d="M6.18238-15.7848 6.18238-12.3002 10.2291-12.3002 10.2291-9.49002 6.18238-9.49002 6.18238-4.27112C6.18238-3.70105 6.2948-3.31566 6.5196-3.11493 6.74442-2.91019 7.19405-2.80982 7.86849-2.80982L9.89188-2.80982 9.89188 0.000390536 6.5197 0.000390536C4.96609 0.000390536 3.86211-0.320774 3.21166-0.963102 2.56933-1.61346 2.24817-2.71743 2.24817-4.27114L2.24817-9.49004 0.28912-9.49004 0.28912-12.3002 2.24817-12.3002 2.24817-15.7849Z" fill="#000000" fill-rule="nonzero" fill-opacity="1" transform="matrix(1 0 0 1.00164 623.266 666.54)"/></g></g></g></svg>