<svg width="571" height="569" xmlns="http://www.w3.org/2000/svg" xmlns:xlink="http://www.w3.org/1999/xlink" xml:space="preserve" overflow="hidden"><defs><clipPath id="clip0"><rect x="353" y="0" width="571" height="569"/></clipPath><clipPath id="clip1"><rect x="354" y="0" width="569" height="569"/></clipPath><clipPath id="clip2"><rect x="354" y="0" width="569" height="570"/></clipPath></defs><g clip-path="url(#clip0)" transform="translate(-353 0)"><g clip-path="url(#clip1)"><g clip-path="url(#clip2)"><path d="M473.998 285.77C504.576 285.77 533.903 273.621 555.526 251.998 577.149 230.375 589.298 201.048 589.298 170.469 589.298 139.887 577.149 110.56 555.526 88.9367 533.903 67.3138 504.576 55.1692 473.998 55.1692 443.415 55.1692 414.088 67.3138 392.465 88.9367 370.842 110.56 358.697 139.887 358.697 170.469 358.697 201.048 370.842 230.375 392.465 251.998 414.088 273.621 443.415 285.77 473.998 285.77ZM473.998 72.4642 473.998 72.4602C499.988 72.4602 524.916 82.7868 543.297 101.169 561.675 119.547 572.002 144.475 572.002 170.469 572.002 196.458 561.675 221.387 543.297 239.768 524.916 258.146 499.988 268.473 473.998 268.473 448.004 268.473 423.075 258.146 404.698 239.768 386.317 221.387 375.989 196.458 375.989 170.469 375.961 144.454 386.272 119.498 404.654 101.092 423.039 82.6859 447.984 72.3469 473.998 72.3469Z" fill="#000000" fill-rule="nonzero" fill-opacity="1" transform="matrix(1 0 0 1.00001 279.927 -4.39051e-14)"/><path d="M535.745 170.418C535.745 175.195 539.618 179.068 544.395 179.068L561.691 179.068C566.464 179.068 570.337 175.195 570.337 170.418 570.337 165.645 566.464 161.772 561.691 161.772L544.395 161.772C539.618 161.772 535.745 165.645 535.745 170.418Z" fill="#000000" fill-rule="nonzero" fill-opacity="1" transform="matrix(1 0 0 1.00001 279.927 -4.39051e-14)"/><path d="M412.199 170.418C412.199 165.645 408.33 161.772 403.553 161.772L386.257 161.772C381.483 161.772 377.611 165.645 377.611 170.418 377.611 175.195 381.483 179.068 386.257 179.068L403.553 179.068C408.33 179.068 412.199 175.195 412.199 170.418Z" fill="#000000" fill-rule="nonzero" fill-opacity="1" transform="matrix(1 0 0 1.00001 279.927 -4.39051e-14)"/><path d="M473.998 108.732C478.771 108.732 482.644 104.86 482.644 100.082L482.644 82.7864C482.644 78.013 478.771 74.1405 473.998 74.1405 469.22 74.1405 465.348 78.013 465.348 82.7864L465.348 100.082C465.348 104.86 469.22 108.732 473.998 108.732Z" fill="#000000" fill-rule="nonzero" fill-opacity="1" transform="matrix(1 0 0 1.00001 279.927 -4.39051e-14)"/><path d="M473.998 232.155C469.22 232.155 465.348 236.028 465.348 240.801L465.348 258.097C465.348 262.874 469.22 266.747 473.998 266.747 478.771 266.747 482.644 262.874 482.644 258.097L482.644 240.801C482.644 236.028 478.771 232.155 473.998 232.155Z" fill="#000000" fill-rule="nonzero" fill-opacity="1" transform="matrix(1 0 0 1.00001 279.927 -4.39051e-14)"/><path d="M453.645 162.285C452.579 164.863 452.033 167.626 452.033 170.412 452.033 178.262 456.219 185.513 463.015 189.434 469.811 193.359 478.183 193.359 484.98 189.434 491.776 185.513 495.962 178.262 495.962 170.412 495.962 167.626 495.411 164.863 494.345 162.285L542.485 114.145C545.658 110.739 545.566 105.431 542.272 102.138 538.979 98.8441 533.67 98.7515 530.264 101.924L482.125 149.891C479.539 148.85 476.78 148.303 473.997 148.275 471.211 148.299 468.452 148.846 465.866 149.891L439.176 123.37C435.786 120.029 430.341 120.029 426.951 123.37 425.319 124.983 424.402 127.187 424.402 129.483 424.402 131.779 425.319 133.979 426.951 135.591ZM478.666 170.412C478.666 172.302 477.528 174.003 475.783 174.727 474.038 175.451 472.031 175.049 470.692 173.714 469.357 172.379 468.959 170.372 469.683 168.627 470.406 166.882 472.107 165.744 473.997 165.744 475.236 165.744 476.422 166.234 477.299 167.111 478.172 167.987 478.666 169.174 478.666 170.412Z" fill="#000000" fill-rule="nonzero" fill-opacity="1" transform="matrix(1 0 0 1.00001 279.927 -4.39051e-14)"/><path d="M179.117 112.655C179.117 135.427 197.278 160.85 221.606 160.85 245.935 160.85 264.095 135.427 264.095 112.655L264.091 112.655C264.108 101.571 259.563 90.9678 251.529 83.3354 243.494 75.7028 232.673 71.7137 221.606 72.2964 210.535 71.7133 199.714 75.7025 191.68 83.3354 183.645 90.968 179.101 101.572 179.117 112.655ZM246.796 112.655C246.796 126.548 235.267 143.555 221.602 143.555 207.941 143.555 196.412 126.834 196.412 112.655 196.384 106.148 199.102 99.9355 203.9 95.5438 208.697 91.1525 215.127 88.993 221.606 89.5923 228.08 88.9931 234.51 91.1525 239.307 95.5438 244.105 99.9351 246.823 106.148 246.795 112.655Z" fill="#000000" fill-rule="nonzero" fill-opacity="1" transform="matrix(1 0 0 1.00001 279.927 -4.39051e-14)"/><path d="M151.383 352.068C156.559 351.947 161.517 349.948 165.333 346.45 169.15 342.951 171.567 338.19 172.138 333.043L172.773 328.833 167.006 493.887C167.006 510.777 176.979 522.137 191.794 522.137 206.608 522.137 216.581 510.608 216.581 494.405L221.829 410.524 227.017 493.887C227.017 510.777 236.99 522.137 251.804 522.137L251.812 522.137C257.41 522.471 262.968 520.995 267.664 517.93 269.659 516.515 271.428 514.802 272.912 512.856L324.795 445.98 361.172 480.572C362.821 482.205 365.081 483.066 367.398 482.937 369.698 482.881 371.877 481.904 373.454 480.227L487.138 359.223 488.292 397.904C488.449 402.569 492.273 406.265 496.938 406.265 499.234 406.22 501.414 405.251 502.986 403.582 504.558 401.914 505.391 399.678 505.298 397.386L503.513 337.889C503.464 336.82 503.231 335.766 502.821 334.777 502.342 333.744 501.679 332.807 500.859 332.01 500.054 331.262 499.117 330.675 498.092 330.281 497.191 329.935 496.234 329.762 495.269 329.762L435.254 331.262C430.477 331.339 426.669 335.276 426.749 340.053 426.829 344.83 430.766 348.635 435.54 348.554L474.165 347.4 366.359 462.011 329.29 426.61C327.545 424.909 325.148 424.049 322.72 424.25 320.258 424.411 317.986 425.629 316.494 427.592L258.844 502.019C258.45 502.582 257.964 503.068 257.401 503.458 255.647 504.436 253.633 504.838 251.638 504.613 245.469 504.613 244.142 498.846 244.142 493.084L234.688 342.04 234.688 342.036C234.181 337.605 230.385 334.283 225.925 334.371L217.103 334.371C212.522 334.363 208.73 337.926 208.457 342.499L198.886 493.892C198.886 498.907 197.559 504.847 191.39 504.847 185.221 504.847 183.894 499.08 183.894 494.238L190.296 322.265 189.142 224.261C189.098 219.765 185.612 216.058 181.132 215.728 176.616 215.35 172.59 218.563 171.963 223.051L155.017 330.63 155.017 331.205C154.74 333.035 153.32 334.479 151.498 334.78 149.649 334.446 148.229 332.955 147.984 331.093L159.513 224.038C159.541 223.729 159.541 223.423 159.513 223.113 159.066 214.27 161.926 205.572 167.527 198.716 173.129 191.856 181.079 187.32 189.834 185.989 197.961 184.895 214.047 183.741 221.828 183.741L221.832 183.741C232.166 183.878 242.482 184.609 252.732 185.932 261.467 187.356 269.377 191.924 274.982 198.769 280.584 205.617 283.499 214.275 283.169 223.114L283.169 224.151 296.316 331.031C295.58 333.053 293.778 334.501 291.647 334.778 289.833 334.497 288.41 333.077 288.128 331.264L288.128 330.628 271.066 222.761C270.732 217.987 266.59 214.384 261.813 214.718 257.035 215.056 253.436 219.198 253.77 223.971L252.732 322.844 257.055 440.451C257.232 445.228 261.246 448.956 266.019 448.783 270.796 448.606 274.528 444.593 274.351 439.815L270.257 328.612 270.949 332.879C271.496 338.026 273.897 342.796 277.709 346.298 281.517 349.801 286.472 351.791 291.647 351.904 297.325 351.767 302.746 349.495 306.828 345.542 310.909 341.589 313.35 336.245 313.668 330.575L313.668 329.537 300.699 222.596C300.972 209.688 296.544 197.121 288.24 187.236 279.936 177.351 268.318 170.821 255.554 168.866 244.471 167.386 233.304 166.578 222.12 166.445 210.555 166.634 199.01 167.426 187.528 168.81 174.736 170.764 163.091 177.307 154.766 187.211 146.438 197.12 141.999 209.715 142.272 222.656L130.743 329.834 130.743 330.755C130.811 336.272 132.987 341.556 136.823 345.521 140.659 349.487 145.867 351.835 151.381 352.084Z" fill="#000000" fill-rule="nonzero" fill-opacity="1" transform="matrix(1 0 0 1.00001 279.927 -4.39051e-14)"/><path d="M19.319-1.15815C18.3217-0.643417 17.2801-0.257367 16.1985 0 15.1247 0.265407 13.9988 0.402131 12.8206 0.402131 9.32203 0.402131 6.55132-0.571035 4.50443-2.52547 2.45353-4.48784 1.43209-7.14201 1.43209-10.4878 1.43209-13.8416 2.45352-16.4956 4.50443-18.4501 6.55132-20.4125 9.32203-21.3938 12.8206-21.3938 13.9988-21.3938 15.1248-21.257 16.1985-20.9916 17.2802-20.7343 18.3217-20.3482 19.319-19.8335L19.319-15.4904C18.3096-16.1659 17.3164-16.6646 16.3432-16.9863 15.366-17.308 14.3366-17.4688 13.2548-17.4688 11.3246-17.4688 9.80444-16.8455 8.7026-15.6029 7.59675-14.3684 7.04578-12.6633 7.04578-10.4877 7.04578-8.32017 7.59671-6.61516 8.7026-5.37249 9.80444-4.13795 11.3246-3.52264 13.2548-3.52264 14.3366-3.52264 15.366-3.67546 16.3432-3.98911 17.3164-4.31082 18.3097-4.81349 19.319-5.5012Z" fill="#000000" fill-rule="nonzero" fill-opacity="1" transform="matrix(1 0 0 1.00001 351.989 662.985)"/><path d="M14.1387-11.4693C13.6883-11.6704 13.2419-11.8232 12.8036-11.9197 12.3733-12.0242 11.939-12.0805 11.5007-12.0805 10.2018-12.0805 9.20447-11.6623 8.50886-10.8258 7.80914-9.99743 7.46333-8.81517 7.46333-7.27097L7.46333-0.000360314 2.42862-0.000360314 2.42862-15.7636 7.46333-15.7636 7.46333-13.1738C8.10675-14.2033 8.84673-14.9513 9.68307-15.4258 10.5275-15.9084 11.5369-16.1496 12.7071-16.1496 12.876-16.1496 13.061-16.1376 13.254-16.1175 13.4551-16.1054 13.7446-16.0773 14.1226-16.037Z" fill="#000000" fill-rule="nonzero" fill-opacity="1" transform="matrix(1 0 0 1.00001 373.142 662.985)"/><path d="M18.1608-7.93009 18.1608-6.48245 6.37034-6.48245C6.49903-5.30021 6.92529-4.41549 7.65718-3.82838 8.38504-3.23724 9.41046-2.94368 10.7295-2.94368 11.7911-2.94368 12.8729-3.09649 13.9787-3.41015 15.0926-3.73186 16.2347-4.20638 17.4049-4.84173L17.4049-0.965167C16.2146-0.514775 15.0243-0.176986 13.8339 0.0482203 12.6436 0.281456 11.4532 0.4021 10.2629 0.4021 7.40774 0.4021 5.1879-0.321739 3.60344-1.76946 2.02712-3.2171 1.23886-5.24793 1.23886-7.86586 1.23886-10.4395 2.01499-12.4582 3.57122-13.93 5.12345-15.4099 7.25877-16.1498 9.97327-16.1498 12.4504-16.1498 14.4329-15.3978 15.9248-13.8978 17.4127-12.4059 18.1607-10.4153 18.1607-7.9301ZM12.9814-9.60297C12.9814-10.556 12.6999-11.3241 12.1449-11.9032 11.586-12.4903 10.8581-12.7879 9.95732-12.7879 8.98013-12.7879 8.18787-12.5145 7.57667-11.9676 6.96548-11.4206 6.5834-10.6324 6.43458-9.60297Z" fill="#000000" fill-rule="nonzero" fill-opacity="1" transform="matrix(1 0 0 1.00001 387.357 662.985)"/><path d="M9.49045-7.09365C8.4369-7.09365 7.64462-6.9167 7.10981-6.56283 6.58301-6.20895 6.32163-5.68216 6.32163-4.98651 6.32163-4.3431 6.53476-3.83639 6.96505-3.47443 7.39131-3.12055 7.98245-2.94362 8.7345-2.94362 9.68756-2.94362 10.4878-3.28141 11.1312-3.957 11.7827-4.64063 12.1124-5.49318 12.1124-6.51461L12.1124-7.09369ZM17.1793-8.99178 17.1793 0 12.1124 0 12.1124-2.33236C11.4368-1.37528 10.6728-0.679551 9.82822-0.241307 8.97971 0.184954 7.95027 0.40211 6.73982 0.40211 5.10719 0.40211 3.78412-0.0683875 2.76669-1.01341 1.74527-1.96647 1.23855-3.20504 1.23855-4.72917 1.23855-6.57099 1.8699-7.92216 3.13668-8.78269 4.41147-9.65131 6.41008-10.0856 9.13652-10.0856L12.1123-10.0856 12.1123-10.4877C12.1123-11.2799 11.7946-11.859 11.1633-12.2249 10.5279-12.5989 9.54668-12.7879 8.2196-12.7879 7.13382-12.7879 6.12854-12.6794 5.19554-12.4662 4.27062-12.2491 3.41404-11.9274 2.62187-11.5011L2.62187-15.3455C3.69159-15.6029 4.76923-15.8 5.85501-15.9407 6.94882-16.0774 8.04263-16.1498 9.13644-16.1498 11.9755-16.1498 14.0264-15.5868 15.2811-14.4609 16.5439-13.343 17.1793-11.5212 17.1793-8.99182Z" fill="#000000" fill-rule="nonzero" fill-opacity="1" transform="matrix(1 0 0 1.00001 406.909 662.985)"/><path d="M7.93009-20.2352 7.93009-15.7634 13.1257-15.7634 13.1257-12.1603 7.93009-12.1603 7.93009-5.46874C7.93009-4.73685 8.07485-4.24624 8.3644-3.98888 8.65395-3.73151 9.22497-3.60283 10.0856-3.60283L12.6753-3.60283 12.6753 0.00030884 8.3644 0.00030884C6.36981 0.00030884 4.95429-0.409872 4.11785-1.23824 3.28945-2.07469 2.8793-3.48217 2.8793-5.46874L2.8793-12.1603 0.38603-12.1603 0.38603-15.7634 2.8793-15.7634 2.8793-20.2352Z" fill="#000000" fill-rule="nonzero" fill-opacity="1" transform="matrix(1 0 0 1.00001 426.36 662.985)"/><path d="M18.1608-7.93009 18.1608-6.48245 6.37034-6.48245C6.49903-5.30021 6.92529-4.41549 7.65718-3.82838 8.38504-3.23724 9.41046-2.94368 10.7295-2.94368 11.7911-2.94368 12.8729-3.09649 13.9787-3.41015 15.0926-3.73186 16.2347-4.20638 17.4049-4.84173L17.4049-0.965167C16.2146-0.514775 15.0243-0.176986 13.8339 0.0482203 12.6436 0.281456 11.4532 0.4021 10.2629 0.4021 7.40774 0.4021 5.1879-0.321739 3.60344-1.76946 2.02712-3.2171 1.23886-5.24793 1.23886-7.86586 1.23886-10.4395 2.01499-12.4582 3.57122-13.93 5.12345-15.4099 7.25877-16.1498 9.97327-16.1498 12.4504-16.1498 14.4329-15.3978 15.9248-13.8978 17.4127-12.4059 18.1607-10.4153 18.1607-7.9301ZM12.9814-9.60297C12.9814-10.556 12.6999-11.3241 12.1449-11.9032 11.586-12.4903 10.8581-12.7879 9.95732-12.7879 8.98013-12.7879 8.18787-12.5145 7.57667-11.9676 6.96548-11.4206 6.5834-10.6324 6.43458-9.60297Z" fill="#000000" fill-rule="nonzero" fill-opacity="1" transform="matrix(1 0 0 1.00001 440.138 662.985)"/><path d="M13.1422-13.4634 13.1422-21.9082 18.2091-21.9082 18.2091-0.000102947 13.1422-0.000102947 13.1422-2.28429C12.4545-1.35133 11.6945-0.667713 10.858-0.24141 10.0215 0.184892 9.0484 0.402007 7.94656 0.402007 6.00427 0.402007 4.41178-0.370093 3.16922-1.91429 1.92263-3.4585 1.30331-5.44104 1.30331-7.86585 1.30331-10.2988 1.92259-12.2894 3.16922-13.8336 4.41178-15.3778 6.00427-16.1499 7.94656-16.1499 9.04037-16.1499 10.0055-15.9287 10.8419-15.4904 11.6864-15.048 12.4545-14.3725 13.1422-13.4636ZM9.82853-3.2491C10.8982-3.2491 11.7185-3.63918 12.2896-4.42331 12.8566-5.21552 13.1421-6.36159 13.1421-7.86565 13.1421-9.36558 12.8566-10.5077 12.2896-11.2918 11.7185-12.084 10.8981-12.4821 9.82853-12.4821 8.7548-12.4821 7.93452-12.084 7.36749-11.2918 6.79645-10.5076 6.51496-9.36558 6.51496-7.86565 6.51496-6.3617 6.79646-5.21559 7.36749-4.42331 7.9345-3.63915 8.7549-3.2491 9.82853-3.2491Z" fill="#000000" fill-rule="nonzero" fill-opacity="1" transform="matrix(1 0 0 1.00001 459.689 662.985)"/><path d="M10.8094-3.2492C11.8912-3.2492 12.7156-3.63928 13.2865-4.42342 13.8535-5.21562 14.139-6.3617 14.139-7.86575 14.139-9.36568 13.8535-10.5078 13.2865-11.2919 12.7155-12.0841 11.8911-12.4822 10.8094-12.4822 9.72363-12.4822 8.89522-12.0841 8.31614-11.2919 7.7451-10.4957 7.46362-9.35364 7.46362-7.86575 7.46362-6.37384 7.74512-5.23175 8.31614-4.43958 8.89522-3.64335 9.72363-3.24931 10.8094-3.24931ZM7.46364-13.4635C8.15933-14.3723 8.92744-15.0479 9.76388-15.4903 10.6084-15.9286 11.5815-16.1498 12.6753-16.1498 14.6256-16.1498 16.2221-15.3777 17.4687-13.8335 18.7113-12.2893 19.3346-10.2987 19.3346-7.86577 19.3346-5.44086 18.7113-3.45841 17.4687-1.91421 16.2221-0.370011 14.6256 0.402089 12.6753 0.402089 11.5815 0.402089 10.6084 0.184934 9.76388-0.241328 8.92744-0.679654 8.15935-1.35923 7.46364-2.2842L7.46364-2.05893e-05 2.42893-2.05893e-05 2.42893-21.9081 7.46364-21.9081Z" fill="#000000" fill-rule="nonzero" fill-opacity="1" transform="matrix(1 0 0 1.00001 490.356 662.985)"/><path d="M0.353879-15.7632 5.38859-15.7632 9.63515-5.06601 13.2383-15.7632 18.273-15.7632 11.6458 1.49685C10.9783 3.2421 10.2022 4.46459 9.31344 5.16432 8.42069 5.87208 7.2545 6.22591 5.80686 6.22591L2.87927 6.22591 2.87927 2.91226 4.45559 2.91226C5.31213 2.91226 5.93545 2.77151 6.3215 2.49404 6.71559 2.22461 7.02121 1.74204 7.23836 1.0464L7.38312 0.61209Z" fill="#000000" fill-rule="nonzero" fill-opacity="1" transform="matrix(1 0 0 1.00001 510.99 662.985)"/><path d="M2.65407-21.0073 17.2756-21.0073 17.2756-16.9216 8.05867-16.9216 8.05867-13.0128 16.7287-13.0128 16.7287-8.91097 8.05867-8.91097 8.05867 0.00030884 2.65397 0.00030884Z" fill="#000000" fill-rule="nonzero" fill-opacity="1" transform="matrix(1 0 0 1.00001 539.815 662.985)"/><path d="M14.1387-11.4693C13.6883-11.6704 13.2419-11.8232 12.8036-11.9197 12.3733-12.0242 11.939-12.0805 11.5007-12.0805 10.2018-12.0805 9.20447-11.6623 8.50886-10.8258 7.80914-9.99743 7.46333-8.81517 7.46333-7.27097L7.46333-0.000360314 2.42862-0.000360314 2.42862-15.7636 7.46333-15.7636 7.46333-13.1738C8.10675-14.2033 8.84673-14.9513 9.68307-15.4258 10.5275-15.9084 11.5369-16.1496 12.7071-16.1496 12.876-16.1496 13.061-16.1376 13.254-16.1175 13.4551-16.1054 13.7446-16.0773 14.1226-16.037Z" fill="#000000" fill-rule="nonzero" fill-opacity="1" transform="matrix(1 0 0 1.00001 559.508 662.985)"/><path d="M9.49045-7.09365C8.4369-7.09365 7.64462-6.9167 7.10981-6.56283 6.58301-6.20895 6.32163-5.68216 6.32163-4.98651 6.32163-4.3431 6.53476-3.83639 6.96505-3.47443 7.39131-3.12055 7.98245-2.94362 8.7345-2.94362 9.68756-2.94362 10.4878-3.28141 11.1312-3.957 11.7827-4.64063 12.1124-5.49318 12.1124-6.51461L12.1124-7.09369ZM17.1793-8.99178 17.1793 0 12.1124 0 12.1124-2.33236C11.4368-1.37528 10.6728-0.679551 9.82822-0.241307 8.97971 0.184954 7.95027 0.40211 6.73982 0.40211 5.10719 0.40211 3.78412-0.0683875 2.76669-1.01341 1.74527-1.96647 1.23855-3.20504 1.23855-4.72917 1.23855-6.57099 1.8699-7.92216 3.13668-8.78269 4.41147-9.65131 6.41008-10.0856 9.13652-10.0856L12.1123-10.0856 12.1123-10.4877C12.1123-11.2799 11.7946-11.859 11.1633-12.2249 10.5279-12.5989 9.54668-12.7879 8.2196-12.7879 7.13382-12.7879 6.12854-12.6794 5.19554-12.4662 4.27062-12.2491 3.41404-11.9274 2.62187-11.5011L2.62187-15.3455C3.69159-15.6029 4.76923-15.8 5.85501-15.9407 6.94882-16.0774 8.04263-16.1498 9.13644-16.1498 11.9755-16.1498 14.0264-15.5868 15.2811-14.4609 16.5439-13.343 17.1793-11.5212 17.1793-8.99182Z" fill="#000000" fill-rule="nonzero" fill-opacity="1" transform="matrix(1 0 0 1.00001 573.723 662.985)"/><path d="M18.273-9.60297 18.273 0 13.2061 0 13.2061-7.35101C13.2061-8.71022 13.1739-9.65126 13.1096-10.166 13.0453-10.6807 12.9367-11.0587 12.7879-11.3081 12.5949-11.6298 12.3254-11.8791 11.9836-12.0641 11.6498-12.2451 11.2678-12.3375 10.8415-12.3375 9.78797-12.3375 8.96357-11.9274 8.36442-11.1151 7.76122-10.3108 7.46364-9.18882 7.46364-7.75323L7.46364-0.000102947 2.42893-0.000102947 2.42893-15.7633 7.46364-15.7633 7.46364-13.4631C8.22367-14.3719 9.02791-15.0475 9.8765-15.4899 10.7331-15.9282 11.6781-16.1494 12.7075-16.1494 14.5292-16.1494 15.9126-15.5864 16.8575-14.4604 17.7985-13.3425 18.273-11.726 18.273-9.60258Z" fill="#000000" fill-rule="nonzero" fill-opacity="1" transform="matrix(1 0 0 1.00001 593.174 662.985)"/><path d="M19.319-1.15815C18.3217-0.643417 17.2801-0.257367 16.1985 0 15.1247 0.265407 13.9988 0.402131 12.8206 0.402131 9.32203 0.402131 6.55132-0.571035 4.50443-2.52547 2.45353-4.48784 1.43209-7.14201 1.43209-10.4878 1.43209-13.8416 2.45352-16.4956 4.50443-18.4501 6.55132-20.4125 9.32203-21.3938 12.8206-21.3938 13.9988-21.3938 15.1248-21.257 16.1985-20.9916 17.2802-20.7343 18.3217-20.3482 19.319-19.8335L19.319-15.4904C18.3096-16.1659 17.3164-16.6646 16.3432-16.9863 15.366-17.308 14.3366-17.4688 13.2548-17.4688 11.3246-17.4688 9.80444-16.8455 8.7026-15.6029 7.59675-14.3684 7.04578-12.6633 7.04578-10.4877 7.04578-8.32017 7.59671-6.61516 8.7026-5.37249 9.80444-4.13795 11.3246-3.52264 13.2548-3.52264 14.3366-3.52264 15.366-3.67546 16.3432-3.98911 17.3164-4.31082 18.3097-4.81349 19.319-5.5012Z" fill="#000000" fill-rule="nonzero" fill-opacity="1" transform="matrix(1 0 0 1.00001 623.729 662.985)"/><path d="M9.92468-12.5471C8.80678-12.5471 7.95418-12.145 7.36707-11.3407 6.77593-10.5364 6.48237-9.37835 6.48237-7.86626 6.48237-6.35418 6.77593-5.19603 7.36707-4.39181 7.95419-3.59558 8.80668-3.20154 9.92468-3.20154 11.0185-3.20154 11.8549-3.59563 12.434-4.39181 13.0211-5.19608 13.3187-6.35418 13.3187-7.86626 13.3187-9.37835 13.0211-10.5365 12.434-11.3407 11.8549-12.145 11.0185-12.5471 9.92468-12.5471ZM9.92468-16.1503C12.6351-16.1503 14.7543-15.4144 16.2785-13.9466 17.7986-12.4868 18.5626-10.4601 18.5626-7.86637 18.5626-5.28065 17.7986-3.25384 16.2785-1.78613 14.7543-0.326341 12.6351 0.401492 9.92468 0.401492 7.19824 0.401492 5.07095-0.326372 3.53879-1.78613 2.00262-3.25394 1.23855-5.28065 1.23855-7.86637 1.23855-10.4601 2.00261-12.4869 3.53879-13.9466 5.07095-15.4144 7.19824-16.1503 9.92468-16.1503Z" fill="#000000" fill-rule="nonzero" fill-opacity="1" transform="matrix(1 0 0 1.00001 644.885 662.985)"/><path d="M2.25196-6.14468 2.25196-15.7638 7.31889-15.7638 7.31889-14.1875C7.31889-13.3269 7.31085-12.2572 7.30281-10.9704 7.29075-9.68358 7.28672-8.82305 7.28672-8.39675 7.28672-7.11794 7.31889-6.2011 7.38324-5.64611 7.45562-5.08714 7.56822-4.68501 7.72103-4.43968 7.93416-4.10591 8.20761-3.84854 8.54139-3.66758 8.87114-3.49466 9.25317-3.41021 9.68348-3.41021 10.733-3.41021 11.5574-3.81234 12.1606-4.61665 12.7598-5.42092 13.0614-6.53887 13.0614-7.97848L13.0614-15.7638 18.0961-15.7638 18.0961-0.00061768 13.0614-0.00061768 13.0614-2.2848C12.2973-1.35989 11.4931-0.680272 10.6485-0.241925 9.79999 0.184336 8.86299 0.401492 7.83353 0.401492 6.01991 0.401492 4.63652-0.153452 3.68354-1.27139 2.72645-2.38528 2.25196-4.00998 2.25196-6.1453Z" fill="#000000" fill-rule="nonzero" fill-opacity="1" transform="matrix(1 0 0 1.00001 664.69 662.985)"/><path d="M7.93009-20.2352 7.93009-15.7634 13.1257-15.7634 13.1257-12.1603 7.93009-12.1603 7.93009-5.46874C7.93009-4.73685 8.07485-4.24624 8.3644-3.98888 8.65395-3.73151 9.22497-3.60283 10.0856-3.60283L12.6753-3.60283 12.6753 0.00030884 8.3644 0.00030884C6.36981 0.00030884 4.95429-0.409872 4.11785-1.23824 3.28945-2.07469 2.8793-3.48217 2.8793-5.46874L2.8793-12.1603 0.38603-12.1603 0.38603-15.7634 2.8793-15.7634 2.8793-20.2352Z" fill="#000000" fill-rule="nonzero" fill-opacity="1" transform="matrix(1 0 0 1.00001 685.207 662.985)"/><path d="M9.92468-12.5471C8.80678-12.5471 7.95418-12.145 7.36707-11.3407 6.77593-10.5364 6.48237-9.37835 6.48237-7.86626 6.48237-6.35418 6.77593-5.19603 7.36707-4.39181 7.95419-3.59558 8.80668-3.20154 9.92468-3.20154 11.0185-3.20154 11.8549-3.59563 12.434-4.39181 13.0211-5.19608 13.3187-6.35418 13.3187-7.86626 13.3187-9.37835 13.0211-10.5365 12.434-11.3407 11.8549-12.145 11.0185-12.5471 9.92468-12.5471ZM9.92468-16.1503C12.6351-16.1503 14.7543-15.4144 16.2785-13.9466 17.7986-12.4868 18.5626-10.4601 18.5626-7.86637 18.5626-5.28065 17.7986-3.25384 16.2785-1.78613 14.7543-0.326341 12.6351 0.401492 9.92468 0.401492 7.19824 0.401492 5.07095-0.326372 3.53879-1.78613 2.00262-3.25394 1.23855-5.28065 1.23855-7.86637 1.23855-10.4601 2.00261-12.4869 3.53879-13.9466 5.07095-15.4144 7.19824-16.1503 9.92468-16.1503Z" fill="#000000" fill-rule="nonzero" fill-opacity="1" transform="matrix(1 0 0 1.00001 698.988 662.985)"/><path d="M12.788-21.9081 12.788-18.5944 10.0053-18.5944C9.29753-18.5944 8.79886-18.4658 8.50937-18.2084 8.22787-17.951 8.09115-17.5006 8.09115-16.8572L8.09115-15.7634 12.402-15.7634 12.402-12.1603 8.09115-12.1603 8.09115-0.000205893 3.05644-0.000205893 3.05644-12.1603 0.54711-12.1603 0.54711-15.7634 3.05644-15.7634 3.05644-16.8572C3.05644-18.5704 3.53096-19.841 4.48801-20.6694 5.44107-21.4938 6.92497-21.908 8.94365-21.908Z" fill="#000000" fill-rule="nonzero" fill-opacity="1" transform="matrix(1 0 0 1.00001 351.989 691.811)"/><path d="M14.1387-11.4693C13.6883-11.6704 13.2419-11.8232 12.8036-11.9197 12.3733-12.0242 11.939-12.0805 11.5007-12.0805 10.2018-12.0805 9.20447-11.6623 8.50886-10.8258 7.80914-9.99743 7.46333-8.81517 7.46333-7.27097L7.46333-0.000360314 2.42862-0.000360314 2.42862-15.7636 7.46333-15.7636 7.46333-13.1738C8.10675-14.2033 8.84673-14.9513 9.68307-15.4258 10.5275-15.9084 11.5369-16.1496 12.7071-16.1496 12.876-16.1496 13.061-16.1376 13.254-16.1175 13.4551-16.1054 13.7446-16.0773 14.1226-16.037Z" fill="#000000" fill-rule="nonzero" fill-opacity="1" transform="matrix(1 0 0 1.00001 364.532 691.811)"/><path d="M9.92468-12.5471C8.80678-12.5471 7.95418-12.145 7.36707-11.3407 6.77593-10.5364 6.48237-9.37835 6.48237-7.86626 6.48237-6.35418 6.77593-5.19603 7.36707-4.39181 7.95419-3.59558 8.80668-3.20154 9.92468-3.20154 11.0185-3.20154 11.8549-3.59563 12.434-4.39181 13.0211-5.19608 13.3187-6.35418 13.3187-7.86626 13.3187-9.37835 13.0211-10.5365 12.434-11.3407 11.8549-12.145 11.0185-12.5471 9.92468-12.5471ZM9.92468-16.1503C12.6351-16.1503 14.7543-15.4144 16.2785-13.9466 17.7986-12.4868 18.5626-10.4601 18.5626-7.86637 18.5626-5.28065 17.7986-3.25384 16.2785-1.78613 14.7543-0.326341 12.6351 0.401492 9.92468 0.401492 7.19824 0.401492 5.07095-0.326372 3.53879-1.78613 2.00262-3.25394 1.23855-5.28065 1.23855-7.86637 1.23855-10.4601 2.00261-12.4869 3.53879-13.9466 5.07095-15.4144 7.19824-16.1503 9.92468-16.1503Z" fill="#000000" fill-rule="nonzero" fill-opacity="1" transform="matrix(1 0 0 1.00001 378.748 691.811)"/><path d="M17.0346-13.1422C17.6659-14.1153 18.422-14.8633 19.3026-15.3781 20.1793-15.8928 21.1444-16.1502 22.198-16.1502 24.0076-16.1502 25.387-15.5872 26.3319-14.4612 27.285-13.3433 27.7635-11.7268 27.7635-9.60339L27.7635-0.000411787 22.6966-0.000411787 22.6966-8.22009 22.6966-8.59006C22.7046-8.72678 22.7126-8.91981 22.7126-9.16914 22.7126-10.283 22.5438-11.0873 22.214-11.582 21.8923-12.0847 21.3655-12.338 20.6377-12.338 19.6806-12.338 18.9407-11.9399 18.4179-11.1478 17.8911-10.3636 17.6217-9.22553 17.6137-7.73764L17.6137-0.000576502 12.5467-0.000576502 12.5467-8.22026C12.5467-9.96551 12.3939-11.0875 12.0963-11.5821 11.7947-12.0848 11.2599-12.3381 10.4878-12.3381 9.52267-12.3381 8.77466-11.94 8.2519-11.1478 7.7251-10.3637 7.46372-9.23364 7.46372-7.75378L7.46372-0.000658859 2.39678-0.000658859 2.39678-15.7639 7.46372-15.7639 7.46372-13.4636C8.083-14.3523 8.7908-15.0239 9.58699-15.4743 10.3913-15.9247 11.2759-16.1499 12.2411-16.1499 13.3349-16.1499 14.3-15.8845 15.1364-15.3617 15.9729-14.8349 16.6043-14.0949 17.0346-13.1419Z" fill="#000000" fill-rule="nonzero" fill-opacity="1" transform="matrix(1 0 0 1.00001 398.549 691.811)"/><path d="M7.93009-20.2352 7.93009-15.7634 13.1257-15.7634 13.1257-12.1603 7.93009-12.1603 7.93009-5.46874C7.93009-4.73685 8.07485-4.24624 8.3644-3.98888 8.65395-3.73151 9.22497-3.60283 10.0856-3.60283L12.6753-3.60283 12.6753 0.00030884 8.3644 0.00030884C6.36981 0.00030884 4.95429-0.409872 4.11785-1.23824 3.28945-2.07469 2.8793-3.48217 2.8793-5.46874L2.8793-12.1603 0.38603-12.1603 0.38603-15.7634 2.8793-15.7634 2.8793-20.2352Z" fill="#000000" fill-rule="nonzero" fill-opacity="1" transform="matrix(1 0 0 1.00001 438.622 691.811)"/><path d="M18.273-9.60297 18.273 0 13.2061 0 13.2061-7.31889C13.2061-8.70229 13.1739-9.65126 13.1096-10.166 13.0453-10.6807 12.9367-11.0587 12.7879-11.3081 12.5949-11.6298 12.3254-11.8791 11.9836-12.0641 11.6498-12.2451 11.2678-12.3375 10.8415-12.3375 9.78797-12.3375 8.96357-11.9274 8.36442-11.1151 7.76122-10.3108 7.46364-9.18882 7.46364-7.75323L7.46364-0.000102947 2.42893-0.000102947 2.42893-21.9082 7.46364-21.9082 7.46364-13.4634C8.22367-14.3722 9.02791-15.0478 9.8765-15.4902 10.7331-15.9285 11.6781-16.1497 12.7075-16.1497 14.5292-16.1497 15.9126-15.5867 16.8575-14.4607 17.7985-13.3428 18.273-11.7263 18.273-9.60289Z" fill="#000000" fill-rule="nonzero" fill-opacity="1" transform="matrix(1 0 0 1.00001 452.399 691.811)"/><path d="M18.1608-7.93009 18.1608-6.48245 6.37034-6.48245C6.49903-5.30021 6.92529-4.41549 7.65718-3.82838 8.38504-3.23724 9.41046-2.94368 10.7295-2.94368 11.7911-2.94368 12.8729-3.09649 13.9787-3.41015 15.0926-3.73186 16.2347-4.20638 17.4049-4.84173L17.4049-0.965167C16.2146-0.514775 15.0243-0.176986 13.8339 0.0482203 12.6436 0.281456 11.4532 0.4021 10.2629 0.4021 7.40774 0.4021 5.1879-0.321739 3.60344-1.76946 2.02712-3.2171 1.23886-5.24793 1.23886-7.86586 1.23886-10.4395 2.01499-12.4582 3.57122-13.93 5.12345-15.4099 7.25877-16.1498 9.97327-16.1498 12.4504-16.1498 14.4329-15.3978 15.9248-13.8978 17.4127-12.4059 18.1607-10.4153 18.1607-7.9301ZM12.9814-9.60297C12.9814-10.556 12.6999-11.3241 12.1449-11.9032 11.586-12.4903 10.8581-12.7879 9.95732-12.7879 8.98013-12.7879 8.18787-12.5145 7.57667-11.9676 6.96548-11.4206 6.5834-10.6324 6.43458-9.60297Z" fill="#000000" fill-rule="nonzero" fill-opacity="1" transform="matrix(1 0 0 1.00001 472.92 691.811)"/><path d="M2.65407-21.0073 8.70219-21.0073 16.3428-6.59477 16.3428-21.0073 21.4741-21.0073 21.4741 0 15.426 0 7.78535-14.4125 7.78535 0 2.65407 0Z" fill="#000000" fill-rule="nonzero" fill-opacity="1" transform="matrix(1 0 0 1.00001 502.505 691.811)"/><path d="M9.92468-12.5471C8.80678-12.5471 7.95418-12.145 7.36707-11.3407 6.77593-10.5364 6.48237-9.37835 6.48237-7.86626 6.48237-6.35418 6.77593-5.19603 7.36707-4.39181 7.95419-3.59558 8.80668-3.20154 9.92468-3.20154 11.0185-3.20154 11.8549-3.59563 12.434-4.39181 13.0211-5.19608 13.3187-6.35418 13.3187-7.86626 13.3187-9.37835 13.0211-10.5365 12.434-11.3407 11.8549-12.145 11.0185-12.5471 9.92468-12.5471ZM9.92468-16.1503C12.6351-16.1503 14.7543-15.4144 16.2785-13.9466 17.7986-12.4868 18.5626-10.4601 18.5626-7.86637 18.5626-5.28065 17.7986-3.25384 16.2785-1.78613 14.7543-0.326341 12.6351 0.401492 9.92468 0.401492 7.19824 0.401492 5.07095-0.326372 3.53879-1.78613 2.00262-3.25394 1.23855-5.28065 1.23855-7.86637 1.23855-10.4601 2.00261-12.4869 3.53879-13.9466 5.07095-15.4144 7.19824-16.1503 9.92468-16.1503Z" fill="#000000" fill-rule="nonzero" fill-opacity="1" transform="matrix(1 0 0 1.00001 526.629 691.811)"/><path d="M2.25196-6.14468 2.25196-15.7638 7.31889-15.7638 7.31889-14.1875C7.31889-13.3269 7.31085-12.2572 7.30281-10.9704 7.29075-9.68358 7.28672-8.82305 7.28672-8.39675 7.28672-7.11794 7.31889-6.2011 7.38324-5.64611 7.45562-5.08714 7.56822-4.68501 7.72103-4.43968 7.93416-4.10591 8.20761-3.84854 8.54139-3.66758 8.87114-3.49466 9.25317-3.41021 9.68348-3.41021 10.733-3.41021 11.5574-3.81234 12.1606-4.61665 12.7598-5.42092 13.0614-6.53887 13.0614-7.97848L13.0614-15.7638 18.0961-15.7638 18.0961-0.00061768 13.0614-0.00061768 13.0614-2.2848C12.2973-1.35989 11.4931-0.680272 10.6485-0.241925 9.79999 0.184336 8.86299 0.401492 7.83353 0.401492 6.01991 0.401492 4.63652-0.153452 3.68354-1.27139 2.72645-2.38528 2.25196-4.00998 2.25196-6.1453Z" fill="#000000" fill-rule="nonzero" fill-opacity="1" transform="matrix(1 0 0 1.00001 546.434 691.811)"/><path d="M18.273-9.60297 18.273 0 13.2061 0 13.2061-7.35101C13.2061-8.71022 13.1739-9.65126 13.1096-10.166 13.0453-10.6807 12.9367-11.0587 12.7879-11.3081 12.5949-11.6298 12.3254-11.8791 11.9836-12.0641 11.6498-12.2451 11.2678-12.3375 10.8415-12.3375 9.78797-12.3375 8.96357-11.9274 8.36442-11.1151 7.76122-10.3108 7.46364-9.18882 7.46364-7.75323L7.46364-0.000102947 2.42893-0.000102947 2.42893-15.7633 7.46364-15.7633 7.46364-13.4631C8.22367-14.3719 9.02791-15.0475 9.8765-15.4899 10.7331-15.9282 11.6781-16.1494 12.7075-16.1494 14.5292-16.1494 15.9126-15.5864 16.8575-14.4604 17.7985-13.3425 18.273-11.726 18.273-9.60258Z" fill="#000000" fill-rule="nonzero" fill-opacity="1" transform="matrix(1 0 0 1.00001 566.955 691.811)"/><path d="M2.65407-21.0073 11.6458-21.0073C14.3161-21.0073 16.3629-20.4122 17.7905-19.2218 19.2261-18.0396 19.946-16.3505 19.946-14.1549 19.946-11.9552 19.2262-10.2622 17.7905-9.07187 16.363-7.8816 14.3161-7.28636 11.6458-7.28636L8.05877-7.28636 8.05877 0.00030884 2.65407 0.00030884ZM8.05877-17.0825 8.05877-11.2113 11.0668-11.2113C12.1163-11.2113 12.9247-11.4687 13.4957-11.9834 14.0748-12.4981 14.3643-13.222 14.3643-14.155 14.3643-15.096 14.0748-15.8198 13.4957-16.3265 12.9247-16.8292 12.1164-17.0825 11.0668-17.0825Z" fill="#000000" fill-rule="nonzero" fill-opacity="1" transform="matrix(1 0 0 1.00001 597.509 691.811)"/><path d="M14.1387-11.4693C13.6883-11.6704 13.2419-11.8232 12.8036-11.9197 12.3733-12.0242 11.939-12.0805 11.5007-12.0805 10.2018-12.0805 9.20447-11.6623 8.50886-10.8258 7.80914-9.99743 7.46333-8.81517 7.46333-7.27097L7.46333-0.000360314 2.42862-0.000360314 2.42862-15.7636 7.46333-15.7636 7.46333-13.1738C8.10675-14.2033 8.84673-14.9513 9.68307-15.4258 10.5275-15.9084 11.5369-16.1496 12.7071-16.1496 12.876-16.1496 13.061-16.1376 13.254-16.1175 13.4551-16.1054 13.7446-16.0773 14.1226-16.037Z" fill="#000000" fill-rule="nonzero" fill-opacity="1" transform="matrix(1 0 0 1.00001 618.638 691.811)"/><path d="M9.92468-12.5471C8.80678-12.5471 7.95418-12.145 7.36707-11.3407 6.77593-10.5364 6.48237-9.37835 6.48237-7.86626 6.48237-6.35418 6.77593-5.19603 7.36707-4.39181 7.95419-3.59558 8.80668-3.20154 9.92468-3.20154 11.0185-3.20154 11.8549-3.59563 12.434-4.39181 13.0211-5.19608 13.3187-6.35418 13.3187-7.86626 13.3187-9.37835 13.0211-10.5365 12.434-11.3407 11.8549-12.145 11.0185-12.5471 9.92468-12.5471ZM9.92468-16.1503C12.6351-16.1503 14.7543-15.4144 16.2785-13.9466 17.7986-12.4868 18.5626-10.4601 18.5626-7.86637 18.5626-5.28065 17.7986-3.25384 16.2785-1.78613 14.7543-0.326341 12.6351 0.401492 9.92468 0.401492 7.19824 0.401492 5.07095-0.326372 3.53879-1.78613 2.00262-3.25394 1.23855-5.28065 1.23855-7.86637 1.23855-10.4601 2.00261-12.4869 3.53879-13.9466 5.07095-15.4144 7.19824-16.1503 9.92468-16.1503Z" fill="#000000" fill-rule="nonzero" fill-opacity="1" transform="matrix(1 0 0 1.00001 632.849 691.811)"/><path d="M2.42893-15.7632 7.46364-15.7632 7.46364-0.28928C7.46364 1.82195 6.95293 3.43451 5.9355 4.55241 4.92614 5.66629 3.45839 6.22529 1.52814 6.22529L-0.965126 6.22529-0.965126 2.91164-0.080422 2.91164C0.872638 2.91164 1.52812 2.69449 1.88195 2.26823 2.24387 1.83794 2.42885 0.985406 2.42885-0.289383ZM2.42893-21.9079 7.46364-21.9079 7.46364-17.79 2.42893-17.79Z" fill="#000000" fill-rule="nonzero" fill-opacity="1" transform="matrix(1 0 0 1.00001 652.654 691.811)"/><path d="M18.1608-7.93009 18.1608-6.48245 6.37034-6.48245C6.49903-5.30021 6.92529-4.41549 7.65718-3.82838 8.38504-3.23724 9.41046-2.94368 10.7295-2.94368 11.7911-2.94368 12.8729-3.09649 13.9787-3.41015 15.0926-3.73186 16.2347-4.20638 17.4049-4.84173L17.4049-0.965167C16.2146-0.514775 15.0243-0.176986 13.8339 0.0482203 12.6436 0.281456 11.4532 0.4021 10.2629 0.4021 7.40774 0.4021 5.1879-0.321739 3.60344-1.76946 2.02712-3.2171 1.23886-5.24793 1.23886-7.86586 1.23886-10.4395 2.01499-12.4582 3.57122-13.93 5.12345-15.4099 7.25877-16.1498 9.97327-16.1498 12.4504-16.1498 14.4329-15.3978 15.9248-13.8978 17.4127-12.4059 18.1607-10.4153 18.1607-7.9301ZM12.9814-9.60297C12.9814-10.556 12.6999-11.3241 12.1449-11.9032 11.586-12.4903 10.8581-12.7879 9.95732-12.7879 8.98013-12.7879 8.18787-12.5145 7.57667-11.9676 6.96548-11.4206 6.5834-10.6324 6.43458-9.60297Z" fill="#000000" fill-rule="nonzero" fill-opacity="1" transform="matrix(1 0 0 1.00001 662.535 691.811)"/><path d="M15.1527-15.2649 15.1527-11.1631C14.4771-11.6336 13.7895-11.9835 13.0938-12.2087 12.4061-12.4339 11.6943-12.5464 10.9545-12.5464 9.54697-12.5464 8.44915-12.1323 7.65697-11.3079 6.87281-10.4916 6.48276-9.34552 6.48276-7.86556 6.48276-6.39373 6.87284-5.24763 7.65697-4.42323 8.44918-3.60689 9.54697-3.20074 10.9545-3.20074 11.7346-3.20074 12.4826-3.31334 13.1904-3.53853 13.8981-3.77176 14.5496-4.12163 15.1527-4.58405L15.1527-0.466184C14.3686-0.176646 13.5683 0.0364843 12.756 0.177233 11.9518 0.326022 11.1354 0.402429 10.311 0.402429 7.46796 0.402429 5.24411-0.325435 3.63556-1.78519 2.03505-3.24096 1.23886-5.26767 1.23886-7.86543 1.23886-10.4712 2.03509-12.502 3.63556-13.9618 5.24411-15.4176 7.46796-16.1495 10.311-16.1495 11.1354-16.1495 11.9518-16.073 12.756-15.9243 13.5603-15.7835 14.3565-15.5623 15.1527-15.2648Z" fill="#000000" fill-rule="nonzero" fill-opacity="1" transform="matrix(1 0 0 1.00001 682.087 691.811)"/><path d="M7.93009-20.2352 7.93009-15.7634 13.1257-15.7634 13.1257-12.1603 7.93009-12.1603 7.93009-5.46874C7.93009-4.73685 8.07485-4.24624 8.3644-3.98888 8.65395-3.73151 9.22497-3.60283 10.0856-3.60283L12.6753-3.60283 12.6753 0.00030884 8.3644 0.00030884C6.36981 0.00030884 4.95429-0.409872 4.11785-1.23824 3.28945-2.07469 2.8793-3.48217 2.8793-5.46874L2.8793-12.1603 0.38603-12.1603 0.38603-15.7634 2.8793-15.7634 2.8793-20.2352Z" fill="#000000" fill-rule="nonzero" fill-opacity="1" transform="matrix(1 0 0 1.00001 699.169 691.811)"/></g></g></g></svg>