<svg width="26" height="26" viewBox="0 0 26 26" fill="none" xmlns="http://www.w3.org/2000/svg">
<path d="M6.09375 8.42969C6.37424 8.42969 6.60156 8.20236 6.60156 7.92188V5.89062C6.60156 5.61014 6.37424 5.38281 6.09375 5.38281C5.81326 5.38281 5.58594 5.61014 5.58594 5.89062V7.92188C5.58594 8.20236 5.81326 8.42969 6.09375 8.42969Z" fill="#3C81ED"/>
<path d="M23.9688 11.9844V7.92188C23.9688 6.52182 22.8297 5.38281 21.4297 5.38281H18.5859V1.52344C18.5859 0.683365 17.9026 0 17.0625 0H7.61719C6.77711 0 6.09375 0.683365 6.09375 1.52344V3.35156H4.57031C3.73024 3.35156 3.04688 4.03493 3.04688 4.875V5.38281H2.53906C1.13901 5.38281 0 6.52182 0 7.92188V23.4609C0 24.861 1.13901 26 2.53906 26H18.0781C19.3042 26 20.3302 25.1264 20.566 23.9688H21.4297C22.8297 23.9688 23.9688 22.8297 23.9688 21.4297V20.1094H24.4766C25.3166 20.1094 26 19.426 26 18.5859V14.0156C26 12.8957 25.0887 11.9844 23.9688 11.9844ZM24.9844 14.0156C24.9844 14.5766 24.5297 15.0312 23.9688 15.0312V13C24.5287 13 24.9844 13.4556 24.9844 14.0156ZM21.4297 6.39844C22.2698 6.39844 22.9531 7.0818 22.9531 7.92188V15.0312H20.6172V11.9844C20.6172 10.7583 19.7436 9.73235 18.5859 9.49649V6.39844H21.4297ZM7.10938 1.52344C7.10938 1.24335 7.3371 1.01562 7.61719 1.01562H17.0625C17.3426 1.01562 17.5703 1.24335 17.5703 1.52344V9.44531H15.2344V4.875C15.2344 4.03493 14.551 3.35156 13.7109 3.35156H7.10938V1.52344ZM12.1875 9.44531V4.36719H13.7109C13.991 4.36719 14.2188 4.59491 14.2188 4.875V9.44531H12.1875ZM9.14062 9.44531V4.36719H11.1719V9.44531H9.14062ZM4.0625 4.875C4.0625 4.59491 4.29022 4.36719 4.57031 4.36719H8.125V9.44531H4.0625V4.875ZM2.53906 6.39844H3.04688V9.44531H2.64777C1.80849 9.44531 1.01562 8.83752 1.01562 7.92188C1.01562 7.0818 1.69899 6.39844 2.53906 6.39844ZM18.0781 24.9844H2.53906C1.69899 24.9844 1.01562 24.301 1.01562 23.4609V9.92178C1.46968 10.26 2.03998 10.4609 2.64777 10.4609H18.0781C18.9182 10.4609 19.6016 11.1443 19.6016 11.9844V15.0312H16.0469C15.2068 15.0312 14.5234 15.7146 14.5234 16.5547V18.5859C14.5234 19.426 15.2068 20.1094 16.0469 20.1094H19.6016V23.4609C19.6016 24.301 18.9182 24.9844 18.0781 24.9844ZM22.9531 21.4297C22.9531 22.2698 22.2698 22.9531 21.4297 22.9531H20.6172V20.1094H22.9531V21.4297ZM24.4766 19.0938H16.0469C15.7668 19.0938 15.5391 18.866 15.5391 18.5859V16.5547C15.5391 16.2746 15.7668 16.0469 16.0469 16.0469H23.9688C24.3312 16.0469 24.6789 15.9521 24.9844 15.7749V18.5859C24.9844 18.866 24.7567 19.0938 24.4766 19.0938Z" fill="#3C81ED"/>
<path d="M25.1875 15.4375H15.4375V19.0938H25.1875V15.4375Z" fill="#3C81ED"/>
<circle cx="17.6719" cy="17.6719" r="1.01562" fill="white"/>
<path d="M14.625 15.8438L25.1875 15.6406V19.0938H14.625V15.8438Z" fill="#3C81ED"/>
<circle cx="16.8594" cy="17.6719" r="1.01562" fill="white"/>
</svg>
