<svg width="26" height="26" viewBox="0 0 26 26" fill="none" xmlns="http://www.w3.org/2000/svg">
<path d="M25.2383 21.4292C24.8172 21.4292 24.4765 21.7699 24.4765 22.1909V23.399L21.3789 20.3013V11.9916L13.7617 15.0384V24.1793L20.4339 21.5105L23.3994 24.476H22.1914C21.7704 24.476 21.4297 24.8167 21.4297 25.2377C21.4297 25.6588 21.7704 25.9995 22.1914 25.9995H25.2383C25.3374 25.9995 25.4361 25.9793 25.5291 25.9409C25.7157 25.8637 25.8642 25.7151 25.9414 25.5286C25.9799 25.4355 26 25.3368 26 25.2377V22.1908C26 21.7699 25.6593 21.4292 25.2383 21.4292Z" fill="#3C81ED"/>
<path d="M4.62109 11.9917V20.3013L1.52343 23.399V22.1909C1.52343 21.7699 1.18274 21.4292 0.761717 21.4292C0.340691 21.4292 0 21.7699 0 22.1909V25.2378C0 25.3369 0.0201093 25.4356 0.0586015 25.5287C0.177531 25.816 0.458605 25.9995 0.761717 25.9995H3.80859C4.22961 25.9995 4.5703 25.6588 4.5703 25.2378C4.5703 24.8168 4.22961 24.4761 3.80859 24.4761H2.60055L5.56607 21.5106L12.2383 24.1794V15.0388L4.62109 11.9917Z" fill="#3C81ED"/>
<path d="M13.7615 7.91327V2.59994L14.6154 3.45387C14.913 3.7514 15.395 3.7514 15.6926 3.45387C15.9901 3.15635 15.9901 2.67428 15.6926 2.37675L13.5393 0.223481C13.2421 -0.0744518 12.7563 -0.073233 12.4603 0.223481L10.307 2.37681C10.0094 2.67433 10.0094 3.1564 10.307 3.45392C10.6045 3.75145 11.0866 3.75145 11.3841 3.45392L12.2381 2.59994V7.91327L5.38281 10.6554L12.9998 13.7023L20.6168 10.6554L13.7615 7.91327Z" fill="#3C81ED"/>
</svg>
