<svg width="18" height="26" viewBox="0 0 18 26" fill="none" xmlns="http://www.w3.org/2000/svg">
<path d="M6.19629 24.2666V24.4705C6.19629 25.3137 6.88248 25.9999 7.7257 25.9999H10.2747C11.1179 25.9999 11.8041 25.3137 11.8041 24.4705V24.2666H6.19629Z" fill="#3C81ED"/>
<path d="M12.7216 17.5372C11.0368 17.5372 6.8807 17.5372 5.27844 17.5372C4.43512 17.5372 3.74902 18.2233 3.74902 19.0666V21.2078C3.74902 22.0511 4.43512 22.7372 5.27844 22.7372H12.7216C13.5649 22.7372 14.251 22.0511 14.251 21.2078V19.0666C14.251 18.2233 13.5649 17.5372 12.7216 17.5372Z" fill="#3C81ED"/>
<path d="M9.00025 0C2.57724 0 -1.24884 6.95984 2.16735 12.1695C2.69245 12.9704 3.35622 13.6684 4.12653 14.2347C4.69037 14.6492 5.02378 15.3079 5.02378 16.0078H8.23555V11.7984C8.23555 11.3865 8.55163 11.0322 8.96304 11.0128C9.40198 10.9919 9.76496 11.3421 9.76496 11.7765V16.0078H12.9767C12.9767 15.3085 13.3101 14.6487 13.874 14.2347C14.6443 13.6684 15.3081 12.9704 15.8332 12.1695C19.2473 6.9629 15.4263 0 9.00025 0V0ZM7.0941 9.46247C6.79739 9.75918 6.31206 9.76224 6.01229 9.46247L4.28202 7.7322C3.98327 7.43345 3.98327 6.94914 4.28202 6.65039C4.58077 6.35165 5.06508 6.35165 5.36382 6.65039L7.0941 8.38067C7.39233 8.67941 7.39233 9.16373 7.0941 9.46247ZM9.76496 7.69804C9.76496 8.12016 9.42237 8.46275 9.00025 8.46275C8.57814 8.46275 8.23555 8.12016 8.23555 7.69804V5.25098C8.23555 4.82886 8.57814 4.48627 9.00025 4.48627C9.42237 4.48627 9.76496 4.82886 9.76496 5.25098V7.69804ZM13.7185 7.7322L11.9882 9.46247C11.8388 9.61184 11.6431 9.68628 11.4473 9.68628C10.7688 9.68628 10.4267 8.86141 10.9064 8.38067L12.6367 6.65039C12.9354 6.35165 13.4197 6.35165 13.7185 6.65039C14.0172 6.94914 14.0172 7.43345 13.7185 7.7322Z" fill="#3C81ED"/>
</svg>
