<svg id="Layer_1" data-name="Layer 1" xmlns="http://www.w3.org/2000/svg" xmlns:xlink="http://www.w3.org/1999/xlink" viewBox="0 0 1024 1024"><defs><style>.cls-1{fill:#fff;}.cls-2{fill:#ecf3ff;}.cls-3{fill:url(#linear-gradient);}.cls-4{fill:#252784;}.cls-5{mask:url(#mask);}.cls-6{fill:url(#linear-gradient-2);}.cls-7{mask:url(#mask-2);}.cls-8{fill:url(#linear-gradient-3);}.cls-9{mask:url(#mask-3-2);}.cls-10{fill:url(#linear-gradient-4);}.cls-11{mask:url(#mask-4);}.cls-12{fill:url(#linear-gradient-5);}.cls-13{fill:#b3cdfa;}.cls-14{fill:#dbe7fd;}.cls-15{fill:#3f4997;}.cls-16{fill:#a2bcea;}.cls-17{fill:#cad7ed;}.cls-18{fill:#d7dfed;}.cls-19{fill:#9b9b9b;opacity:0.19;isolation:isolate;}.cls-20{mask:url(#mask-5);}.cls-21{fill:#99b9d9;}.cls-22{mask:url(#mask-6-2);}.cls-23{fill:url(#linear-gradient-6);}.cls-24{mask:url(#mask-7);}.cls-25{fill:url(#linear-gradient-7);}.cls-26{mask:url(#mask-8);}.cls-27{fill:url(#linear-gradient-8);}.cls-28{mask:url(#mask-9-2);}.cls-29{fill:url(#linear-gradient-9);}.cls-30{mask:url(#mask-10);}.cls-31{fill:url(#linear-gradient-10);}.cls-32{mask:url(#mask-11);}.cls-33{fill:url(#linear-gradient-11);}.cls-34{mask:url(#mask-12-2);}.cls-35{fill:url(#linear-gradient-12);}.cls-36{mask:url(#mask-13);}.cls-37{fill:url(#linear-gradient-13);}.cls-38,.cls-62{fill:none;}.cls-38{stroke:#b3cdfa;stroke-width:2px;}.cls-39{mask:url(#mask-14);}.cls-40{fill:url(#linear-gradient-14);}.cls-41{mask:url(#mask-15);}.cls-42{fill:#172b36;}.cls-43{mask:url(#mask-16);}.cls-44{fill:url(#linear-gradient-15);}.cls-45{mask:url(#mask-17);}.cls-46{fill:url(#linear-gradient-16);}.cls-47{mask:url(#mask-18);}.cls-48{fill:url(#linear-gradient-17);}.cls-49{mask:url(#mask-19);}.cls-50{fill:url(#linear-gradient-18);}.cls-51{mask:url(#mask-20);}.cls-52{fill:url(#linear-gradient-19);}.cls-53{mask:url(#mask-21);}.cls-54{mask:url(#mask-22);}.cls-55{mask:url(#mask-23);}.cls-56{mask:url(#mask-24);}.cls-57{fill:#4a4a4a;}.cls-58{mask:url(#mask-25-2);}.cls-59{mask:url(#mask-26);}.cls-60{fill:#005ff0;}.cls-61{mask:url(#mask-27-2);}.cls-63{mask:url(#mask-28);}.cls-64{mask:url(#mask-29);}.cls-65{mask:url(#mask-30-2);}.cls-66{fill:url(#linear-gradient-20);}.cls-67{mask:url(#mask-31);}.cls-68{mask:url(#mask-32);}.cls-69{fill:url(#linear-gradient-21);}.cls-70{mask:url(#mask-33-2);}.cls-71{mask:url(#mask-34);}.cls-72{mask:url(#mask-35);}.cls-73{mask:url(#mask-36-2);}.cls-74{fill:#0056ec;}.cls-75{mask:url(#mask-37);}.cls-76{fill:url(#linear-gradient-22);}.cls-77{mask:url(#mask-38-2);}.cls-78{fill:#0b151a;}.cls-79{mask:url(#mask-39);}.cls-80{fill:url(#linear-gradient-23);}.cls-81{mask:url(#mask-40-2);}.cls-82{mask:url(#mask-41);}.cls-83{fill:url(#linear-gradient-24);}.cls-84{mask:url(#mask-42);}.cls-85{mask:url(#mask-43-2);}.cls-86{fill:url(#linear-gradient-25);}</style><linearGradient id="linear-gradient" x1="2.45" y1="1022.59" x2="1.96" y2="1023.43" gradientTransform="matrix(172.14, 0, 0, -151.07, -171.14, 155035.77)" gradientUnits="userSpaceOnUse"><stop offset="0" stop-color="#074aae"/><stop offset="1" stop-color="#0056ec"/></linearGradient><mask id="mask" x="173.99" y="91.23" width="9.71" height="11.37" maskUnits="userSpaceOnUse"><g id="mask-3"><path id="path-2" class="cls-1" d="M183.7,96.6c0,3.14-2.18,5.82-4.86,6S174,100.36,174,97.23s2.17-5.82,4.85-6,4.86,2.22,4.86,5.36"/></g></mask><linearGradient id="linear-gradient-2" x1="18.28" y1="1017.93" x2="19.96" y2="1017.93" gradientTransform="matrix(5.78, 0, 0, -6.76, 68.4, 6982.34)" gradientUnits="userSpaceOnUse"><stop offset="0" stop-color="#0055eb"/><stop offset="1" stop-color="#008aeb"/></linearGradient><mask id="mask-2" x="191.31" y="91.05" width="10.4" height="11.25" maskUnits="userSpaceOnUse"><g id="mask-6"><path id="path-5" class="cls-1" d="M201.71,96.37a5.83,5.83,0,0,1-5.21,5.93A5.05,5.05,0,0,1,191.31,97a5.84,5.84,0,0,1,5.19-5.93,5,5,0,0,1,5.21,5.31"/></g></mask><linearGradient id="linear-gradient-3" x1="18.1" y1="1017.4" x2="19.92" y2="1018.27" gradientTransform="matrix(6.19, 0, 0, -6.7, 78.29, 6912.05)" gradientUnits="userSpaceOnUse"><stop offset="0" stop-color="#efc530"/><stop offset="1" stop-color="#f9902e"/></linearGradient><mask id="mask-3-2" x="209.42" y="87.69" width="11.21" height="11.49" maskUnits="userSpaceOnUse"><g id="mask-9"><path id="path-8" class="cls-1" d="M220.63,93.11a6.08,6.08,0,0,1-5.62,6,5.29,5.29,0,0,1-5.59-5.41,6.07,6.07,0,0,1,5.59-6,5.29,5.29,0,0,1,5.62,5.41"/></g></mask><linearGradient id="linear-gradient-4" x1="18.13" y1="1018.21" x2="19.81" y2="1018.21" gradientTransform="matrix(6.67, 0, 0, -6.83, 88.58, 7051.04)" xlink:href="#linear-gradient-2"/><mask id="mask-4" x="161.98" y="131.78" width="41.24" height="441.52" maskUnits="userSpaceOnUse"><g id="mask-12"><polyline id="path-11" class="cls-1" points="203.22 573.3 161.98 570.25 161.98 134.07 203.22 131.78 203.22 573.3"/></g></mask><linearGradient id="linear-gradient-5" x1="5.41" y1="1023.45" x2="5.89" y2="1024.21" gradientTransform="matrix(24.54, 0, 0, -262.67, 42.49, 269313.45)" xlink:href="#linear-gradient"/><mask id="mask-5" x="728.91" y="770.77" width="145.54" height="31.9" maskUnits="userSpaceOnUse"><g id="mask-25"><path id="path-24" class="cls-1" d="M801.25,802.67c-36.57,0-66.87-8.46-72.34-19.51,11,8.39,37.16,14.3,67.72,14.3,40.43,0,73.2-10.34,73.2-23.1a8.14,8.14,0,0,0-.87-3.59c3.54,2.71,5.5,5.68,5.5,8.8C874.46,792.33,841.68,802.67,801.25,802.67Z"/></g></mask><mask id="mask-6-2" x="722.94" y="750.34" width="145.56" height="47.35" maskUnits="userSpaceOnUse"><g id="mask-27"><path id="path-26" class="cls-1" d="M795.72,797.69c-30.37,0-56.4-6.06-67.31-14.66-3.52-2.78-5.47-5.83-5.47-9,0-13.08,32.59-23.67,72.78-23.67,36.35,0,66.47,8.66,71.91,20a8.52,8.52,0,0,1,.87,3.68c0,13.08-32.58,23.68-72.78,23.68m0-44.54c-34.57,0-61.66,9.16-61.66,20.86s27.09,20.86,61.66,20.86,61.66-9.16,61.66-20.86-27.08-20.86-61.66-20.86m0,39.34c-35.45,0-59.27-9.56-59.27-18.48s23.82-18.48,59.27-18.48S855,765.09,855,774s-23.81,18.48-59.27,18.48m0-30.55c-20.49,0-37.11,5.4-37.11,12.07s16.62,12.07,37.11,12.07,37.12-5.4,37.12-12.07-16.62-12.07-37.12-12.07"/></g></mask><linearGradient id="linear-gradient-6" x1="4.72" y1="1013.19" x2="6.4" y2="1013.19" gradientTransform="matrix(86.6, 0, 0, -28.17, 314.16, 29315.39)" gradientUnits="userSpaceOnUse"><stop offset="0" stop-color="#d1e1ff"/><stop offset="1" stop-color="#ebf3ff"/></linearGradient><mask id="mask-7" x="759.64" y="761.44" width="73.92" height="24.26" maskUnits="userSpaceOnUse"><g id="mask-30"><path id="path-29" class="cls-1" d="M796.6,785.7c-20.41,0-37-5.43-37-12.13s16.55-12.13,37-12.13,37,5.43,37,12.13S817,785.7,796.6,785.7"/></g></mask><linearGradient id="linear-gradient-7" x1="7.86" y1="1002.43" x2="11.15" y2="1002.43" gradientTransform="matrix(43.98, 0, 0, -14.43, 378.61, 15242.72)" gradientUnits="userSpaceOnUse"><stop offset="0" stop-color="#c0d2f3"/><stop offset="1" stop-color="#d5dff3"/></linearGradient><mask id="mask-8" x="730.73" y="644.42" width="135.9" height="136.94" maskUnits="userSpaceOnUse"><g id="mask-33"><path id="path-32" class="cls-1" d="M799.36,781.36H798c-37.16,0-67.27-29-67.27-64.68V644.42H866.62v72.26c0,35.72-30.11,64.68-67.26,64.68"/></g></mask><linearGradient id="linear-gradient-8" x1="5.02" y1="1020.89" x2="6.71" y2="1020.89" gradientTransform="matrix(80.85, 0, 0, -81.47, 324.54, 83885.61)" xlink:href="#linear-gradient-6"/><mask id="mask-9-2" x="732.1" y="628.88" width="132.04" height="27.6" maskUnits="userSpaceOnUse"><g id="mask-36"><path id="path-35" class="cls-1" d="M864.14,642.68c0,3.67-10.22,8.29-28.27,11.13l-1.8.28c-3.5.51-7.29,1-11.33,1.31-.62.07-1.27.14-1.92.19-5.54.44-11.59.75-18,.84-.6,0-1.2,0-1.83,0-.93,0-1.87,0-2.83,0A259.83,259.83,0,0,1,769,655c-.65,0-1.28-.14-1.9-.21-22.22-2.67-35-7.94-35-12.06,0-3.75,10.61-8.46,29.26-11.3l1.8-.25a250,250,0,0,1,35-2.25c2.62,0,5.19,0,7.68.09l1.78.07c8.61.26,16.41.89,23.25,1.78.22,0,.43,0,.65.1.43,0,.86.11,1.27.16l.55.09c19.63,2.79,30.84,7.66,30.84,11.51"/></g></mask><linearGradient id="linear-gradient-9" x1="6.35" y1="1007.7" x2="5.87" y2="1008.54" gradientTransform="matrix(78.55, 0, 0, -16.42, 327.65, 17198.83)" xlink:href="#linear-gradient"/><mask id="mask-10" x="830.01" y="516.81" width="128.99" height="121.16" maskUnits="userSpaceOnUse"><g id="mask-38"><path id="path-37" class="cls-1" d="M832.53,636.18c4.22,4.89,41.74-.47,62.15-13.48s19.23-22.45,27.54-31.27,21.4-11.35,28.94-23.07c10.94-17,9.6-49.38,1.07-51.47-6.3-1.53-11.7,17.89-30.71,21.77s-41.53,1.12-64.3,21.19c-20.41,18-32.83,66.89-24.69,76.33"/></g></mask><linearGradient id="linear-gradient-10" x1="6.96" y1="1020.55" x2="6.47" y2="1021.39" gradientTransform="matrix(76.74, 0, 0, -72.08, 387.71, 74183.04)" xlink:href="#linear-gradient"/><mask id="mask-11" x="621.15" y="468.76" width="125.93" height="129.42" maskUnits="userSpaceOnUse"><g id="mask-40"><path id="path-39" class="cls-1" d="M747,595.43s1.6-41.48-18.17-60.81c-16.2-15.83-39.45-22.56-50.54-26.95-17-6.75-48.22-24.21-52.45-38.06-1.73-5.65-10.66,17.59,1.72,50.47,29.88,79.37,111.33,83.07,119.44,75.35"/></g></mask><linearGradient id="linear-gradient-11" x1="5.29" y1="1021.14" x2="5.78" y2="1021.9" gradientTransform="matrix(74.92, 0, 0, -77, 265.28, 79193.69)" gradientUnits="userSpaceOnUse"><stop offset="0" stop-color="#0055eb"/><stop offset="1" stop-color="#00c2eb"/></linearGradient><mask id="mask-12-2" x="835.35" y="404.03" width="101.4" height="152.41" maskUnits="userSpaceOnUse"><g id="mask-43"><path id="path-42" class="cls-1" d="M839.82,555.61s-11.63-40.1,2.63-63.5c11.69-19.16,32.36-31.07,41.93-37.9,14.69-10.49,40.38-34.7,41.07-49.17.28-5.91,14.51,14.71,10.63,49.64-9.34,84.29-86.59,106.6-96.26,100.93"/></g></mask><linearGradient id="linear-gradient-12" x1="8.28" y1="1021.66" x2="7.79" y2="1022.5" gradientTransform="matrix(60.33, 0, 0, -90.67, 407.3, 93173.36)" xlink:href="#linear-gradient"/><mask id="mask-13" x="735.14" y="416.85" width="85.47" height="209.51" maskUnits="userSpaceOnUse"><g id="mask-45"><path id="path-44" class="cls-1" d="M735.14,416.85s23.45,42.48,42.4,58.36c25.07,21,51.78,68.38,40.34,118.6-6.07,26.67-19.94,32.55-19.94,32.55s-12.83-37.61-25.8-51.32-27.17-25.83-31.3-59.47-5.7-98.72-5.7-98.72"/></g></mask><linearGradient id="linear-gradient-13" x1="8.63" y1="1022.13" x2="8.14" y2="1022.97" gradientTransform="matrix(50.85, 0, 0, -124.65, 357.17, 128004.3)" xlink:href="#linear-gradient"/><mask id="mask-14" x="443.59" y="538.63" width="60.75" height="40.7" maskUnits="userSpaceOnUse"><g id="mask-47"><path id="path-46" class="cls-1" d="M448.49,539.09c-6.7,2.23,11.17,8.94,11.17,8.94S446.26,552.5,444,557s4.47,22.35,13.41,22.35,24.58-4.47,29-13.41,17.87-11.18,17.87-11.18l-15.63-15.64-17.88,4.47s-11.49-4.93-19-4.93a10.44,10.44,0,0,0-3.35.46"/></g></mask><linearGradient id="linear-gradient-14" x1="7.85" y1="1015.68" x2="6.8" y2="1014.15" gradientTransform="matrix(36.14, 0, 0, -24.21, 198.42, 25132.09)" gradientUnits="userSpaceOnUse"><stop offset="0" stop-color="#edc8c7"/><stop offset="1" stop-color="#e89392"/></linearGradient><mask id="mask-15" x="472.94" y="374.14" width="165.53" height="191.78" maskUnits="userSpaceOnUse"><g id="mask-50"><path id="path-49" class="cls-1" d="M627.78,375.4c-18.44,9.44-45.24,11.68-56.41,36.27s-11.17,49.17-24.58,64.82-44.68,26.83-46.91,49.18c0,0-29.05,6.71-26.82,9s13.41,31.29,13.41,31.29,15.64-4.47,24.58-6.7c3-.75,4.71.25,6.62,1.24,3.8,2,8.27,4,24.66-8,24.57-17.88,84.89-96.12,89.36-118.48,4.06-20.31,12.73-59.88.47-59.88a9.88,9.88,0,0,0-4.38,1.26"/></g></mask><mask id="mask-16" x="564.67" y="912.41" width="83.92" height="82.71" maskUnits="userSpaceOnUse"><g id="mask-52"><path id="path-51" class="cls-1" d="M620.38,912.41c1.7,27.07,2.06,45,.14,46.94-3.24,3.25-11.44,7.65-20.62,12h0c-12,5.66-25.67,11.16-31.85,13.58a5.24,5.24,0,0,0-3.35,4.93,5.24,5.24,0,0,0,5.29,5.3h73.32a5.29,5.29,0,0,0,5.21-6.3L645.68,974,643,960a6.17,6.17,0,0,1-.09-1.21l1.77-46.34Z"/></g></mask><linearGradient id="linear-gradient-15" x1="7.77" y1="1016.91" x2="6.72" y2="1015.39" gradientTransform="matrix(49.93, 0, 0, -49.21, 256.67, 50974.06)" xlink:href="#linear-gradient-14"/><mask id="mask-17" x="659.43" y="912.41" width="69.45" height="82.71" maskUnits="userSpaceOnUse"><g id="mask-54"><path id="path-53" class="cls-1" d="M694,912.41l6.37,39.15a5.3,5.3,0,0,1-2.26,5.23l-13.71,9.38-22.7,15.56a5.28,5.28,0,0,0-2.06,6l1.14,3.71a5.32,5.32,0,0,0,5.07,3.71h57.67a5.32,5.32,0,0,0,5.31-5.47l-.42-13.91-2-63.33Z"/></g></mask><linearGradient id="linear-gradient-16" x1="9.7" y1="1016.97" x2="8.64" y2="1015.44" gradientTransform="matrix(41.32, 0, 0, -49.21, 321.66, 50974.06)" xlink:href="#linear-gradient-14"/><mask id="mask-18" x="589.88" y="590.73" width="136.58" height="321.69" maskUnits="userSpaceOnUse"><g id="mask-56"><path id="path-55" class="cls-1" d="M589.91,596.58c4,36.35,24.8,226.12,30.47,315.83h24.27L654,666.51l40,245.9h32.42l-9.72-312.47a5.33,5.33,0,0,0-5.11-5.15l-116.25-4.06h-.19a5.28,5.28,0,0,0-5.28,5.85"/></g></mask><linearGradient id="linear-gradient-17" x1="4.49" y1="1022.58" x2="5.71" y2="1023.13" gradientTransform="matrix(81.25, 0, 0, -191.38, 240.34, 196510.99)" gradientUnits="userSpaceOnUse"><stop offset="0" stop-color="#e88400"/><stop offset="1" stop-color="#d0461e"/></linearGradient><mask id="mask-19" x="613.82" y="905.7" width="37.98" height="20.12" maskUnits="userSpaceOnUse"><g id="mask-59"><path id="path-58" class="cls-1" d="M622.55,905.7a8.76,8.76,0,0,0-8.73,8.74v2.65a8.75,8.75,0,0,0,8.73,8.73h20.51a8.76,8.76,0,0,0,8.74-8.73v-2.65a8.77,8.77,0,0,0-8.74-8.74Z"/></g></mask><linearGradient id="linear-gradient-18" x1="13.49" y1="992.78" x2="14.71" y2="993.33" gradientTransform="matrix(22.6, 0, 0, -11.97, 313.24, 12802.73)" xlink:href="#linear-gradient-17"/><mask id="mask-20" x="689.78" y="905.7" width="42.45" height="20.12" maskUnits="userSpaceOnUse"><g id="mask-61"><path id="path-60" class="cls-1" d="M698.51,905.7a8.77,8.77,0,0,0-8.73,8.74v2.65a8.76,8.76,0,0,0,8.73,8.73h25a8.76,8.76,0,0,0,8.73-8.73v-2.65a8.77,8.77,0,0,0-8.73-8.74Z"/></g></mask><linearGradient id="linear-gradient-19" x1="13.41" y1="992.78" x2="14.63" y2="993.33" gradientTransform="matrix(25.25, 0, 0, -11.97, 355.77, 12802.73)" xlink:href="#linear-gradient-17"/><mask id="mask-21" x="564.67" y="971.31" width="83.92" height="23.81" maskUnits="userSpaceOnUse"><g id="mask-63"><path id="path-62" class="cls-1" d="M599.87,971.31c-12,5.66-25.67,11.16-31.85,13.58a5.24,5.24,0,0,0-3.35,4.93,5.24,5.24,0,0,0,5.29,5.3h73.32a5.29,5.29,0,0,0,5.21-6.3L645.68,974c-9,2.84-30.56,9.44-34.1,7.67-4.47-2.24-3.28-9.57-11.68-10.4Z"/></g></mask><mask id="mask-22" x="659.43" y="965.89" width="69.45" height="29.24" maskUnits="userSpaceOnUse"><g id="mask-65"><path id="path-64" class="cls-1" d="M684.44,966.17l-22.7,15.56a5.28,5.28,0,0,0-2.06,6l1.14,3.71a5.32,5.32,0,0,0,5.07,3.71h57.67a5.32,5.32,0,0,0,5.31-5.47l-.42-13.91c-5.34.74-15.26,1-23-5.21-4.47-3.58-10.38-4.64-15.86-4.64a48.92,48.92,0,0,0-5.11.28"/></g></mask><mask id="mask-23" x="576.41" y="368.83" width="149.41" height="240.83" maskUnits="userSpaceOnUse"><g id="mask-67"><path id="path-66" class="cls-1" d="M660.73,369.19s-35.74,2.24-51.39,15.65-17.86,17.89-20.1,49.18-17.87,131.89-11.17,147.54S590.62,603,590.62,603L717,609.66s10.72-3.51,8.48-23.63-6.7-62.59-6.7-84.95S727.76,380.37,701,373.66c-16.09-4-27.36-4.83-33.79-4.83a43.38,43.38,0,0,0-6.43.36"/></g></mask><mask id="mask-24" x="636.69" y="463.58" width="146.56" height="161.47" maskUnits="userSpaceOnUse"><g id="mask-69"><path id="path-68" class="cls-1" d="M703.28,465l-62.63,40.22a8.59,8.59,0,0,0-2.6,11.87L704.8,621.11a8.58,8.58,0,0,0,11.86,2.59l62.64-40.23a8.6,8.6,0,0,0,2.59-11.87L715.14,467.53A8.56,8.56,0,0,0,703.28,465"/></g></mask><mask id="mask-25-2" x="647.68" y="475.66" width="124.58" height="137.32" maskUnits="userSpaceOnUse"><g id="mask-71"><path id="path-70" class="cls-1" d="M703.68,476.93l-52.31,33.59A8,8,0,0,0,649,521.61l56.24,87.68a8,8,0,0,0,11.08,2.42l52.3-33.59A8,8,0,0,0,771,567l-56.23-87.68a8,8,0,0,0-11.08-2.42"/></g></mask><mask id="mask-26" x="656.3" y="473.09" width="37.36" height="33.34" maskUnits="userSpaceOnUse"><g id="mask-73"><path id="path-72" class="cls-1" d="M681.77,473.45a2.22,2.22,0,0,0-.67,3.08l6,9.41a2.24,2.24,0,0,1-.67,3.09L669.53,499.9a2.22,2.22,0,0,1-3.08-.68l-6-9.41a2.23,2.23,0,1,0-3.75,2.42l8.44,13.17a2.24,2.24,0,0,0,3.09.68l24.44-15.7a2.23,2.23,0,0,0,.67-3.09l-8.44-13.17a2.26,2.26,0,0,0-1.89-1,2.21,2.21,0,0,0-1.2.36"/></g></mask><mask id="mask-27-2" x="661.73" y="494.42" width="53.85" height="35.68" maskUnits="userSpaceOnUse"><g id="mask-75"><polygon id="path-74" class="cls-1" points="661.73 528.22 662.94 530.1 715.59 496.3 714.38 494.42 661.73 528.22"/></g></mask><mask id="mask-28" x="666.2" y="501.12" width="53.85" height="35.69" maskUnits="userSpaceOnUse"><g id="mask-77"><polygon id="path-76" class="cls-1" points="666.2 534.93 667.41 536.81 720.05 503 718.85 501.12 666.2 534.93"/></g></mask><mask id="mask-29" x="670.61" y="515.61" width="41.65" height="27.91" maskUnits="userSpaceOnUse"><g id="mask-79"><polygon id="path-78" class="cls-1" points="670.62 541.55 671.87 543.52 712.27 517.59 711 515.61 670.62 541.55"/></g></mask><mask id="mask-30-2" x="653.6" y="534.62" width="68.22" height="45.1" maskUnits="userSpaceOnUse"><g id="mask-81"><path id="path-80" class="cls-1" d="M689.78,541.32a92,92,0,0,1-20.11,2.24c-11.17,0-17.87,8.94-15.64,11.17s9.23,1.61,9.23,1.61-4.76.63-4.76,7.34,13.4,24.59,33.51,11.17,29.81-25,29.81-25l-16.41-15.28Z"/></g></mask><linearGradient id="linear-gradient-20" x1="9.4" y1="1016.58" x2="8.34" y2="1015.06" gradientTransform="matrix(40.59, 0, 0, -26.83, 318.91, 27813.93)" xlink:href="#linear-gradient-14"/><mask id="mask-31" x="685.11" y="375.4" width="105.74" height="195.35" maskUnits="userSpaceOnUse"><g id="mask-83"><path id="path-82" class="cls-1" d="M694.25,429.55c15.63,22.35,44.68,49.18,44.68,53.65s-38,31.3-38,38-17.88,6.71-15.64,15.65c0,0,15.64,38,20.1,33.53s20.11-17.88,20.11-17.88,8.94,13.41,33.52-11.18,42.44-42.47,24.57-73.77-60.56-87.45-78.31-91.78a12,12,0,0,0-2.91-.37c-15.78,0-22.9,33.05-8.14,54.15"/></g></mask><mask id="mask-32" x="586.65" y="262.72" width="75.2" height="125.05" maskUnits="userSpaceOnUse"><g id="mask-85"><path id="path-84" class="cls-1" d="M593.71,268.59s-8.94,29.06-6.7,44.72,4.47,38,29,35.76c0,0,6.7,31.3,11.17,35.77s20.11,4.47,29-4.47,4.46-11.18,4.46-11.18-15.64-22.35-13.4-33.53,20.11-40.24-2.24-58.12c-13.08-10.48-20.81-14.82-29.45-14.82-6.11,0-12.68,2.17-21.93,5.87"/></g></mask><linearGradient id="linear-gradient-21" x1="8.25" y1="1023.25" x2="7.2" y2="1021.73" gradientTransform="matrix(44.74, 0, 0, -74.4, 274.93, 76408.99)" xlink:href="#linear-gradient-14"/><mask id="mask-33-2" x="584.24" y="237.3" width="85.6" height="115.05" maskUnits="userSpaceOnUse"><g id="mask-87"><path id="path-86" class="cls-1" d="M598.18,282c26.81,4.47,42.44,8.94,42.44,15.64s-2.23,26.83-2.23,26.83,4.47-20.12,8.94-20.12,9,1.2,6.75,10.66-6.75,13.93-6.75,20.64,3.79,16.68,3.79,16.68S671.9,306.6,669.67,291s-6.7-38-35.75-40.24-42.44-13.41-42.44-13.41-20.11,40.24,6.7,44.71"/></g></mask><mask id="mask-34" x="229.55" y="476.49" width="58.08" height="78.24" maskUnits="userSpaceOnUse"><g id="mask-89"><path id="path-88" class="cls-1" d="M229.55,514.5c0,11.17,38,40.23,38,40.23l20.1-42.47-40.21-35.77s-17.87,26.83-17.87,38"/></g></mask><mask id="mask-35" x="234.01" y="398.25" width="71.49" height="107.3" maskUnits="userSpaceOnUse"><g id="mask-91"><path id="path-90" class="cls-1" d="M272,420.61c-13.4,22.35-38,58.12-38,58.12l31.28,26.83,40.22-107.31s-20.11,0-33.52,22.36"/></g></mask><mask id="mask-36-2" x="221.17" y="534.62" width="99.98" height="96.13" maskUnits="userSpaceOnUse"><g id="mask-93"><path id="path-92" class="cls-1" d="M222.32,589.06a6.85,6.85,0,0,0,2.11,9.64l52,32,44.69-71.53-62.56-24.59Z"/></g></mask><mask id="mask-37" x="196.93" y="948.18" width="68.37" height="46.95" maskUnits="userSpaceOnUse"><g id="mask-95"><polygon id="path-94" class="cls-1" points="213.91 948.18 202.74 970.53 196.93 995.12 261.74 995.12 265.3 988.42 231.78 970.53 236.25 948.18 213.91 948.18"/></g></mask><linearGradient id="linear-gradient-22" x1="3.63" y1="1008.3" x2="5.17" y2="1011.1" gradientTransform="matrix(40.67, 0, 0, -27.93, 47.14, 29186.75)" xlink:href="#linear-gradient-17"/><mask id="mask-38-2" x="195.94" y="604.29" width="122.97" height="367.03" maskUnits="userSpaceOnUse"><g id="mask-98"><path id="path-97" class="cls-1" d="M264.3,609.66c-7.69,14.68-7.94,175.33-14.65,195.45S198.27,939.24,196,952.65s35.74,17.88,46.29,18.66,45.3-126,52-150.55,24.58-163.19,24.58-165.43V615.09s-25.19-10.8-41.68-10.8c-6,0-10.88,1.44-12.94,5.37"/></g></mask><mask id="mask-39" x="312.21" y="283.84" width="70.25" height="114.42" maskUnits="userSpaceOnUse"><g id="mask-100"><path id="path-99" class="cls-1" d="M343.49,284.24c-15.64,2.24-24.57,13.41-29.05,33.54s11.18,38,11.18,38l-13.41,35.77,29,6.7,15.65-24.59c13.4,4.48,22.34-6.7,24.57-22.35s0-40.24,0-40.24c0-19.69-17.32-27.24-32.13-27.23a42.65,42.65,0,0,0-5.85.4"/></g></mask><linearGradient id="linear-gradient-23" x1="5.96" y1="1023.02" x2="4.9" y2="1021.5" gradientTransform="matrix(41.79, 0, 0, -68.07, 114.61, 69933.84)" xlink:href="#linear-gradient-14"/><mask id="mask-40-2" x="300.62" y="276.93" width="105.42" height="93.84" maskUnits="userSpaceOnUse"><g id="mask-102"><path id="path-101" class="cls-1" d="M312.21,279.77c-22.34,6.71-6.7,51.42,0,60.36s8.05,29.92,8.05,29.92,5.36,3.61,12.06-5.33,4.46-20.12,0-29.06,6.7-17.88,11.17-17.88,8.93,29.06,8.93,17.88,6.7-17.88,20.11-20.12,22.34-15.65,22.34-15.65L406,286.48s-13.4,2.24-24.57-2.24c-7.78-3.11-27.46-7.31-46.25-7.31-8.19,0-16.22.81-23,2.84"/></g></mask><mask id="mask-41" x="249.83" y="387.08" width="118.24" height="192.25" maskUnits="userSpaceOnUse"><g id="mask-104"><path id="path-103" class="cls-1" d="M276.46,418.37C265.29,449.67,243,557,251.89,565.91l13.4,13.41H356.9s11.16-8.94,11.16-20.11S363.59,434,352.42,416.14a133.55,133.55,0,0,0-24.57-29.06s-40.22,0-51.39,31.29"/></g></mask><linearGradient id="linear-gradient-24" x1="4.72" y1="1022.04" x2="3.66" y2="1020.52" gradientTransform="matrix(72.19, 0, 0, -71.1, 115.8, 73152.48)" xlink:href="#linear-gradient-14"/><mask id="mask-42" x="309.4" y="393.79" width="87.71" height="112.67" maskUnits="userSpaceOnUse"><g id="mask-106"><path id="path-105" class="cls-1" d="M323.93,394.25c-24,7.18-14,50.95-.55,64.36s42.22,47.85,42.22,47.85l31.51-30S368.06,434,352.42,411.67c-10.84-15.51-20.34-17.88-25.15-17.88a10.25,10.25,0,0,0-3.34.46"/></g></mask><mask id="mask-43-2" x="351.67" y="937" width="76.71" height="58.12" maskUnits="userSpaceOnUse"><g id="mask-108"><path id="path-107" class="cls-1" d="M356.9,950.41v20.12l-5.23,24.59h65.48l11.24-8.94s-24.58-4.47-33.52-13.41S379.24,937,379.24,937Z"/></g></mask><linearGradient id="linear-gradient-25" x1="4.65" y1="1011.14" x2="6.2" y2="1013.94" gradientTransform="matrix(45.64, 0, 0, -34.58, 134.24, 35993.79)" xlink:href="#linear-gradient-17"/></defs><title>Partner Hub</title><g id="Login"><g id="Web-Login-01"><g id="Group-11"><path id="Fill-372" class="cls-2" d="M825.89,982.73c0,20.89-72.25,37.82-161.37,37.82s-161.36-16.93-161.36-37.82,72.24-37.82,161.36-37.82,161.37,16.94,161.37,37.82"/><path id="Fill-372-Copy" class="cls-2" d="M461.14,982.73c0,20.89-72.25,37.82-161.37,37.82s-161.36-16.93-161.36-37.82,72.24-37.82,161.36-37.82,161.37,16.94,161.37,37.82"/><path id="Fill-1" class="cls-3" d="M284.17,329.12c-24.35,18.74-1.88,76.85-1.88,76.85s-13.1-28.12-30-20.62-20.6,52.48-20.6,52.48-9.36-52.48-31.84-41.24-5.61,56.23-5.61,56.23S134.37,383.47,117.52,406s3.74,65.6,3.74,65.6-24.34-37.49-31.83-26.25,11.39,65.61,11.39,65.61S57.6,494.06,52,522.17s14.8,58.11,14.8,58.11H340.34V392.84s-25.67-66.49-48.53-66.49a12.18,12.18,0,0,0-7.64,2.77"/><g id="Group-Copy-2"><path id="Fill-65" class="cls-2" d="M938.67,647.36l-746-56.61c-4.88-.37-8.84-5.5-8.84-11.45V91.88c0-5.95,4-11.07,8.84-11.45l746-56.6A12.12,12.12,0,0,1,952,36.06V635.13a12.12,12.12,0,0,1-13.28,12.23"/><path id="Fill-66" class="cls-1" d="M911.78,635.59,165.74,579c-4.89-.37-8.84-5.49-8.84-11.44V80.11c0-6,3.95-11.07,8.84-11.44l746-56.61a12.12,12.12,0,0,1,13.28,12.23V623.36a12.12,12.12,0,0,1-13.28,12.23"/><path id="Fill-67" class="cls-2" d="M925.06,24.38a12.16,12.16,0,0,0-13.28-12.32l-746,57c-4.89.37-8.84,5.53-8.84,11.52v45.75L925.06,80.6V24.38"/><path id="Fill-68" class="cls-4" d="M910.07,12.5c-.31,0-.62,0-.94,0L165.2,69.26c-4.31.33-7.82,5-7.82,10.38V568c0,5.4,3.51,10.06,7.82,10.39l743.93,56.72a11.06,11.06,0,0,0,12.09-11.18V23.72A11.07,11.07,0,0,0,910.07,12.5m0,624.81c-.36,0-.73,0-1.1,0L165,580.55c-5.41-.41-9.82-6-9.82-12.54V79.64c0-6.5,4.41-12.12,9.82-12.54L909,10.38a13.21,13.21,0,0,1,14.41,13.34V623.94a13.2,13.2,0,0,1-13.31,13.37"/><g id="Group-71"><g class="cls-5"><path id="Fill-69" class="cls-6" d="M183.7,96.6c0,3.14-2.18,5.82-4.86,6S174,100.36,174,97.23s2.17-5.82,4.85-6,4.86,2.22,4.86,5.36"/></g></g><g id="Group-74"><g class="cls-7"><path id="Fill-72" class="cls-8" d="M201.71,96.37a5.83,5.83,0,0,1-5.21,5.93A5.05,5.05,0,0,1,191.31,97a5.84,5.84,0,0,1,5.19-5.93,5,5,0,0,1,5.21,5.31"/></g></g><g id="Group-77"><g class="cls-9"><path id="Fill-75" class="cls-10" d="M220.63,93.11a6.08,6.08,0,0,1-5.62,6,5.29,5.29,0,0,1-5.59-5.41,6.07,6.07,0,0,1,5.59-6,5.29,5.29,0,0,1,5.62,5.41"/></g></g><polyline id="Fill-78" class="cls-2" points="617.46 109.91 617.46 161.62 914.98 148.47 914.98 92.7 617.46 109.91"/><polyline id="Fill-79" class="cls-2" points="819.16 618.82 612.42 603.82 612.42 177.97 819.16 170.03 819.16 618.82"/><polyline id="Fill-80" class="cls-2" points="595.61 385.18 370.37 381.53 370.37 125.48 595.61 112.88 595.61 385.18"/><g id="Group-83"><g class="cls-11"><polyline id="Fill-81" class="cls-12" points="203.22 573.3 161.98 570.25 161.98 134.07 203.22 131.78 203.22 573.3"/></g></g><path id="Fill-84" class="cls-13" d="M775.44,432.24l-5-.11a6.87,6.87,0,0,1-6.7-6.83v-5a6.54,6.54,0,0,1,6.7-6.55l5,.09a6.89,6.89,0,0,1,6.75,6.83v5a6.55,6.55,0,0,1-6.75,6.55"/><path id="Fill-85" class="cls-13" d="M802.33,432.24l-5-.12a6.87,6.87,0,0,1-6.7-6.82v-5a6.55,6.55,0,0,1,6.7-6.55l5,.1a6.87,6.87,0,0,1,6.75,6.82v5a6.53,6.53,0,0,1-6.75,6.54"/><path id="Fill-86" class="cls-1" d="M646,454.09l-5-.14a6.92,6.92,0,0,1-6.7-6.85v-5a6.49,6.49,0,0,1,6.7-6.5l5,.12a6.91,6.91,0,0,1,6.75,6.85v5a6.5,6.5,0,0,1-6.75,6.5"/><path id="Fill-87" class="cls-1" d="M671.23,455.77l-5.05-.14a6.92,6.92,0,0,1-6.7-6.85v-5a6.49,6.49,0,0,1,6.7-6.5l5.05.12a6.92,6.92,0,0,1,6.74,6.85v5a6.48,6.48,0,0,1-6.74,6.49"/><path id="Fill-88" class="cls-1" d="M696.44,455.77l-5-.14a6.93,6.93,0,0,1-6.71-6.85v-5a6.49,6.49,0,0,1,6.71-6.49l5,.12a6.92,6.92,0,0,1,6.74,6.85v5a6.48,6.48,0,0,1-6.74,6.49"/><path id="Fill-89" class="cls-1" d="M725,455.77l-5-.14a6.92,6.92,0,0,1-6.7-6.85v-5a6.49,6.49,0,0,1,6.7-6.49l5,.12a6.92,6.92,0,0,1,6.75,6.85v5a6.49,6.49,0,0,1-6.75,6.49"/><path id="Fill-90" class="cls-1" d="M750.23,459.13l-5.05-.14a6.93,6.93,0,0,1-6.7-6.86v-5a6.49,6.49,0,0,1,6.7-6.49l5.05.12a6.92,6.92,0,0,1,6.74,6.86v5a6.48,6.48,0,0,1-6.74,6.49"/><path id="Fill-91" class="cls-13" d="M775.44,459.13l-5-.14a6.92,6.92,0,0,1-6.7-6.86v-5a6.48,6.48,0,0,1,6.7-6.49l5,.12a6.93,6.93,0,0,1,6.75,6.86v5a6.49,6.49,0,0,1-6.75,6.49"/><path id="Fill-92" class="cls-13" d="M802.33,460.82l-5-.16a6.91,6.91,0,0,1-6.7-6.85v-5a6.49,6.49,0,0,1,6.7-6.49l5,.13a6.92,6.92,0,0,1,6.75,6.85v5a6.49,6.49,0,0,1-6.75,6.49"/><path id="Fill-93" class="cls-1" d="M646,481l-5-.17a7,7,0,0,1-6.7-6.88v-5a6.44,6.44,0,0,1,6.7-6.45l5,.15a7,7,0,0,1,6.75,6.88v5A6.44,6.44,0,0,1,646,481"/><path id="Fill-94" class="cls-1" d="M671.23,484.35l-5.05-.18a7,7,0,0,1-6.7-6.88v-5a6.44,6.44,0,0,1,6.7-6.45l5.05.15A7,7,0,0,1,678,472.9v5a6.44,6.44,0,0,1-6.74,6.45"/><path id="Fill-95" class="cls-1" d="M696.44,484.35l-5-.18a7,7,0,0,1-6.71-6.88v-5a6.44,6.44,0,0,1,6.71-6.45l5,.16a7,7,0,0,1,6.74,6.88v5a6.44,6.44,0,0,1-6.74,6.44"/><path id="Fill-96" class="cls-1" d="M725,487.71l-5-.18a7,7,0,0,1-6.7-6.88v-5a6.42,6.42,0,0,1,6.7-6.43l5,.15a7,7,0,0,1,6.75,6.88v5a6.44,6.44,0,0,1-6.75,6.44"/><path id="Fill-97" class="cls-1" d="M750.23,487.71l-5.05-.18a7,7,0,0,1-6.7-6.88v-5a6.42,6.42,0,0,1,6.7-6.43l5.05.15a7,7,0,0,1,6.74,6.89v5a6.43,6.43,0,0,1-6.74,6.44"/><path id="Fill-98" class="cls-13" d="M775.44,487.71l-5-.18a7,7,0,0,1-6.7-6.89v-5a6.41,6.41,0,0,1,6.7-6.43l5,.15a7,7,0,0,1,6.75,6.89v5a6.44,6.44,0,0,1-6.75,6.44"/><path id="Fill-99" class="cls-13" d="M802.33,487.71l-5-.19a7,7,0,0,1-6.7-6.88v-5a6.42,6.42,0,0,1,6.7-6.43l5,.15a7,7,0,0,1,6.75,6.89v5a6.44,6.44,0,0,1-6.75,6.44"/><path id="Fill-100" class="cls-1" d="M646,509.56l-5-.21a7,7,0,0,1-6.7-6.91v-5a6.38,6.38,0,0,1,6.7-6.39l5,.18a7,7,0,0,1,6.75,6.91v5a6.4,6.4,0,0,1-6.75,6.39"/><path id="Fill-101" class="cls-1" d="M671.23,511.24l-5.05-.21a7,7,0,0,1-6.7-6.91v-5a6.38,6.38,0,0,1,6.7-6.39l5.05.18a7,7,0,0,1,6.74,6.91v5a6.39,6.39,0,0,1-6.74,6.39"/><path id="Fill-102" class="cls-1" d="M696.44,511.24l-5-.21a7,7,0,0,1-6.71-6.91v-5a6.38,6.38,0,0,1,6.71-6.39l5,.19a7,7,0,0,1,6.74,6.9v5a6.39,6.39,0,0,1-6.74,6.39"/><path id="Fill-103" class="cls-1" d="M725,511.24l-5-.21a7,7,0,0,1-6.7-6.91v-5a6.37,6.37,0,0,1,6.7-6.38l5,.18a7,7,0,0,1,6.75,6.92v5a6.38,6.38,0,0,1-6.75,6.38"/><path id="Fill-104" class="cls-1" d="M750.23,512.92l-5.05-.21a7,7,0,0,1-6.7-6.91v-5a6.37,6.37,0,0,1,6.7-6.38l5.05.19a7,7,0,0,1,6.74,6.91v5a6.37,6.37,0,0,1-6.74,6.38"/><path id="Fill-105" class="cls-13" d="M775.44,512.92l-5-.21a7,7,0,0,1-6.7-6.92v-5a6.37,6.37,0,0,1,6.7-6.38l5,.19a7,7,0,0,1,6.75,6.91v5a6.38,6.38,0,0,1-6.75,6.38"/><path id="Fill-106" class="cls-13" d="M802.33,516.28l-5-.21a7,7,0,0,1-6.7-6.92v-5a6.37,6.37,0,0,1,6.7-6.38l5,.19a7,7,0,0,1,6.75,6.92v5a6.37,6.37,0,0,1-6.75,6.37"/><path id="Fill-107" class="cls-1" d="M646,534.77l-5-.24a7.05,7.05,0,0,1-6.7-6.93v-5a6.34,6.34,0,0,1,6.7-6.34l5,.22a7.05,7.05,0,0,1,6.75,6.94v5a6.34,6.34,0,0,1-6.75,6.33"/><path id="Fill-108" class="cls-1" d="M671.23,536.45l-5.05-.24a7.05,7.05,0,0,1-6.7-6.94v-5a6.34,6.34,0,0,1,6.7-6.34l5.05.22a7.06,7.06,0,0,1,6.74,6.94v5a6.33,6.33,0,0,1-6.74,6.33"/><path id="Fill-109" class="cls-1" d="M696.44,539.81l-5-.24a7.05,7.05,0,0,1-6.71-6.94v-5a6.33,6.33,0,0,1,6.71-6.33l5,.21a7.06,7.06,0,0,1,6.74,6.94v5a6.32,6.32,0,0,1-6.74,6.33"/><path id="Fill-110" class="cls-1" d="M725,539.81l-5-.24a7.06,7.06,0,0,1-6.7-6.94v-5a6.32,6.32,0,0,1,6.7-6.33l5,.21a7.06,7.06,0,0,1,6.75,7v5a6.32,6.32,0,0,1-6.75,6.33"/><path id="Fill-111" class="cls-1" d="M750.23,539.81l-5-.24a7.07,7.07,0,0,1-6.71-6.94v-5a6.32,6.32,0,0,1,6.71-6.32l5,.22A7.06,7.06,0,0,1,757,528.5v5a6.32,6.32,0,0,1-6.74,6.32"/><path id="Fill-112" class="cls-13" d="M775.44,539.81l-5-.24a7.06,7.06,0,0,1-6.7-7v-5a6.31,6.31,0,0,1,6.7-6.32l5,.22a7.07,7.07,0,0,1,6.75,6.94v5a6.33,6.33,0,0,1-6.75,6.32"/><path id="Fill-113" class="cls-13" d="M802.33,541.49l-5-.25a7.07,7.07,0,0,1-6.7-6.94v-5a6.31,6.31,0,0,1,6.7-6.32l5,.22a7.06,7.06,0,0,1,6.75,7v5a6.32,6.32,0,0,1-6.75,6.32"/><path id="Fill-114" class="cls-1" d="M646,561.66l-5-.27a7.09,7.09,0,0,1-6.7-7v-5a6.28,6.28,0,0,1,6.7-6.28l5,.24a7.11,7.11,0,0,1,6.75,7v5a6.29,6.29,0,0,1-6.75,6.28"/><path id="Fill-115" class="cls-1" d="M813.07,151l-13.3.55c-9.73.4-17.58-6.51-17.58-15.43V124c0-8.93,7.85-16.58,17.58-17.09l13.3-.7c9.84-.52,17.86,6.38,17.86,15.42v12.27c0,9-8,16.69-17.86,17.1"/><path id="Fill-116" class="cls-1" d="M878.62,149.23l-13.3.61a16.54,16.54,0,0,1-17.58-16.56v-13a18.72,18.72,0,0,1,17.58-18.37l13.3-.76a16.56,16.56,0,0,1,17.87,16.54v13.18a18.73,18.73,0,0,1-17.87,18.37"/><polyline id="Fill-117" class="cls-13" points="861.19 114.15 861.19 130.93 868.95 130.61 868.95 136.41 876.85 130.29 889.76 129.76 889.76 112.88 861.19 114.15"/><path id="Fill-118" class="cls-13" d="M813.53,139.76h0c-7.88.21-17.71-9.74-17.87-18.05a5.55,5.55,0,0,1,2.25-3.92l1.77-1.19a2.19,2.19,0,0,1,1.1-.37,2,2,0,0,1,1.74.83l3.22,4.58a2.18,2.18,0,0,1-.49,2.94l-1.9,1.51a16,16,0,0,0,2.61,3.16,16.37,16.37,0,0,0,3.26,2.47l1.41-2a2.22,2.22,0,0,1,2.9-.64l4.74,3a2.09,2.09,0,0,1,.61,2.85l-1.1,1.85c-.66,1.12-2.82,2.89-4.22,2.95"/><path id="Fill-119" class="cls-14" d="M568.25,593.61l-.39,0c-3.24-.3-5.87-4.3-5.87-8.92,0-4.45,2.43-7.87,5.5-7.87l.37,0c3.25.28,5.9,4.28,5.9,8.92,0,4.45-2.44,7.87-5.51,7.87"/><path id="Fill-120" class="cls-14" d="M539.67,591.93l-.38,0c-3.25-.3-5.88-4.29-5.88-8.92,0-4.44,2.44-7.87,5.51-7.87h.37c3.25.29,5.89,4.28,5.89,8.92,0,4.46-2.43,7.88-5.51,7.88"/><path id="Fill-121" class="cls-14" d="M519.5,590.25l-.38,0c-3.25-.3-5.88-4.29-5.88-8.92,0-4.44,2.44-7.87,5.51-7.87h.37c3.25.29,5.89,4.28,5.89,8.92,0,4.45-2.43,7.88-5.51,7.88"/><path id="Fill-122" class="cls-14" d="M496,585.2h-.39c-3.24-.3-5.87-4.29-5.87-8.91,0-4.46,2.43-7.89,5.51-7.89l.36,0c3.26.28,5.9,4.27,5.9,8.91,0,4.46-2.44,7.88-5.51,7.88"/><path id="Fill-123" class="cls-14" d="M477.48,583.52h-.39c-3.24-.3-5.87-4.29-5.87-8.91,0-4.45,2.44-7.89,5.52-7.89l.35,0c3.26.28,5.9,4.27,5.9,8.91,0,4.46-2.44,7.88-5.51,7.88"/><path id="Fill-124" class="cls-14" d="M569.4,595.29l-.8,0A12.65,12.65,0,0,1,557,582.84,11,11,0,0,1,568,571.76c.24,0,.48,0,.72,0a12.65,12.65,0,0,1,11.73,12.43,11,11,0,0,1-11.08,11.08M568,573.77a8.88,8.88,0,0,0-8.88,9.07,10.54,10.54,0,0,0,9.62,10.42l.69,0a8.86,8.86,0,0,0,8.84-9.07,10.52,10.52,0,0,0-9.68-10.42l-.59,0"/><path id="Fill-125" class="cls-13" d="M578.8,506.2c-1.27-11-15.26-71.16-52.36-72.26C497,433.07,482,472.28,474,473c-3.82.35-7.14-4-10.86-8.42-4-4.75-8.54-9.49-14.69-8.24-11.76,2.41-14.6,21.33-23.45,26.68s-14.76.44-30.1-1.28c-11.27-1.26-20.48,9-24.49,14.41l208.43,10"/><path id="Fill-126" class="cls-13" d="M359.09,508.14l239.39,12.58V409.64l-239.39-5.43V508.14M600.65,523l-243.73-12.8V402l1.11,0,242.62,5.5V523"/><path id="Fill-127" class="cls-1" d="M494.75,141.45c-43,2.52-77,43.68-77.32,92.45l77.32-2V141.45"/><path id="Fill-128" class="cls-13" d="M427.52,233.86c.31,40.81,30.74,73.81,68.91,74V232.22l-68.91,1.64"/><path id="Fill-129" class="cls-13" d="M550.22,229.16c-.3-33.72-24.46-60-53.79-59.11v60.49l53.79-1.38"/><path id="Fill-130" class="cls-1" d="M496.43,282.64c23.84-.63,43.4-23.81,43.71-52.1l-43.71,1.14v51"/><path id="Fill-131" class="cls-13" d="M568.7,125.31a1.07,1.07,0,0,1-.06-2.14l4-.21a1.07,1.07,0,1,1,.11,2.14l-4,.21h-.06m-19.1,1a1.07,1.07,0,0,1-.05-2.14l4-.21a1.09,1.09,0,0,1,1.15,1,1.08,1.08,0,0,1-1,1.12l-4,.21h-.06m-19.1,1a1.07,1.07,0,0,1,0-2.14l4-.21a1.08,1.08,0,1,1,.12,2.15l-4,.2h-.06m-19.09,1a1.08,1.08,0,0,1-.06-2.15l4-.2a1.07,1.07,0,1,1,.12,2.14l-4,.2h0m77.95.79a1.07,1.07,0,0,1-1.07-.88,4.7,4.7,0,0,0-1.53-2.72,1,1,0,0,1-.09-1.51,1.1,1.1,0,0,1,1.54-.1,6.83,6.83,0,0,1,2.23,3.95,1.08,1.08,0,0,1-.88,1.25h-.2m-97.05.21a1.08,1.08,0,0,1-1.09-1,1.07,1.07,0,0,1,1-1.12l4-.21a1.07,1.07,0,1,1,.12,2.14l-4,.21h-.06m-19.1,1a1.07,1.07,0,0,1-.06-2.14l4-.21a1.07,1.07,0,1,1,.11,2.14l-4,.21h-.06m-19.1,1a1.07,1.07,0,0,1-.05-2.14l4-.21a1.11,1.11,0,0,1,1.15,1,1.08,1.08,0,0,1-1,1.13l-4,.21h-.06m-19.1,1a1.07,1.07,0,0,1-.05-2.14l4-.21a1.11,1.11,0,0,1,1.15,1,1.08,1.08,0,0,1-1,1.12l-4,.21H435m-19.1,1a1.07,1.07,0,0,1-.05-2.14l4-.21a1.09,1.09,0,0,1,1.15,1,1.07,1.07,0,0,1-1,1.12l-4,.21h-.06m-19.09,1a1.09,1.09,0,0,1-1.09-1,1.08,1.08,0,0,1,1-1.13l4-.21a1.08,1.08,0,1,1,.12,2.15l-4,.21h-.05m-13.59,8.25a1.08,1.08,0,0,1-1.1-1.07v-1.82a7.52,7.52,0,0,1,.38-2.36,1.11,1.11,0,0,1,1.38-.69,1.07,1.07,0,0,1,.7,1.35,5.36,5.36,0,0,0-.27,1.7v1.82a1.08,1.08,0,0,1-1.09,1.07m206.24,5.25a1.08,1.08,0,0,1-1.09-1.07v-3.88a1.09,1.09,0,0,1,2.18,0v3.88a1.08,1.08,0,0,1-1.09,1.07M383.23,161.31a1.08,1.08,0,0,1-1.1-1.07v-3.89a1.1,1.1,0,0,1,2.19,0v3.89a1.08,1.08,0,0,1-1.09,1.07m206.24,5.25a1.08,1.08,0,0,1-1.09-1.07V161.6a1.09,1.09,0,0,1,2.18,0v3.89a1.08,1.08,0,0,1-1.09,1.07M383.23,180a1.08,1.08,0,0,1-1.1-1.07v-3.88a1.1,1.1,0,0,1,2.19,0V179a1.08,1.08,0,0,1-1.09,1.07m206.24,5.25a1.08,1.08,0,0,1-1.09-1.07v-3.88a1.09,1.09,0,0,1,2.18,0v3.88a1.08,1.08,0,0,1-1.09,1.07M383.23,198.76a1.08,1.08,0,0,1-1.1-1.07V193.8a1.1,1.1,0,0,1,2.19,0v3.89a1.08,1.08,0,0,1-1.09,1.07M589.47,204a1.08,1.08,0,0,1-1.09-1.07v-3.89a1.09,1.09,0,0,1,2.18,0v3.89a1.08,1.08,0,0,1-1.09,1.07M383.23,217.48a1.08,1.08,0,0,1-1.1-1.07v-3.88a1.1,1.1,0,0,1,2.19,0v3.88a1.08,1.08,0,0,1-1.09,1.07m206.24,5.25a1.08,1.08,0,0,1-1.09-1.07v-3.88a1.09,1.09,0,0,1,2.18,0v3.88a1.08,1.08,0,0,1-1.09,1.07M383.23,236.21a1.08,1.08,0,0,1-1.1-1.07v-3.89a1.1,1.1,0,0,1,2.19,0v3.89a1.08,1.08,0,0,1-1.09,1.07m206.24,5.25a1.08,1.08,0,0,1-1.09-1.07V236.5a1.09,1.09,0,0,1,2.18,0v3.89a1.08,1.08,0,0,1-1.09,1.07M383.23,254.93a1.08,1.08,0,0,1-1.1-1.07V250a1.1,1.1,0,0,1,2.19,0v3.88a1.08,1.08,0,0,1-1.09,1.07m206.24,5.25a1.08,1.08,0,0,1-1.09-1.07v-3.88a1.09,1.09,0,0,1,2.18,0v3.88a1.08,1.08,0,0,1-1.09,1.07M383.23,273.66a1.08,1.08,0,0,1-1.1-1.07V268.7a1.1,1.1,0,0,1,2.19,0v3.89a1.08,1.08,0,0,1-1.09,1.07m206.24,5.25a1.08,1.08,0,0,1-1.09-1.07V274a1.09,1.09,0,0,1,2.18,0v3.89a1.08,1.08,0,0,1-1.09,1.07M383.23,292.39a1.09,1.09,0,0,1-1.1-1.08v-3.88a1.1,1.1,0,0,1,2.19,0v3.88a1.08,1.08,0,0,1-1.09,1.08m206.24,5.25a1.08,1.08,0,0,1-1.09-1.08v-3.88a1.09,1.09,0,0,1,2.18,0v3.88a1.08,1.08,0,0,1-1.09,1.08M383.23,311.11a1.08,1.08,0,0,1-1.1-1.07v-3.88a1.1,1.1,0,0,1,2.19,0V310a1.08,1.08,0,0,1-1.09,1.07m206.24,5.25a1.08,1.08,0,0,1-1.09-1.07V311.4a1.09,1.09,0,0,1,2.18,0v3.89a1.08,1.08,0,0,1-1.09,1.07m-9.63,6.54a1.07,1.07,0,1,1,0-2.14h4a1.07,1.07,0,1,1,0,2.14h-4m-19.12,0a1.07,1.07,0,1,1,0-2.14h4a1.07,1.07,0,1,1,0,2.14h-4m-19.13,0a1.07,1.07,0,1,1,0-2.14h4a1.08,1.08,0,1,1,0,2.15h-4m-19.13,0a1.08,1.08,0,1,1,0-2.15h4a1.08,1.08,0,1,1,0,2.15h-4m-19.12,0a1.08,1.08,0,1,1,0-2.15h4a1.07,1.07,0,1,1,0,2.14h-4m-19.13,0a1.07,1.07,0,1,1,0-2.14h4a1.07,1.07,0,1,1,0,2.14h-4m-19.12,0a1.07,1.07,0,1,1,0-2.14h4a1.07,1.07,0,1,1,0,2.14h-4M446,323a1.07,1.07,0,1,1,0-2.14h4a1.07,1.07,0,1,1,0,2.14h-4m-19.12,0a1.07,1.07,0,1,1,0-2.14h4a1.08,1.08,0,1,1,0,2.15h-4m-19.13,0a1.08,1.08,0,1,1,0-2.15h4a1.07,1.07,0,1,1,0,2.14h-4m-19.12,0a1.08,1.08,0,1,1,0-2.15h4a1.07,1.07,0,1,1,0,2.14h-4"/><polyline id="Fill-135" class="cls-2" points="298.09 143.91 217.41 148.17 217.41 135.93 298.09 131.37 298.09 143.91"/><polyline id="Fill-136" class="cls-2" points="298.09 166.18 217.41 170.03 217.41 157.37 298.09 153.22 298.09 166.18"/><polyline id="Fill-137" class="cls-2" points="298.09 190.17 217.41 193.56 217.41 180.46 298.09 176.75 298.09 190.17"/><polyline id="Fill-138" class="cls-2" points="298.09 212.51 217.41 215.41 217.41 201.83 298.09 198.6 298.09 212.51"/><polyline id="Fill-139" class="cls-2" points="298.09 239.93 217.41 242.3 217.41 228.21 298.09 225.49 298.09 239.93"/><polyline id="Fill-140" class="cls-2" points="298.09 257.85 217.41 259.11 217.41 248.86 298.09 247.35 298.09 257.85"/><polyline id="Fill-141" class="cls-2" points="298.09 281.81 217.41 282.64 217.41 271.98 298.09 270.88 298.09 281.81"/><polyline id="Fill-142" class="cls-2" points="363.64 305.55 220.77 306.18 220.77 295.49 363.64 294.41 363.64 305.55"/><polyline id="Fill-143" class="cls-2" points="363.64 328.03 220.77 327.8 220.77 316.51 363.64 316.26 363.64 328.03"/><polyline id="Fill-144" class="cls-2" points="363.64 353.24 220.77 352.19 220.77 341.48 363.64 342.07 363.64 353.24"/><polyline id="Fill-145" class="cls-2" points="363.64 378.45 220.77 375.93 220.77 361.65 363.64 363.56 363.64 378.45"/><polyline id="Fill-146" class="cls-2" points="328.35 401.99 214.05 399.17 214.05 385.18 328.35 387.53 328.35 401.99"/><polyline id="Fill-147" class="cls-2" points="328.35 425.52 214.05 422.02 214.05 408.71 328.35 411.76 328.35 425.52"/><polyline id="Fill-148" class="cls-2" points="328.35 447.37 214.05 443.25 214.05 430.56 328.35 434.26 328.35 447.37"/><polyline id="Fill-149" class="cls-2" points="328.35 470.9 214.05 466.22 214.05 454.1 328.35 458.38 328.35 470.9"/><polyline id="Fill-150" class="cls-2" points="328.35 496.12 214.05 490.39 214.05 477.63 328.35 482.92 328.35 496.12"/><polyline id="Fill-151" class="cls-2" points="328.35 517.97 214.05 511.72 214.05 499.48 328.35 505.31 328.35 517.97"/><polyline id="Fill-152" class="cls-2" points="328.35 541.5 214.05 534.77 214.05 523.01 328.35 529.34 328.35 541.5"/><polyline id="Fill-153" class="cls-2" points="328.35 563.35 214.05 556.18 214.05 544.86 328.35 551.65 328.35 563.35"/><path id="Fill-154" class="cls-2" d="M437.6,581.84l-8.16-.61c0-22.79-15.5-42.32-34.36-43.5-18.67-1.18-33.71,16.06-33.71,38.42l-7.81-.59c0-27.54,18.5-48.83,41.52-47.44,23.32,1.4,42.52,25.51,42.52,53.72"/><path id="Fill-155" class="cls-13" d="M361.78,576.8l-8.22-.58c0-19,9.79-35.91,25-43.12l3.53,8.73c-12.39,5.82-20.35,19.54-20.35,35"/><path id="Fill-156" class="cls-13" d="M398.22,581.94a2.48,2.48,0,0,1-3.31-1.33,2.67,2.67,0,0,1,1-3.54,2.48,2.48,0,0,1,3.32,1.33,2.66,2.66,0,0,1-1,3.54m3-5.63h0l-12.84-18.91,0,0a1.56,1.56,0,0,0-2-.62,1.71,1.71,0,0,0-.75,2.05l0,0L392.12,581h0a5.61,5.61,0,0,0,.34.91,5.28,5.28,0,0,0,7.06,2.83,5.68,5.68,0,0,0,2.16-7.55,6.24,6.24,0,0,0-.49-.83"/><path id="Fill-157" class="cls-13" d="M556.66,153.22l-17.92.72-.28.29V162l.28.26,6.81-.26.25.13,1.63,2.69a.29.29,0,0,0,.49,0l1.64-2.83.25-.14,6.85-.27.29-.28v-7.84l-.29-.26"/><path id="Fill-158" class="cls-1" d="M565.07,274.24l-17.93.22-.28.28v8l.28.28,6.82-.06.24.13,1.64,2.81a.29.29,0,0,0,.49,0L558,283l.24-.15,6.86-.06.28-.29v-8l-.28-.28"/><path id="Fill-159" class="cls-13" d="M408.77,267.52l-16.29.25-.26.28v8l.26.28,6.19-.08.22.14,1.49,2.79a.25.25,0,0,0,.45,0l1.48-2.84.23-.14,6.23-.08.26-.29v-8l-.26-.28"/><path id="Fill-160" class="cls-1" d="M413.81,165l-16.29.68-.26.28v7.82l.26.27,6.2-.25.22.13,1.48,2.71a.25.25,0,0,0,.45,0l1.49-2.82.22-.15,6.23-.24.26-.29v-7.85l-.26-.27"/><polyline id="Fill-161" class="cls-2" points="360.28 282 306.5 282.64 306.5 129.38 360.28 126.32 360.28 282"/><polyline id="Fill-162" class="cls-2" points="913.29 178.62 829.25 181.79 829.25 168.44 913.29 164.98 913.29 178.62"/><polyline id="Fill-163" class="cls-2" points="913.29 197.5 829.25 200.28 829.25 186.54 913.29 183.47 913.29 197.5"/><polyline id="Fill-164" class="cls-2" points="913.29 223.13 829.25 225.49 829.25 211.35 913.29 208.69 913.29 223.13"/><polyline id="Fill-165" class="cls-2" points="913.29 243.74 829.25 245.66 829.25 231.09 913.29 228.86 913.29 243.74"/><polyline id="Fill-166" class="cls-2" points="913.29 261.45 829.25 262.47 829.25 251.96 913.29 250.71 913.29 261.45"/><polyline id="Fill-167" class="cls-2" points="913.29 283.65 829.25 284.32 829.25 273.47 913.29 272.56 913.29 283.65"/><polyline id="Fill-168" class="cls-2" points="913.29 305.87 829.25 306.18 829.25 294.96 913.29 294.41 913.29 305.87"/><polyline id="Fill-169" class="cls-2" points="913.29 324.67 829.25 324.58 829.25 313.06 913.29 312.9 913.29 324.67"/><polyline id="Fill-170" class="cls-2" points="913.29 349.88 829.25 349.4 829.25 338.11 913.29 338.35 913.29 349.88"/><polyline id="Fill-171" class="cls-2" points="913.29 370.05 829.25 369.2 829.25 358.28 913.29 358.9 913.29 370.05"/><polyline id="Fill-172" class="cls-2" points="913.29 390.22 829.25 389.03 829.25 378.45 913.29 379.42 913.29 390.22"/><polyline id="Fill-173" class="cls-2" points="913.29 413.75 829.25 411.59 829.25 396.94 913.29 398.79 913.29 413.75"/><polyline id="Fill-174" class="cls-2" points="913.29 435.61 829.25 433.01 829.25 418.8 913.29 421.09 913.29 435.61"/><polyline id="Fill-175" class="cls-2" points="913.29 454.1 829.25 451.09 829.25 437.29 913.29 439.99 913.29 454.1"/><polyline id="Fill-176" class="cls-2" points="913.29 479.31 829.25 475.92 829.25 462.5 913.29 465.6 913.29 479.31"/><polyline id="Fill-177" class="cls-2" points="913.29 497.8 829.25 494.04 829.25 480.99 913.29 484.46 913.29 497.8"/><polyline id="Fill-178" class="cls-2" points="913.29 521.33 829.25 517.23 829.25 504.52 913.29 508.35 913.29 521.33"/><polyline id="Fill-179" class="cls-2" points="913.29 543.18 829.25 538.31 829.25 524.69 913.29 529.27 913.29 543.18"/><polyline id="Fill-180" class="cls-2" points="913.29 563.35 829.25 558.14 829.25 544.86 913.29 549.79 913.29 563.35"/><polyline id="Fill-181" class="cls-2" points="913.29 583.52 829.25 577.99 829.25 565.03 913.29 570.29 913.29 583.52"/><polyline id="Fill-182" class="cls-2" points="913.29 605.37 829.25 599.53 829.25 586.88 913.29 592.46 913.29 605.37"/><polyline id="Fill-183" class="cls-2" points="913.29 628.91 829.25 622.76 829.25 610.42 913.29 616.29 913.29 628.91"/><path id="Fill-184" class="cls-1" d="M716.09,195.25v74l-70.06.95c.44,39.33,31.09,71.18,69.45,71.29,39.34.12,71.75-33.05,71.75-74.09,0-40.82-32.08-73-71.14-72.13"/><path id="Fill-185" class="cls-13" d="M646,270.64v.24l68.91-.95v-73C676.61,198.09,646,231.09,646,270.64"/><path id="Fill-186" class="cls-13" d="M782.79,180.76a1.1,1.1,0,0,1,0-2.19l3.9-.14a1.07,1.07,0,0,1,1.12,1.06,1.1,1.1,0,0,1-1,1.14l-3.9.13Zm-18.82.66a1.1,1.1,0,0,1,0-2.2l3.91-.13a1.06,1.06,0,0,1,1.11,1.06,1.09,1.09,0,0,1-1,1.13l-3.91.14Zm-18.83.65a1.1,1.1,0,0,1,0-2.2l3.91-.13a1.06,1.06,0,0,1,1.11,1.06,1.09,1.09,0,0,1-1,1.14l-3.9.13Zm-18.83.65a1.1,1.1,0,0,1,0-2.19l3.9-.14a1.09,1.09,0,0,1,1.12,1.06,1.1,1.1,0,0,1-1,1.14l-3.9.13Zm-18.82.66a1.1,1.1,0,0,1,0-2.2l3.91-.13a1.1,1.1,0,0,1,.07,2.19l-3.91.14Zm-18.83.65a1.1,1.1,0,0,1,0-2.2l3.91-.13a1.09,1.09,0,0,1,1.12,1.06,1.1,1.1,0,0,1-1,1.14l-3.9.13Zm-18.83.65a1.1,1.1,0,0,1,0-2.19l3.91-.14a1.1,1.1,0,0,1,.07,2.2l-3.91.13Zm-18.82.66a1.1,1.1,0,0,1,0-2.2l3.91-.13a1.06,1.06,0,0,1,1.11,1.06,1.09,1.09,0,0,1-1,1.13l-3.91.14Zm-16.89,4.93-.37-.07a1.12,1.12,0,0,1-.64-1.42,8.36,8.36,0,0,1,2.62-3.66,1.06,1.06,0,0,1,1.51.19,1.11,1.11,0,0,1-.19,1.54,6.1,6.1,0,0,0-1.91,2.7A1.1,1.1,0,0,1,634.12,190.27Zm163.8.89a1.09,1.09,0,0,1-1.08-1.1v-3.71a1.19,1.19,0,0,1,1-1.26A1,1,0,0,1,799,186v4A1.08,1.08,0,0,1,797.92,191.16ZM633.66,209.4a1.08,1.08,0,0,1-1.07-1.09v-4a1.08,1.08,0,1,1,2.15,0v4A1.08,1.08,0,0,1,633.66,209.4Zm164.26.95a1.09,1.09,0,0,1-1.08-1.1v-4a1.08,1.08,0,1,1,2.15,0v4A1.08,1.08,0,0,1,797.92,210.35ZM633.66,228.6a1.08,1.08,0,0,1-1.07-1.1v-4a1.08,1.08,0,1,1,2.15,0v4A1.09,1.09,0,0,1,633.66,228.6Zm164.26,1a1.09,1.09,0,0,1-1.08-1.1v-4a1.08,1.08,0,1,1,2.15,0v4A1.08,1.08,0,0,1,797.92,229.55ZM633.66,247.79a1.08,1.08,0,0,1-1.07-1.09v-4a1.08,1.08,0,1,1,2.15,0v4A1.08,1.08,0,0,1,633.66,247.79Zm164.26,1a1.09,1.09,0,0,1-1.08-1.1v-4a1.08,1.08,0,1,1,2.15,0v4A1.08,1.08,0,0,1,797.92,248.74ZM633.66,267a1.08,1.08,0,0,1-1.07-1.1v-4a1.08,1.08,0,1,1,2.15,0v4A1.09,1.09,0,0,1,633.66,267Zm164.26.95a1.09,1.09,0,0,1-1.08-1.1v-4a1.08,1.08,0,1,1,2.15,0v4A1.08,1.08,0,0,1,797.92,267.94ZM633.66,286.19a1.09,1.09,0,0,1-1.07-1.1v-4a1.08,1.08,0,1,1,2.15,0v4A1.09,1.09,0,0,1,633.66,286.19Zm164.26.94a1.09,1.09,0,0,1-1.08-1.1v-4a1.08,1.08,0,1,1,2.15,0v4A1.08,1.08,0,0,1,797.92,287.13ZM633.66,305.38a1.08,1.08,0,0,1-1.07-1.1v-4a1.08,1.08,0,1,1,2.15,0v4A1.09,1.09,0,0,1,633.66,305.38Zm164.26.95a1.09,1.09,0,0,1-1.08-1.1v-4a1.08,1.08,0,1,1,2.15,0v4A1.08,1.08,0,0,1,797.92,306.33ZM633.66,324.58a1.09,1.09,0,0,1-1.07-1.1v-4a1.08,1.08,0,1,1,2.15,0v4A1.09,1.09,0,0,1,633.66,324.58Zm164.26.94a1.08,1.08,0,0,1-1.08-1.09v-4a1.08,1.08,0,1,1,2.15,0v4A1.08,1.08,0,0,1,797.92,325.52ZM633.66,343.77a1.08,1.08,0,0,1-1.07-1.1v-4a1.08,1.08,0,1,1,2.15,0v4A1.09,1.09,0,0,1,633.66,343.77Zm164.26,1a1.09,1.09,0,0,1-1.08-1.1v-4a1.08,1.08,0,1,1,2.15,0v4A1.08,1.08,0,0,1,797.92,344.72ZM640.39,359H640a7,7,0,0,1-3.92-1.23,1.11,1.11,0,0,1-.3-1.52,1.07,1.07,0,0,1,1.5-.31,4.82,4.82,0,0,0,2.73.86h.38a1.08,1.08,0,0,1,1.07,1.1A1.1,1.1,0,0,1,640.39,359Zm18.84.12h0l-3.91,0a1.1,1.1,0,0,1,0-2.2h0l3.91,0a1.1,1.1,0,0,1,0,2.19Zm18.84.12h0l-3.91,0a1.1,1.1,0,0,1,0-2.2h0l3.91,0a1.1,1.1,0,0,1,0,2.19Zm18.83.13h0l-3.91,0a1.1,1.1,0,0,1,0-2.2h0l3.91,0a1.1,1.1,0,0,1,0,2.2Zm18.84.11h0l-3.9,0a1.1,1.1,0,0,1,0-2.2h0l3.91,0a1.1,1.1,0,0,1,0,2.19Zm18.84.12h0l-3.91,0a1.1,1.1,0,0,1,0-2.2h0l3.91,0a1.1,1.1,0,0,1,0,2.19Zm18.83.13h0l-3.91,0a1.08,1.08,0,0,1-1.07-1.1,1.12,1.12,0,0,1,1.08-1.1l3.91,0a1.1,1.1,0,0,1,0,2.2Zm18.84.11h0l-3.91,0a1.1,1.1,0,0,1,0-2.2h0l3.91,0a1.1,1.1,0,0,1,0,2.19Zm18.84.13-3.92,0a1.1,1.1,0,0,1,0-2.2h0l3.91,0a5.59,5.59,0,0,0,3.09-.94,1.05,1.05,0,0,1,1.49.31,1.1,1.1,0,0,1-.31,1.52A7.67,7.67,0,0,1,791.09,360Z"/><path id="Fill-216" class="cls-15" d="M429,600.33l-47.64-3.62c0-.65,0-1.3,0-1.94l47.83,3.64-.18,1.92m-58.39-4.44-49-3.73c.09-.64.17-1.28.25-1.91L371.05,594l-.42,1.9"/><path id="Fill-219" class="cls-16" d="M437.6,514.61l-79-4.32V402l1.07,0L429,403.64l.18,2.19-68.45-1.62v104l76.78,4.19c0,.76.09,1.49.13,2.19"/><path id="Fill-220" class="cls-16" d="M522.89,323a1.08,1.08,0,1,1,0-2.16h3.93a1.08,1.08,0,1,1,0,2.15h-3.93m19,0a1.08,1.08,0,1,1,0-2.16h3.93a1.08,1.08,0,1,1,0,2.16h-3.93m-152.73-1a1.08,1.08,0,0,1,1.09-1.08h.3c-.45.37-.91.73-1.39,1.08m-4.22-10.88a1.08,1.08,0,0,1-1.08-1.08V306.1a1.08,1.08,0,1,1,2.16,0V310a1.08,1.08,0,0,1-1.08,1.08m0-18.85a1.08,1.08,0,0,1-1.08-1.08v-3.92a1.08,1.08,0,0,1,2.16,0v3.92a1.08,1.08,0,0,1-1.08,1.08m0-18.86a1.08,1.08,0,0,1-1.08-1.08v-3.91a1.08,1.08,0,0,1,2.16,0v3.91a1.08,1.08,0,0,1-1.08,1.08m0-18.85a1.08,1.08,0,0,1-1.08-1.08v-3.91A1,1,0,0,1,384,249a13,13,0,0,1,2,1.6v2.82a1.08,1.08,0,0,1-1.08,1.08"/><path id="Fill-228" class="cls-17" d="M330,470.9l-2.38-.09-21.16-11.67L330,460V470.9"/><path id="Fill-229" class="cls-17" d="M328.35,565l-3.37-.19q.93-5.69,1.88-11.57l1.49.07V565"/><path id="Fill-231" class="cls-18" d="M394.9,581.84a2.73,2.73,0,0,1-2.38-2c-.66-1.69-.19-3.68,1-4.45a1.94,1.94,0,0,1,1-.3,2.75,2.75,0,0,1,2.39,2c.65,1.69.18,3.68-1.05,4.45a1.94,1.94,0,0,1-1,.3"/><path id="Fill-233" class="cls-16" d="M361.78,576.8l-8.22-.58v-.12A51.06,51.06,0,0,1,363,546.23,41.28,41.28,0,0,1,378.6,533.1v0l3.52,8.71a33.26,33.26,0,0,0-12.08,9.81,41.12,41.12,0,0,0-8.27,24.87v.29"/><path id="Fill-234" class="cls-16" d="M397.41,585.2a5.84,5.84,0,0,1-5.28-4.25h0l-6.57-22.09,0,0a1.71,1.71,0,0,1,.75-2.05,1.35,1.35,0,0,1,.64-.16,1.69,1.69,0,0,1,1.37.78l0,0,12.84,18.91h0a5.77,5.77,0,0,1,.49.84,5.68,5.68,0,0,1-2.16,7.54,4.6,4.6,0,0,1-2.12.51m-.49-8.37a2.23,2.23,0,0,0-1,.24,2.67,2.67,0,0,0-1,3.54,2.61,2.61,0,0,0,2.32,1.57,2.16,2.16,0,0,0,1-.24,2.66,2.66,0,0,0,1-3.54,2.62,2.62,0,0,0-2.32-1.57"/><polyline id="Fill-236" class="cls-16" points="392.36 274.69 392.08 274.38 392.08 273.79 392.36 274.69"/></g><path id="Combined-Shape" class="cls-19" d="M411.81,483.55c4,5,7.82,9.6,10.08,11.86,6.7,6.71,33.51,33.53,42.44,38,4.84,2.42,12.94,8.11,19,13.54,2.57.91,4.3,1.65,4.3,1.65l17.87-4.47,15.64,15.65S507.75,562,503.28,571a13.7,13.7,0,0,1-1.46,2.3l-20.06-5c-3.25,2-7,2.83-10.72,1a22.2,22.2,0,0,1-6.19-5.21l-4.31-1.08c-1.18,5.55,5.26,21.48,13.7,21.48,1,0,2.1-.06,3.26-.17-5.65-6.14-11.31-15.88-17-21.31a4,4,0,0,1,.29-.88A6.05,6.05,0,0,1,462,560.5c-5.91-7.59-11.83-17.42-17.75-20.38-5.68-2.84-29.44-23.77-48.28-41.5L382.41,511.5c1.69,25.81,2.46,48.12,2.46,52.75,0,11.18-11.17,20.12-11.17,20.12H282.1L268.7,571c-8.94-9,13.4-116.25,24.57-147.55,5.94-16.62,20.07-24.42,32-28.07l5.06-13.52h0s-1.35-21-8.05-29.92-22.34-53.65,0-60.36c6.79-2,14.81-2.84,23-2.84,18.78,0,38.47,4.2,46.24,7.31,11.17,4.47,24.58,2.24,24.58,2.24L405,311.66A44.31,44.31,0,0,1,391.65,324c.4,5,1.85,25.46-.1,39.09-2.23,15.65-11.17,26.83-24.57,22.36l-11.1,17.45c4,2.65,8.54,6.95,13.35,13.83,15.64,22.35,44.69,64.83,44.69,64.83Z"/><path id="Combined-Shape-2" data-name="Combined-Shape" class="cls-19" d="M635.9,370c4.86-.63,8-.83,8-.83a43.55,43.55,0,0,1,6.43-.36c6.43,0,17.7.81,33.79,4.83a12.34,12.34,0,0,1,4.38,2.11c17.77,4.39,60.42,60.5,78.28,91.78s0,49.18-24.57,73.77-33.52,11.18-33.52,11.18l-3.19,2.75c1.14,12,2.33,23,3.19,30.78,2.24,20.12-8.48,23.63-8.48,23.63L573.81,603s-5.85-5.82-12.55-21.47c-3.38-7.89-1.07-37.4,2.32-68.72-14.49,17.64-28.81,32.93-38.06,39.66-16.39,11.92-20.86,9.93-24.66,8-1.91-1-3.64-2-6.62-1.24-8.94,2.23-24.58,6.7-24.58,6.7s-11.17-29.06-13.4-31.29,26.81-9,26.81-9c2.23-22.35,33.51-33.53,46.91-49.18s13.41-40.23,24.58-64.82c8.89-19.58,27.69-25,44.28-31.14,1.63-.9,3.36-1.74,5.14-2.51-3.68-8.09-8-27.82-8-27.82-21.42,1.93-23.37-17.31-25.31-30.76-1.22-8.45,1.39-21.44,3.5-29.95-12.8-8.82.76-35.42.76-35.42s11.58,9.47,36.67,11.37,29,20.83,30.89,34.09-16,52-16,52-2.81-7.24-3.23-12.83c-1.87,9.64,11.7,28.78,11.7,28.78A2.23,2.23,0,0,1,635.9,370Zm67.42,90.52C703,478.28,702,493.76,702,501.08v1.23c9.85-8.43,20.11-16.79,20.11-19.11S713.6,471.81,703.32,460.54Z"/><g id="Group-2-Copy"><g id="Group"><g id="Group-288"><g class="cls-20"><polygon id="Fill-286" class="cls-21" points="728.91 802.67 874.46 802.67 874.46 770.77 728.91 770.77 728.91 802.67"/></g></g><g id="Group-291"><g class="cls-22"><path id="Fill-289" class="cls-23" d="M795.72,797.69c-30.37,0-56.4-6.06-67.31-14.66-3.52-2.78-5.47-5.83-5.47-9,0-13.08,32.59-23.67,72.78-23.67,36.35,0,66.47,8.66,71.91,20a8.52,8.52,0,0,1,.87,3.68c0,13.08-32.58,23.68-72.78,23.68m0-44.54c-34.57,0-61.66,9.16-61.66,20.86s27.09,20.86,61.66,20.86,61.66-9.16,61.66-20.86-27.08-20.86-61.66-20.86m0,39.34c-35.45,0-59.27-9.56-59.27-18.48s23.82-18.48,59.27-18.48S855,765.09,855,774s-23.81,18.48-59.27,18.48m0-30.55c-20.49,0-37.11,5.4-37.11,12.07s16.62,12.07,37.11,12.07,37.12-5.4,37.12-12.07-16.62-12.07-37.12-12.07"/></g></g><path id="Fill-292" class="cls-1" d="M796.93,755.86c-35.61,0-59.52,9.44-59.52,18.26s23.91,18.25,59.52,18.25,59.52-9.44,59.52-18.25-23.92-18.26-59.52-18.26m0,38.86c-34.72,0-61.92-9.05-61.92-20.6s27.2-20.61,61.92-20.61,61.92,9.06,61.92,20.61-27.2,20.6-61.92,20.6"/><g id="Group-295"><g class="cls-24"><path id="Fill-293" class="cls-25" d="M796.6,785.7c-20.41,0-37-5.43-37-12.13s16.55-12.13,37-12.13,37,5.43,37,12.13S817,785.7,796.6,785.7"/></g></g><g id="Group-298"><g class="cls-26"><path id="Fill-296" class="cls-27" d="M799.36,781.36H798c-37.16,0-67.27-29-67.27-64.68V644.42H866.62v72.26c0,35.72-30.11,64.68-67.26,64.68"/></g></g><path id="Fill-299" class="cls-13" d="M866.76,643.91c0,8.72-30.48,15.78-68.08,15.78s-68.07-7.06-68.07-15.78,30.48-15.78,68.07-15.78,68.08,7.06,68.08,15.78"/><g id="Group-302"><g class="cls-28"><path id="Fill-300" class="cls-29" d="M864.14,642.68c0,3.67-10.22,8.29-28.27,11.13l-1.8.28c-3.5.51-7.29,1-11.33,1.31-.62.07-1.27.14-1.92.19-5.54.44-11.59.75-18,.84-.6,0-1.2,0-1.83,0-.93,0-1.87,0-2.83,0A259.83,259.83,0,0,1,769,655c-.65,0-1.28-.14-1.9-.21-22.22-2.67-35-7.94-35-12.06,0-3.75,10.61-8.46,29.26-11.3l1.8-.25a250,250,0,0,1,35-2.25c2.62,0,5.19,0,7.68.09l1.78.07c8.61.26,16.41.89,23.25,1.78.22,0,.43,0,.65.1.43,0,.86.11,1.27.16l.55.09c19.63,2.79,30.84,7.66,30.84,11.51"/></g></g><g id="Group-305"><g class="cls-30"><path id="Fill-303" class="cls-31" d="M832.53,636.18c4.22,4.89,41.74-.47,62.15-13.48s19.23-22.45,27.54-31.27,21.4-11.35,28.94-23.07c10.94-17,9.6-49.38,1.07-51.47-6.3-1.53-11.7,17.89-30.71,21.77s-41.53,1.12-64.3,21.19c-20.41,18-32.83,66.89-24.69,76.33"/></g></g><path id="Fill-306" class="cls-13" d="M823,656c1-3.11,2-6.13,3-8.94a129,129,0,0,1,6-13.63c.34-.71.7-1.4,1.09-2.09a9.84,9.84,0,0,1,.48-.91c25-46.47,72.21-68.82,93.63-79,2.65-1.25,4.87-2.3,6.51-3.15,20.86-10.79,19.13-31.41,19.1-31.6a.92.92,0,0,0-1-.81.89.89,0,0,0-.79,1c0,.19,1.64,19.6-18.16,29.87-1.64.83-3.81,1.87-6.47,3.13-21.2,10-67.5,31.93-93.07,77.24-.55.95-1.08,1.92-1.59,2.92-.19.33-.39.69-.58,1.05a136,136,0,0,0-6.82,15.39c-1.14,3-2.22,6.32-3.24,9.72L823,656"/><path id="Fill-308" class="cls-13" d="M914.46,557.11a.79.79,0,0,1-.7-.46c-3.64-7.28,1.35-17.09,1.56-17.51a.77.77,0,0,1,1.1-.33.92.92,0,0,1,.3,1.19c-.05.1-4.77,9.39-1.55,15.81a.92.92,0,0,1-.32,1.19l-.39.11"/><path id="Fill-309" class="cls-13" d="M947.74,559.74c-11.85,0-23.72-6.78-24.33-7.14a.86.86,0,0,1-.31-1.2.93.93,0,0,1,1.25-.3c.18.1,17.77,10.15,30.79,5.76a.92.92,0,0,1,1.16.53.88.88,0,0,1-.56,1.12,25,25,0,0,1-8,1.23"/><path id="Fill-310" class="cls-13" d="M876.41,580.78a1,1,0,0,1-.84-.46c-8.34-14.42,5.53-35.08,6.13-36a1,1,0,0,1,1.31-.27.85.85,0,0,1,.29,1.22c-.14.21-13.87,20.66-6.06,34.15a.87.87,0,0,1-.38,1.21l-.45.1"/><path id="Fill-311" class="cls-13" d="M930.74,582.54a60.13,60.13,0,0,1-37.34-13.38.86.86,0,0,1,0-1.24.91.91,0,0,1,1.27-.06c.16.15,16.89,15,41.42,12.65a.9.9,0,0,1,1,.79.89.89,0,0,1-.8,1c-1.88.18-3.7.27-5.48.27"/><path id="Fill-312" class="cls-13" d="M894.76,607.09c-23.72,0-35.51-12.28-35.65-12.43a1,1,0,0,1,0-1.34.87.87,0,0,1,1.27,0c.17.18,17.49,18.1,52.68,9.55a.91.91,0,0,1,1.09.71,1,1,0,0,1-.68,1.13,79.1,79.1,0,0,1-18.73,2.36"/><path id="Fill-313" class="cls-13" d="M850.29,607.09a.88.88,0,0,1-.67-.32c-12.86-15.11,0-39.4.53-40.43a.89.89,0,0,1,1.21-.35.91.91,0,0,1,.36,1.23c-.13.24-12.8,24.21-.75,38.37a.91.91,0,0,1-.09,1.27l-.59.23"/><path id="Fill-314" class="cls-13" d="M874.09,628.13A78.57,78.57,0,0,1,840.87,621a.84.84,0,0,1-.35-1.17.9.9,0,0,1,1.21-.34A78.05,78.05,0,0,0,892.86,624a.89.89,0,0,1,1.1.61.86.86,0,0,1-.64,1.05,76.39,76.39,0,0,1-19.23,2.43"/><g id="Group-317"><g class="cls-32"><path id="Fill-315" class="cls-33" d="M747,595.43s1.6-41.48-18.17-60.81c-16.2-15.83-39.45-22.56-50.54-26.95-17-6.75-48.22-24.21-52.45-38.06-1.73-5.65-10.66,17.59,1.72,50.47,29.88,79.37,111.33,83.07,119.44,75.35"/></g></g><path id="Fill-318" class="cls-13" d="M770.14,656.19c-.65-.05-1.27-.15-1.9-.22-.67-3.21-1.41-6.54-2.23-9.92-1.1-4.57-2.21-9.22-3.55-14-7.2-25.66-20.81-53.88-71.71-83.49-53.17-31-67.11-78.43-67.26-78.91a.9.9,0,0,1,1.73-.5c.14.48,13.92,47.29,66.45,77.85,51.66,30.05,65.31,58.72,72.59,84.78,1.32,4.7,2.42,9.3,3.5,13.83q1.31,5.39,2.38,10.54"/><path id="Fill-319" class="cls-13" d="M663,529.05a.85.85,0,0,1-.77-.5c-5.78-12.27-.77-27.21-.55-27.84a.84.84,0,0,1,1.09-.54.93.93,0,0,1,.51,1.17c0,.14-5,14.84.48,26.4a.93.93,0,0,1-.38,1.21l-.38.1"/><path id="Fill-320" class="cls-13" d="M645.27,508.88a1,1,0,0,1-.94-.57c-3.76-8.26-2.05-19.22-2-19.68a1,1,0,0,1,1.15-.78.93.93,0,0,1,.86,1c0,.1-1.69,10.94,1.86,18.74a.89.89,0,0,1-.56,1.19l-.39.06"/><path id="Fill-321" class="cls-13" d="M692,549.22a.82.82,0,0,1-.72-.43c-8.44-14.93-2.74-35.76-2.5-36.64a.83.83,0,0,1,1-.6.91.91,0,0,1,.55,1.11c-.06.21-5.72,21,2.33,35.21a.91.91,0,0,1-.28,1.22l-.42.13"/><path id="Fill-322" class="cls-13" d="M715.1,564.12a.85.85,0,0,1-.78-.53,37.28,37.28,0,0,1,4.27-36.86.81.81,0,0,1,1.19-.09.9.9,0,0,1,.08,1.25,35.51,35.51,0,0,0-4,35,.89.89,0,0,1-.44,1.16l-.34.07"/><path id="Fill-323" class="cls-13" d="M735.48,582.54a.86.86,0,0,1-.84-.69c-2.75-13.1,6.44-21.54,6.83-21.89a.86.86,0,0,1,1.22.07.87.87,0,0,1-.06,1.22c-.09.08-8.84,8.14-6.3,20.24a.87.87,0,0,1-.67,1l-.18,0"/><path id="Fill-324" class="cls-13" d="M651.54,516.78l-.59-.24c-10-9.23-26.19-4.65-26.35-4.61a.89.89,0,0,1-1.11-.62.93.93,0,0,1,.62-1.14c.7-.2,17.29-4.89,28,5a.94.94,0,0,1,.07,1.3.9.9,0,0,1-.67.31"/><path id="Fill-325" class="cls-13" d="M636.64,540.45a.91.91,0,0,1-.78-.46.92.92,0,0,1,.35-1.23c.69-.39,17.1-9.48,35.75-4.93a.9.9,0,0,1,.66,1.09.88.88,0,0,1-1.07.66c-18-4.38-34.31,4.67-34.47,4.76l-.44.11"/><path id="Fill-326" class="cls-13" d="M655.1,565.88a.91.91,0,0,1-.71-.34.88.88,0,0,1,.15-1.25c.19-.15,20.24-15.73,44.58-11.81a.89.89,0,0,1,.74,1,.91.91,0,0,1-1,.74c-23.56-3.8-43,11.29-43.17,11.44l-.56.2"/><path id="Fill-327" class="cls-13" d="M690.24,590.43a.9.9,0,0,1-.66-1.51c.73-.75,18-18.44,38.54-14.61a.89.89,0,0,1,.72,1,.92.92,0,0,1-1.06.71c-19.54-3.62-36.71,13.91-36.88,14.09a.94.94,0,0,1-.66.28"/><g id="Group-330"><g class="cls-34"><path id="Fill-328" class="cls-35" d="M839.82,555.61s-11.63-40.1,2.63-63.5c11.69-19.16,32.36-31.07,41.93-37.9,14.69-10.49,40.38-34.7,41.07-49.17.28-5.91,14.51,14.71,10.63,49.64-9.34,84.29-86.59,106.6-96.26,100.93"/></g></g><path id="Fill-331" class="cls-13" d="M837.12,655.9c-.93-6.34-1.86-14.16-2.56-23.1l-.07-1c-.1-1.1-.17-2.2-.24-3.35v0c-.41-6-.67-12.46-.76-19.28-.39-30-.82-63.93,49-111.74,43.9-42.19,45.79-91.44,45.79-91.94a.87.87,0,0,0-.86-.91.84.84,0,0,0-.93.86c0,.48-1.89,49-45.24,90.7-50.33,48.33-49.9,82.73-49.52,113.06.1,7.91.46,15.37,1,22.21v0c0,.38.05.74.07,1.12,0,.77.12,1.53.2,2.27v0c.67,8.2,1.55,15.43,2.39,21.36l1.79-.29"/><path id="Fill-332" class="cls-13" d="M903,469.43l-.21,0a.88.88,0,0,1-.71-1c2.88-12.08-6.08-24.64-6.16-24.76a.83.83,0,0,1,.24-1.21,1,1,0,0,1,1.3.23c.39.54,9.51,13.3,6.45,26.11a.93.93,0,0,1-.91.69"/><path id="Fill-333" class="cls-13" d="M915.85,447.51h-.12a.86.86,0,0,1-.66-1c1-8-2.54-17.84-2.58-17.94a.93.93,0,0,1,.43-1.15.76.76,0,0,1,1,.48c.15.42,3.75,10.36,2.67,18.86a.82.82,0,0,1-.77.76"/><path id="Fill-334" class="cls-13" d="M881.39,497.49l-.24,0a.92.92,0,0,1-.55-1.13c4.56-16-5.72-35-5.82-35.18a.94.94,0,0,1,.29-1.23.81.81,0,0,1,1.14.31c.44.81,10.76,19.86,6,36.63a.83.83,0,0,1-.79.64"/><path id="Fill-335" class="cls-13" d="M861.88,516.78l-.14,0a.92.92,0,0,1-.72-1,36.62,36.62,0,0,0-12.34-34.1,1,1,0,0,1-.21-1.27.83.83,0,0,1,1.21-.22A38.6,38.6,0,0,1,862.74,516a.89.89,0,0,1-.86.77"/><path id="Fill-336" class="cls-13" d="M847.4,539.57a.9.9,0,0,1-.92-.84c-.52-12.57-11.63-18.49-11.74-18.54a.88.88,0,0,1-.37-1.2.94.94,0,0,1,1.24-.36c.49.26,12.13,6.43,12.7,20a.89.89,0,0,1-.88.91h0"/><path id="Fill-337" class="cls-13" d="M912.45,456.28l-.5-.16a.85.85,0,0,1-.24-1.21c8.12-11.55,25.48-10.91,26.21-10.9a.88.88,0,0,1,.86.91.92.92,0,0,1-.94.84c-.17,0-17.09-.6-24.64,10.13a.91.91,0,0,1-.75.39"/><path id="Fill-338" class="cls-13" d="M896.63,479.07a.91.91,0,0,1-.79-.44.77.77,0,0,1,.39-1.08c16.94-7.84,35-3.35,35.76-3.16a.8.8,0,0,1,.61,1,.93.93,0,0,1-1.09.56c-.18-.05-18.18-4.51-34.48,3l-.4.09"/><path id="Fill-339" class="cls-13" d="M921.19,505.38l-.38-.1c-.23-.11-22.92-11.85-44.9-1.51a.87.87,0,0,1-1.18-.55,1.07,1.07,0,0,1,.49-1.33c22.73-10.69,46.12,1.42,46.35,1.54a1.09,1.09,0,0,1,.44,1.36.9.9,0,0,1-.82.59"/><path id="Fill-340" class="cls-13" d="M892.21,536.94l-.48-.15c-.21-.14-20.94-14.15-38.64-5.73a.89.89,0,0,1-1.19-.48,1,1,0,0,1,.45-1.25c18.61-8.85,39.47,5.26,40.35,5.87a1,1,0,0,1,.26,1.31.87.87,0,0,1-.75.43"/><g id="Group-343"><g class="cls-36"><path id="Fill-341" class="cls-37" d="M735.14,416.85s23.45,42.48,42.4,58.36c25.07,21,51.78,68.38,40.34,118.6-6.07,26.67-19.94,32.55-19.94,32.55s-12.83-37.61-25.8-51.32-27.17-25.83-31.3-59.47-5.7-98.72-5.7-98.72"/></g></g><path id="Fill-345" class="cls-13" d="M757.6,497.49a1,1,0,0,1-.94-.56c-8.39-18.08,2.29-39.24,2.75-40.13a1.08,1.08,0,0,1,1.35-.45.87.87,0,0,1,.51,1.19c-.11.21-10.78,21.36-2.73,38.71a.85.85,0,0,1-.55,1.17l-.39.07"/><path id="Fill-346" class="cls-13" d="M774.08,520.28a.89.89,0,0,1-.84-.6c-6.89-20.54,4.4-43.54,4.89-44.51a.89.89,0,0,1,1.18-.39.87.87,0,0,1,.4,1.18c-.11.23-11.45,23.32-4.79,43.16a.89.89,0,0,1-.56,1.12l-.28,0"/><path id="Fill-347" class="cls-13" d="M788.47,549.22a.89.89,0,0,1-.84-.59c-7.52-20.91,12.58-43.74,13.44-44.71a.91.91,0,0,1,1.27-.07.89.89,0,0,1,.07,1.26c-.2.23-20.25,23-13.09,42.92a.9.9,0,0,1-.55,1.14l-.3.05"/><path id="Fill-348" class="cls-13" d="M797.62,574.64a.9.9,0,0,1-.9-.77c-2.83-21.6,21.08-32.36,21.33-32.47a.92.92,0,0,1,1.2.44.89.89,0,0,1-.46,1.17c-.22.1-22.93,10.33-20.27,30.65a.88.88,0,0,1-.78,1h-.12"/><path id="Fill-349" class="cls-13" d="M800.88,605.33h0a.91.91,0,0,1-.84-1c.94-18.63,19.82-23.5,20-23.55a.87.87,0,0,1,1.06.69.93.93,0,0,1-.65,1.11c-.73.18-17.79,4.61-18.65,21.85a.9.9,0,0,1-.88.87"/><path id="Fill-350" class="cls-13" d="M775.4,524.67a.9.9,0,0,1-.73-.39c-10.5-15.17-36.54-8.62-36.8-8.55a.89.89,0,0,1-1.08-.65.91.91,0,0,1,.64-1.1c1.12-.29,27.49-6.92,38.7,9.26a.92.92,0,0,1-.22,1.26l-.51.17"/><path id="Fill-351" class="cls-13" d="M791.2,555.36a.9.9,0,0,1-.78-.48c-9.75-17.83-40.72-6.06-41-5.94a.89.89,0,0,1-1.15-.54.94.94,0,0,1,.52-1.2c1.34-.51,32.73-12.42,43.22,6.77a.93.93,0,0,1-.34,1.26l-.44.13"/><path id="Fill-352" class="cls-13" d="M800,586.92a.89.89,0,0,1-.83-.57c-5.63-13.91-24.17-9-24.36-9a.89.89,0,0,1-1.11-.66,1,1,0,0,1,.64-1.15c.21-.06,20.25-5.36,26.49,10a1,1,0,0,1-.48,1.23l-.35.07"/></g><path id="Path-4" class="cls-38" d="M735.12,415.43q8.25,53.43,23.41,80.17T794.13,557q13.36,45.42,5,69.8t-11.54,29"/></g><g id="Group-10-Copy"><g id="Group-17"><g class="cls-39"><path id="Fill-15" class="cls-40" d="M448.49,539.09c-6.7,2.23,11.17,8.94,11.17,8.94S446.26,552.5,444,557s4.47,22.35,13.41,22.35,24.58-4.47,29-13.41,17.87-11.18,17.87-11.18l-15.63-15.64-17.88,4.47s-11.49-4.93-19-4.93a10.44,10.44,0,0,0-3.35.46"/></g></g><g id="Group-20"><g class="cls-41"><path id="Fill-18" class="cls-42" d="M627.78,375.4c-18.44,9.44-45.24,11.68-56.41,36.27s-11.17,49.17-24.58,64.82-44.68,26.83-46.91,49.18c0,0-29.05,6.71-26.82,9s13.41,31.29,13.41,31.29,15.64-4.47,24.58-6.7c3-.75,4.71.25,6.62,1.24,3.8,2,8.27,4,24.66-8,24.57-17.88,84.89-96.12,89.36-118.48,4.06-20.31,12.73-59.88.47-59.88a9.88,9.88,0,0,0-4.38,1.26"/></g></g><g id="Group-23"><g class="cls-43"><path id="Fill-21" class="cls-44" d="M620.38,912.41c1.7,27.07,2.06,45,.14,46.94-3.24,3.25-11.44,7.65-20.62,12h0c-12,5.66-25.67,11.16-31.85,13.58a5.24,5.24,0,0,0-3.35,4.93,5.24,5.24,0,0,0,5.29,5.3h73.32a5.29,5.29,0,0,0,5.21-6.3L645.68,974,643,960a6.17,6.17,0,0,1-.09-1.21l1.77-46.34Z"/></g></g><g id="Group-26"><g class="cls-45"><path id="Fill-24" class="cls-46" d="M694,912.41l6.37,39.15a5.3,5.3,0,0,1-2.26,5.23l-13.71,9.38-22.7,15.56a5.28,5.28,0,0,0-2.06,6l1.14,3.71a5.32,5.32,0,0,0,5.07,3.71h57.67a5.32,5.32,0,0,0,5.31-5.47l-.42-13.91-2-63.33Z"/></g></g><g id="Group-29"><g class="cls-47"><path id="Fill-27" class="cls-48" d="M589.91,596.58c4,36.35,24.8,226.12,30.47,315.83h24.27L654,666.51l40,245.9h32.42l-9.72-312.47a5.33,5.33,0,0,0-5.11-5.15l-116.25-4.06h-.19a5.28,5.28,0,0,0-5.28,5.85"/></g></g><g id="Group-32"><g class="cls-49"><path id="Fill-30" class="cls-50" d="M622.55,905.7a8.76,8.76,0,0,0-8.73,8.74v2.65a8.75,8.75,0,0,0,8.73,8.73h20.51a8.76,8.76,0,0,0,8.74-8.73v-2.65a8.77,8.77,0,0,0-8.74-8.74Z"/></g></g><g id="Group-35"><g class="cls-51"><path id="Fill-33" class="cls-52" d="M698.51,905.7a8.77,8.77,0,0,0-8.73,8.74v2.65a8.76,8.76,0,0,0,8.73,8.73h25a8.76,8.76,0,0,0,8.73-8.73v-2.65a8.77,8.77,0,0,0-8.73-8.74Z"/></g></g><g id="Group-38"><g class="cls-53"><path id="Fill-36" class="cls-42" d="M599.87,971.31c-12,5.66-25.67,11.16-31.85,13.58a5.24,5.24,0,0,0-3.35,4.93,5.24,5.24,0,0,0,5.29,5.3h73.32a5.29,5.29,0,0,0,5.21-6.3L645.68,974c-9,2.84-30.56,9.44-34.1,7.67-4.47-2.24-3.28-9.57-11.68-10.4Z"/></g></g><g id="Group-41"><g class="cls-54"><path id="Fill-39" class="cls-42" d="M684.44,966.17l-22.7,15.56a5.28,5.28,0,0,0-2.06,6l1.14,3.71a5.32,5.32,0,0,0,5.07,3.71h57.67a5.32,5.32,0,0,0,5.31-5.47l-.42-13.91c-5.34.74-15.26,1-23-5.21-4.47-3.58-10.38-4.64-15.86-4.64a48.92,48.92,0,0,0-5.11.28"/></g></g><g id="Group-44"><g class="cls-55"><path id="Fill-42" class="cls-42" d="M660.73,369.19s-35.74,2.24-51.39,15.65-17.86,17.89-20.1,49.18-17.87,131.89-11.17,147.54S590.62,603,590.62,603L717,609.66s10.72-3.51,8.48-23.63-6.7-62.59-6.7-84.95S727.76,380.37,701,373.66c-16.09-4-27.36-4.83-33.79-4.83a43.38,43.38,0,0,0-6.43.36"/></g></g><g id="Group-47"><g class="cls-56"><path id="Fill-45" class="cls-57" d="M703.28,465l-62.63,40.22a8.59,8.59,0,0,0-2.6,11.87L704.8,621.11a8.58,8.58,0,0,0,11.86,2.59l62.64-40.23a8.6,8.6,0,0,0,2.59-11.87L715.14,467.53A8.56,8.56,0,0,0,703.28,465"/></g></g><g id="Group-50"><g class="cls-58"><path id="Fill-48" class="cls-1" d="M703.68,476.93l-52.31,33.59A8,8,0,0,0,649,521.61l56.24,87.68a8,8,0,0,0,11.08,2.42l52.3-33.59A8,8,0,0,0,771,567l-56.23-87.68a8,8,0,0,0-11.08-2.42"/></g></g><g id="Group-53"><g class="cls-59"><path id="Fill-51" class="cls-60" d="M681.77,473.45a2.22,2.22,0,0,0-.67,3.08l6,9.41a2.24,2.24,0,0,1-.67,3.09L669.53,499.9a2.22,2.22,0,0,1-3.08-.68l-6-9.41a2.23,2.23,0,1,0-3.75,2.42l8.44,13.17a2.24,2.24,0,0,0,3.09.68l24.44-15.7a2.23,2.23,0,0,0,.67-3.09l-8.44-13.17a2.26,2.26,0,0,0-1.89-1,2.21,2.21,0,0,0-1.2.36"/></g></g><g id="Group-56"><g class="cls-61"><polygon id="Fill-54" class="cls-62" points="661.73 528.22 662.94 530.1 715.59 496.3 714.38 494.42 661.73 528.22"/></g></g><g id="Group-59"><g class="cls-63"><polygon id="Fill-57" class="cls-62" points="666.2 534.93 667.41 536.81 720.05 503 718.85 501.12 666.2 534.93"/></g></g><g id="Group-62"><g class="cls-64"><polygon id="Fill-60" class="cls-62" points="670.62 541.55 671.87 543.52 712.27 517.59 711 515.61 670.62 541.55"/></g></g><g id="Group-65"><g class="cls-65"><path id="Fill-63" class="cls-66" d="M689.78,541.32a92,92,0,0,1-20.11,2.24c-11.17,0-17.87,8.94-15.64,11.17s9.23,1.61,9.23,1.61-4.76.63-4.76,7.34,13.4,24.59,33.51,11.17,29.81-25,29.81-25l-16.41-15.28Z"/></g></g><g id="Group-68"><g class="cls-67"><path id="Fill-66-2" data-name="Fill-66" class="cls-42" d="M694.25,429.55c15.63,22.35,44.68,49.18,44.68,53.65s-38,31.3-38,38-17.88,6.71-15.64,15.65c0,0,15.64,38,20.1,33.53s20.11-17.88,20.11-17.88,8.94,13.41,33.52-11.18,42.44-42.47,24.57-73.77-60.56-87.45-78.31-91.78a12,12,0,0,0-2.91-.37c-15.78,0-22.9,33.05-8.14,54.15"/></g></g><g id="Group-71-2" data-name="Group-71"><g class="cls-68"><path id="Fill-69-2" data-name="Fill-69" class="cls-69" d="M593.71,268.59s-8.94,29.06-6.7,44.72,4.47,38,29,35.76c0,0,6.7,31.3,11.17,35.77s20.11,4.47,29-4.47,4.46-11.18,4.46-11.18-15.64-22.35-13.4-33.53,20.11-40.24-2.24-58.12c-13.08-10.48-20.81-14.82-29.45-14.82-6.11,0-12.68,2.17-21.93,5.87"/></g></g><g id="Group-74-2" data-name="Group-74"><g class="cls-70"><path id="Fill-72-2" data-name="Fill-72" class="cls-42" d="M598.18,282c26.81,4.47,42.44,8.94,42.44,15.64s-2.23,26.83-2.23,26.83,4.47-20.12,8.94-20.12,9,1.2,6.75,10.66-6.75,13.93-6.75,20.64,3.79,16.68,3.79,16.68S671.9,306.6,669.67,291s-6.7-38-35.75-40.24-42.44-13.41-42.44-13.41-20.11,40.24,6.7,44.71"/></g></g><g id="Group-77-2" data-name="Group-77"><g class="cls-71"><path id="Fill-75-2" data-name="Fill-75" class="cls-62" d="M229.55,514.5c0,11.17,38,40.23,38,40.23l20.1-42.47-40.21-35.77s-17.87,26.83-17.87,38"/></g></g><g id="Group-80"><g class="cls-72"><path id="Fill-78-2" data-name="Fill-78" class="cls-62" d="M272,420.61c-13.4,22.35-38,58.12-38,58.12l31.28,26.83,40.22-107.31s-20.11,0-33.52,22.36"/></g></g><g id="Group-83-2" data-name="Group-83"><g class="cls-73"><path id="Fill-81-2" data-name="Fill-81" class="cls-74" d="M222.32,589.06a6.85,6.85,0,0,0,2.11,9.64l52,32,44.69-71.53-62.56-24.59Z"/></g></g><g id="Group-86"><g class="cls-75"><polygon id="Fill-84-2" data-name="Fill-84" class="cls-76" points="213.91 948.18 202.74 970.53 196.93 995.12 261.74 995.12 265.3 988.42 231.78 970.53 236.25 948.18 213.91 948.18"/></g></g><g id="Group-89"><g class="cls-77"><path id="Fill-87-2" data-name="Fill-87" class="cls-78" d="M264.3,609.66c-7.69,14.68-7.94,175.33-14.65,195.45S198.27,939.24,196,952.65s35.74,17.88,46.29,18.66,45.3-126,52-150.55,24.58-163.19,24.58-165.43V615.09s-25.19-10.8-41.68-10.8c-6,0-10.88,1.44-12.94,5.37"/></g></g><g id="Group-92"><g class="cls-79"><path id="Fill-90-2" data-name="Fill-90" class="cls-80" d="M343.49,284.24c-15.64,2.24-24.57,13.41-29.05,33.54s11.18,38,11.18,38l-13.41,35.77,29,6.7,15.65-24.59c13.4,4.48,22.34-6.7,24.57-22.35s0-40.24,0-40.24c0-19.69-17.32-27.24-32.13-27.23a42.65,42.65,0,0,0-5.85.4"/></g></g><g id="Group-95"><g class="cls-81"><path id="Fill-93-2" data-name="Fill-93" class="cls-42" d="M312.21,279.77c-22.34,6.71-6.7,51.42,0,60.36s8.05,29.92,8.05,29.92,5.36,3.61,12.06-5.33,4.46-20.12,0-29.06,6.7-17.88,11.17-17.88,8.93,29.06,8.93,17.88,6.7-17.88,20.11-20.12,22.34-15.65,22.34-15.65L406,286.48s-13.4,2.24-24.57-2.24c-7.78-3.11-27.46-7.31-46.25-7.31-8.19,0-16.22.81-23,2.84"/></g></g><g id="Group-98"><g class="cls-82"><path id="Fill-96-2" data-name="Fill-96" class="cls-74" d="M276.46,418.37C265.29,449.67,243,557,251.89,565.91l13.4,13.41H356.9s11.16-8.94,11.16-20.11S363.59,434,352.42,416.14a133.55,133.55,0,0,0-24.57-29.06s-40.22,0-51.39,31.29"/></g></g><g id="Group-101"><path id="Clip-100" class="cls-62" d="M368.06,489.91c8.94,11.17,62.56,60.35,71.5,64.82s17.87,24.59,26.8,29.07,17.87-6.71,20.11-11.18S468.6,552.5,459.66,548s-35.75-31.3-42.44-38-26.81-33.54-26.81-33.54l-15.65-11.17s-15.64,13.41-6.7,24.59"/><path id="Fill-99-2" data-name="Fill-99" class="cls-83" d="M368.06,489.91c8.94,11.17,62.56,60.35,71.5,64.82s17.87,24.59,26.8,29.07,17.87-6.71,20.11-11.18S468.6,552.5,459.66,548s-35.75-31.3-42.44-38-26.81-33.54-26.81-33.54l-15.65-11.17s-15.64,13.41-6.7,24.59"/></g><g id="Group-104"><g class="cls-84"><path id="Fill-102-2" data-name="Fill-102" class="cls-60" d="M323.93,394.25c-24,7.18-14,50.95-.55,64.36s42.22,47.85,42.22,47.85l31.51-30S368.06,434,352.42,411.67c-10.84-15.51-20.34-17.88-25.15-17.88a10.25,10.25,0,0,0-3.34.46"/></g></g><g id="Group-107"><g class="cls-85"><path id="Fill-105-2" data-name="Fill-105" class="cls-86" d="M356.9,950.41v20.12l-5.23,24.59h65.48l11.24-8.94s-24.58-4.47-33.52-13.41S379.24,937,379.24,937Z"/></g></g><g id="Group-110"><path id="Fill-108-2" data-name="Fill-108" class="cls-42" d="M265.29,579.32a462.79,462.79,0,0,0,0,60.36c2.24,31.3,62.56,165.43,64.79,178.84s15.64,143.07,24.58,152,31.28-11.18,35.37-16.77-13-106.18-15.27-144.18-20.1-174.37-20.1-174.37l-2.24-55.89Z"/></g></g></g></g></g></svg>