<svg width="1204" height="196" viewBox="0 0 1204 196" fill="none" xmlns="http://www.w3.org/2000/svg">
<g clip-path="url(#clip0_2945_63656)">
<rect width="1204" height="196" fill="white"/>
<path d="M79.8813 117.922C100.56 118.905 120.23 110.717 140.53 107.095C195.878 97.2217 237.894 146.477 271.174 135.871C283.106 132.07 279.975 115.123 275.991 104.417C272.008 93.7091 295.554 91.8124 298.358 80.8134C301.633 67.9647 316.608 59.6394 331.327 58.2662C346.048 56.893 360.645 60.9615 374.742 64.9787C418.126 77.3482 486.612 92.0478 529.999 104.417C651.457 139.047 635.588 30.5197 820.999 152C949.499 196.5 862.091 195.482 1096.09 265.144L1000.16 292.963C976.091 290.712 932.381 271.789 915.914 269.527C899.447 267.263 884.251 269.209 879.636 277.411C874.177 287.109 884.466 302.758 897.452 316.506C907.425 327.064 919.242 337.486 927.012 348.162C934.781 358.838 937.802 370.322 929.313 375.201C921.467 379.711 905.589 377.387 890.963 371.919C876.338 366.45 862.551 358.3 849.118 350.322C801.312 321.929 753.505 293.536 705.699 265.144C685.443 253.116 663.767 240.486 641.967 235.114C620.163 229.74 599.885 235.491 606.558 249.998C612.601 263.143 637.216 277.634 638.652 289.721C640.589 306.003 602.402 298.019 586.086 304.926C564.857 313.908 586.013 344.716 578.554 362.085C569.308 383.615 536.194 388.418 475.054 361.536C432.731 342.928 390.727 320.125 347.504 302.575C304.278 285.025 252.801 276.374 238.284 295.235C229.416 306.759 235.881 326.733 219.501 333.294C199.581 341.272 160.272 324.78 129.087 309.247C113.087 301.277 93.3972 292.406 82.1177 295.61C75.2166 297.57 73.972 303.695 67.4988 306.019C59.3558 308.946 44.5202 305.017 32.3127 298.706C20.1025 292.395 9.88148 284.113 -0.000610352 276.057V70.6276C21.675 92.6605 47.0262 116.36 79.8813 117.922Z" fill="url(#paint0_linear_2945_63656)"/>
<path d="M459 -9H349.868C321.876 -7.13747 322 23.6892 322 23.6892V171H431.269V23.6892C431.269 23.6892 431.787 -7.24041 459 -9" fill="#E8913A"/>
<path d="M315 139H316V26H315V139Z" fill="#FFC155"/>
<path d="M478.664 174.353H611.336V103.647H478.664V174.353ZM614 177H476V101H614V177" fill="#FFC155"/>
<path d="M161.084 122.95H264.916V53.0495H161.084V122.95ZM267 125H159V51H267V125" fill="#FFC155"/>
<path d="M445.293 72.7161H509.707V38.2839H445.293V72.7161ZM511 74H444V37H511V74Z" fill="#FFC155"/>
<path d="M455 -11C427.787 -9.24202 427.269 21.6892 427.269 21.6892V169H318V21.6892C318 21.6892 317.876 -9.13908 345.868 -11H455" fill="#FFF9F5"/>
<path d="M407 34H332V28H407V34Z" fill="#FFDC94"/>
<path d="M396 48H332V43H396V48Z" fill="#FFDC94"/>
<path d="M364 62H332V55H364V62Z" fill="#FFDC94"/>
<path d="M407 62H374V55H407V62Z" fill="#FFDC94"/>
<path d="M332 74H384V69H332V74Z" fill="#FFDC94"/>
<path d="M332 84H390V81H332V84Z" fill="#FFDC94"/>
<path d="M332 96H402V94H332V96Z" fill="#FFDC94"/>
<path d="M332.487 120.538H364.513V106.462H332.487V120.538ZM365 121H332V106H365V121" fill="#FFDC94"/>
<path d="M373 110H402V106H373V110Z" fill="#FFDC94"/>
<path d="M373 117H393V114H373V117Z" fill="#FFDC94"/>
<path d="M395 134H332V131H395V134Z" fill="#FFDC94"/>
<path d="M365 146H332V143H365V146Z" fill="#FFDC94"/>
<path d="M461.233 60L458.13 54.4658C457.876 54.0118 458.006 53.4194 458.423 53.1409C458.839 52.8641 459.383 53.0076 459.639 53.4616L461.832 57.3755L467.666 53.6135C468.086 53.3435 468.628 53.4953 468.876 53.9527C469.126 54.4101 468.986 55.0008 468.566 55.2709L461.233 60" fill="#FFCA55"/>
<path d="M463.501 46.6427C458.065 46.6427 453.643 51.0649 453.643 56.4992C453.643 61.9351 458.065 66.3573 463.501 66.3573C468.935 66.3573 473.357 61.9351 473.357 56.4992C473.357 51.0649 468.935 46.6427 463.501 46.6427ZM463.501 68C457.16 68 452 62.8403 452 56.4992C452 50.1581 457.16 45 463.501 45C469.842 45 475 50.1581 475 56.4992C475 62.8403 469.842 68 463.501 68Z" fill="#FFCA55"/>
<path d="M533.592 130.745L534.055 140.431L538 140.252L537.222 124L520.201 124.774L520.382 128.617L530.674 128.15L512.534 147.563L493.659 130.8L491 133.644L512.793 153L533.592 130.745" fill="#FFCA55"/>
<path d="M256 78H214V71H256V78Z" fill="#DED4CE"/>
<path d="M248 91H214V85H248V91Z" fill="#DED4CE"/>
<path d="M251 104H214V98H251V104Z" fill="#DED4CE"/>
<path d="M499 54H480V50H499V54Z" fill="#DED4CE"/>
<path d="M501 62H480V58H501V62Z" fill="#DED4CE"/>
<path d="M600 126H550V118H600V126Z" fill="#DED4CE"/>
<path d="M587 142H550V134H587V142Z" fill="#DED4CE"/>
<path d="M593 159H550V151H593V159Z" fill="#DED4CE"/>
<path d="M456 111H435V109.703H454.664V87H456V111Z" fill="#DED4CE"/>
<path d="M520.283 80H519V86.4701H562.717V91H564V85.203H520.283V80Z" fill="#DED4CE"/>
<path d="M262 39L262 16L311 16L311 17.2855L263.27 17.2855L263.27 39L262 39Z" fill="#DED4CE"/>
<path d="M435.319 44H434.027V29.0684C434.01 28.8219 432.403 0.16918 456.78 -4L457 -2.73836C433.755 1.23709 435.298 28.7498 435.317 29.0268L435.319 44" fill="#FFC155"/>
<path d="M514 61H512.694V35.3006H485V34H514V61Z" fill="#FFC155"/>
<path d="M197 131H155V92H157.084V128.946H197V131Z" fill="#FFC155"/>
<path d="M472.639 134H470V95H536V97.6074H472.639V134Z" fill="#FFC155"/>
<path d="M436 176H412V174.715H434.692V139H436V176" fill="#FFC155"/>
<path d="M398.969 149.031H416.031V131.967H398.969V149.031ZM418 151H397V130H418V151Z" fill="#FFDC94"/>
<path d="M407.978 145L401 137.969L403.127 135.557L408.119 140.586L419.031 131L421 133.563L407.978 145" fill="#FFDC94"/>
<path d="M377.839 169H363.418C364.566 168.438 365.7 167.834 366.822 167.188C371.225 164.65 375.146 161.606 378.557 158.172C387.698 152.314 394.128 143.738 397.387 134.148V150.444H399.366C394.817 157.102 388.724 162.877 381.245 167.188C380.121 167.834 378.989 168.44 377.839 169V169ZM400.623 148.522H399.323V131.873H407.543C407.061 133.932 406.461 135.955 405.746 137.947L402.988 135.366L400.776 137.696L404.477 141.161C403.384 143.698 402.095 146.161 400.623 148.522V148.522ZM407.957 129.953H398.597C399.423 126.472 399.847 122.897 399.847 119.299C399.847 118.726 399.834 118.158 399.813 117.586C399.715 114.948 399.387 112.304 398.824 109.685H401.882V106.115H397.905C396.915 102.832 395.541 99.6079 393.763 96.5034H401.882V93.7575H392.065C389.619 90.0943 386.724 86.8809 383.495 84.1463H390.144V81.4005H379.912C379.455 81.085 378.995 80.7792 378.528 80.4798C376.13 78.0622 373.535 75.8944 370.783 73.9859H383.626V72.9308C390.738 77.5115 396.905 83.7781 401.452 91.5529C408.515 103.627 410.462 117.25 407.957 129.953V129.953ZM376.496 69.0434H362.073C356.976 66.7282 351.551 65.1848 346 64.4659C348.4 64.1537 350.806 64 353.204 64C361.25 64 369.206 65.7324 376.496 69.0434" fill="#E0DDDF"/>
<path d="M384 74H370.891C368.073 72.0645 365.095 70.3946 362 69H376.722C379.233 70.1305 381.666 71.4441 384 72.9326V74" fill="#E0C386"/>
<path d="M390 84H383.502C382.377 82.9347 381.206 81.9324 380 81H390V84Z" fill="#E0C386"/>
<path d="M402 96H393.73C393.654 95.9067 393.579 95.8122 393.502 95.719C393.022 95.1312 392.521 94.5586 392 94H402V96" fill="#E0C386"/>
<path d="M402 110H398.925C398.667 108.66 398.358 107.327 398 106H402V110Z" fill="#E0C386"/>
<path d="M399.059 151H397V134.299C397.488 132.885 397.908 131.451 398.259 130H408C407.867 130.656 407.723 131.316 407.569 131.967H399.014V149.031H400.367C399.944 149.697 399.511 150.352 399.059 151" fill="#E0C386"/>
<path d="M404.723 141L401 137.412L403.226 135L406 137.673C405.609 138.793 405.182 139.906 404.723 141Z" fill="#E0C386"/>
<path d="M338.868 166C331.619 166 324.456 164.204 318 160.783V149C325.291 157.999 335.315 163.663 346 165.416C343.628 165.807 341.243 166 338.868 166" fill="#E0DDDF"/>
<path d="M230.804 223L300 165.691L290.196 154L221 211.309L230.804 223" fill="#FF7E55"/>
<path d="M299.017 164L303 160.922L294.981 152L291 155.078L299.017 164Z" fill="#E66947"/>
<path d="M298.532 142.79C291.644 131.035 290.551 117.524 294.384 105.509C297.772 94.8839 305.011 85.4295 315.5 79.3936C337.85 66.5303 366.488 74.0595 379.468 96.2086C383.452 103.009 385.496 110.395 385.772 117.74C386.394 134.323 377.99 150.692 362.501 159.607C340.151 172.47 311.511 164.941 298.532 142.79ZM290.582 147.367C306.111 173.869 340.376 182.877 367.117 167.486C393.858 152.095 402.947 118.135 387.42 91.6339C371.89 65.1317 337.623 56.1237 310.882 71.5128C284.141 86.9035 275.052 120.864 290.582 147.367" fill="#494F5C"/>
<path d="M294.512 105.264C297.779 94.9171 304.649 85.6775 314.576 79.6043V95.3506C302.393 99.2758 294.512 105.264 294.512 105.264ZM315.865 94.9477V78.8437C316.518 78.4715 317.18 78.1154 317.843 77.7786V94.3805C317.174 94.5626 316.512 94.7527 315.865 94.9477" fill="url(#paint1_linear_2945_63656)"/>
<path d="M315 95V79.7372C315.235 79.5576 315.474 79.3795 315.714 79.2062C315.731 79.1921 315.75 79.1796 315.768 79.1656C315.846 79.1093 315.921 79.0562 316 79V94.6095C315.663 94.7376 315.329 94.8672 315 95" fill="#EDC176"/>
<path d="M385 118C384.899 117.884 384.799 117.766 384.698 117.649H384.986C384.99 117.766 384.995 117.884 385 118ZM384.687 114.046H381.434C380.078 112.624 378.716 111.285 377.353 110.028H384.02C384.301 111.362 384.524 112.703 384.687 114.046ZM383.107 106.424H373.173C367.748 102.073 362.308 98.9222 356.963 96.7247H379.003C380.764 99.8577 382.126 103.112 383.107 106.424ZM318 94.7793V78.1316V89.4923C321.302 85.5724 325.308 82.1469 329.963 79.4113C334.464 76.7695 339.225 74.9824 344.058 74H347.879C354.082 75.2539 360.019 77.7842 365.273 81.4828H332.257V84.2539H368.825C372.025 87.0137 374.894 90.2566 377.318 93.9536H348.379C343.799 92.8645 339.344 92.4073 335.08 92.4073C328.902 92.4073 323.133 93.3703 318 94.7793Z" fill="#EDE8E6"/>
<path d="M348 74H344C344.664 73.6291 345.327 73.2958 345.995 73C346.664 73.2958 347.334 73.6291 348 74Z" fill="#EDD4A2"/>
<path d="M369 84H332V81H365.406C366.642 81.9324 367.844 82.9347 369 84Z" fill="#EDD4A2"/>
<path d="M379 96H356.689C353.761 95.1429 350.856 94.4851 348 94H377.294C377.757 94.5026 378.202 95.0146 378.629 95.5394C378.663 95.5802 378.697 95.6222 378.731 95.6641C378.746 95.6828 378.761 95.6991 378.775 95.7178C378.851 95.8123 378.926 95.9067 379 96" fill="#EDD4A2"/>
<path d="M384 110H377.239C375.825 108.572 374.417 107.247 373 106H383.074C383.433 107.326 383.741 108.66 384 110Z" fill="#EDD4A2"/>
<path d="M385 117H384.757C383.84 115.953 382.921 114.954 382 114H384.748C384.872 115 384.955 115.999 385 117Z" fill="#EDD4A2"/>
<path d="M318 89V77.586C322.576 75.2224 327.38 73.711 332.225 73V73.4351H344C339.177 74.4221 334.427 76.2175 329.936 78.8717C325.292 81.6201 321.295 85.0617 318 89" fill="#D7D5D6"/>
<path d="M344.054 74H332V73.5223C334.227 73.1729 336.465 73 338.692 73C338.694 73 338.694 73 338.694 73C338.696 73 338.699 73 338.7 73C341.151 73 343.59 73.2086 346 73.6203C345.349 73.7326 344.702 73.8592 344.054 74Z" fill="#D7C398"/>
<path d="M379 96C378.966 95.9422 378.933 95.8845 378.899 95.8283C378.933 95.8845 378.966 95.9422 379 96ZM316 79.2325C323.278 75.0085 331.226 73 339.071 73C336.891 73 334.699 73.1556 332.519 73.4701C327.663 74.1727 322.848 75.6663 318.262 78.002C317.603 78.3373 316.946 78.6919 316.297 79.0624C316.197 79.1202 316.101 79.1747 316 79.2325V79.2325ZM339.079 73C339.078 73 339.074 73 339.073 73C339.074 73 339.078 73 339.079 73Z" fill="#6E727B"/>
<path d="M339.796 104.742C338.151 105.353 339.089 108.498 338.927 114.23C338.764 119.961 334.213 121 334.213 121C334.213 121 336.218 118.806 336.626 116.797C337.033 114.788 332.534 109.71 334.499 105.725C336.018 102.647 340 104.627 340 104.627L339.796 104.742Z" fill="#754836"/>
<path d="M364 136C364 136 363.416 135.671 363.073 135.774C362.728 135.878 363.723 133 363.723 133L364 136" fill="#EEA886"/>
<path d="M363.326 133.431C363.326 133.431 364.643 132.384 364.85 132.229C365.057 132.075 365.802 132.01 366.664 132C367.526 131.992 368.696 132.328 368.779 132.44C368.862 132.552 369.003 132.629 369 132.973C368.995 133.319 368.78 133.609 368.78 133.609C368.78 133.609 368.996 134.036 368.704 134.376C368.704 134.376 368.887 134.787 368.483 135.122C368.483 135.122 368.65 135.528 368.334 135.749C368.334 135.749 367.588 135.817 367.32 135.914C367.051 136.01 365.489 136.055 363.983 135.889C363.983 135.889 362.314 135.765 363.326 133.431" fill="#EEA886"/>
<path d="M366.414 134C366.414 134 366.168 134.741 366.014 134.907C365.862 135.072 366.989 136 366.989 136C366.989 136 367.129 134.396 366.414 134Z" fill="#CF8C6C"/>
<path d="M368.587 132.001C368.587 132.001 366.728 132.085 366.701 132.467C366.674 132.849 366.847 133.01 366.847 133.01L366.094 133.484C366.094 133.484 365.736 134.157 366.418 134.457C366.418 134.457 366.031 135.039 366.716 135.229C366.716 135.229 366.597 135.758 366.902 135.917C367.207 136.075 368.402 135.959 368.402 135.959C368.402 135.959 368.646 135.791 368.528 135.21C368.528 135.21 368.875 134.85 368.717 134.319C368.717 134.319 368.958 133.977 368.782 133.404C368.782 133.404 369.274 132.586 368.78 132.008C368.78 132.008 368.666 131.997 368.587 132.001" fill="#DB9C7C"/>
<path d="M366.696 133C366.696 133 367.102 131.125 366.976 130.305C366.946 130.12 366.954 130.05 366.734 130.003C366.512 129.954 366.144 130.597 365.898 131.164C365.654 131.731 365 132.43 365 132.43C365 132.43 364.978 133.013 366.696 133Z" fill="#EEA886"/>
<path d="M335.7 193.062C335.7 193.062 337.761 195.953 338.48 196.567C338.48 196.567 339.919 197.283 339.964 197.854C340.047 198.937 340.148 199.946 338.256 199.996C336.364 200.047 335.139 199.619 334.794 198.52C334.447 197.421 333.621 196.475 333.621 196.475V198.775H333.195C333.195 198.775 333.088 196.552 333.062 196.142C333.035 195.734 332.755 194.161 333.655 193.464C334.554 192.768 335.7 193.062 335.7 193.062" fill="#162D40"/>
<path d="M339 196.87C339 196.87 337.84 197.173 336.463 196.853C335.084 196.532 333.76 193.484 333.358 193.23L333 192H335.688C335.688 192 335.711 192.909 336.144 193.688C336.579 194.468 339 196.87 339 196.87Z" fill="#EEA886"/>
<path d="M349.513 191.643C349.513 191.643 349.855 192.421 350.5 193.232C350.972 193.827 352.442 196.267 353.09 196.437C353.737 196.607 355.739 196.948 355.915 198.025C356.091 199.103 356.18 199.868 354.209 199.953C352.237 200.039 350.941 200.153 349.999 198.82C349.058 197.486 347.557 196.522 347.557 196.522V200H346.791C346.791 200 346.439 196.379 346.232 196.125C346.027 195.87 345.497 193.09 347.321 191.643C349.146 190.196 349.513 191.643 349.513 191.643" fill="#162D40"/>
<path d="M353 195.824C353 195.824 351.286 196.22 350.629 195.824C349.972 195.428 347.738 191.934 347 191.725C347 191.725 347.717 190.378 349.529 191.356C349.529 191.356 352.514 195.242 353 195.824Z" fill="#EEA886"/>
<path d="M334.918 140.978C334.918 140.978 332.622 144.009 331.999 147.603C331.377 151.197 332.367 163.259 332.34 165.035C332.313 166.813 330.718 172.479 331.044 175.825C331.369 179.171 333.152 193 333.152 193L337.13 192.928C337.13 192.928 336.332 177.856 336.535 176.451C336.739 175.048 337.387 169.071 337.469 168.493C337.549 167.914 342 152.62 342 150.029C342 147.437 340.453 136.751 334.918 140.978Z" fill="#1D3B54"/>
<path d="M346.237 141.769C346.237 141.769 350.172 156.59 350.64 158.643C351.107 160.696 352.041 163.378 351.999 163.756C351.956 164.133 351.503 170.461 351.503 170.461L350.385 192H346.237C346.237 192 344.906 178.296 344.694 175.53C344.482 172.766 346.223 168.491 345.798 167.317C345.374 166.144 338.959 152.608 338.959 152.608C338.959 152.608 334.105 137.468 346.237 141.769" fill="#1D3B54"/>
<path d="M345.586 120C345.586 120 347.97 120.285 348.978 121.676C349.985 123.069 350.317 125.197 350.54 125.901C350.764 126.606 353.855 133.244 354.058 133.41C354.261 133.576 357.083 133.466 358.778 133.515C361.161 133.581 364 133.523 364 133.523L363.653 136.962C363.653 136.962 352.322 137.231 351.54 136.334C349.811 134.352 345.908 127.45 345.908 127.45C345.908 127.45 341.838 121.855 345.586 120" fill="#285173"/>
<path d="M342.31 119.104C342.31 119.104 344.295 120.048 344.985 120.189C345.674 120.328 348.347 123.827 348.816 125.105C349.286 126.383 348.816 128.299 347.852 130.549C346.886 132.799 347.796 133.55 347.356 135.8C346.913 138.051 346.527 142.815 346.611 144.065C346.694 145.315 335.461 145.55 332.896 143.273C332.896 143.273 335.474 139.385 335.803 138.828C336.135 138.273 335.86 135.245 335.555 134.467C335.252 133.689 332.079 127.431 332.079 127.431C332.079 127.431 331.583 121.995 333.074 120.826C334.37 119.813 337.902 119.451 338.536 119.228C339.17 119.007 341.014 118.91 342.31 119.104" fill="#EDDAD3"/>
<path d="M343.092 123L345 121.623L343.343 118C343.343 118 342.785 120.017 343.092 123" fill="#D6C5BE"/>
<path d="M344 116.71C344 116.71 343.579 120.343 343.668 121.525C343.668 121.525 341.483 123.587 339 119.117C339 119.117 340.045 117.277 339.258 114.767C338.471 112.258 344 116.71 344 116.71Z" fill="#EEA886"/>
<path d="M343 121V123L341 121.12L343 121Z" fill="#EEA886"/>
<path d="M343 123L342.084 121.922L338.998 119L338 119.914L343 123Z" fill="#D6C5BE"/>
<path d="M339.103 145.148C338.208 149.59 331.737 144.647 331.737 144.647C331.737 144.647 335.936 137.335 334.267 131.491C334.254 131.444 334.241 131.399 334.227 131.353C334.121 130.982 334.014 130.631 333.908 130.297C332.377 125.464 331 124.335 331 124.335C331 124.335 332.945 119.898 334.75 119.61C336.555 119.321 338.196 119 338.196 119C338.196 119 340.863 123.197 340.99 125.044C341.117 126.89 339.998 140.707 339.103 145.148" fill="#285173"/>
<path d="M350 124.844C350 124.844 349.507 129.081 348.566 131.184C348.566 131.184 348.171 135.668 348.233 137.245C348.292 138.822 348.703 144.786 348.703 144.786L346.573 145.924C346.144 146.152 345.612 145.836 345.672 145.384C346.275 140.845 348.238 123.627 344 119L345.7 119.457C345.7 119.457 349.202 122.436 350 124.844" fill="#285173"/>
<path d="M344.224 121.594L346 122L343 118L344.224 121.594Z" fill="#FAE6DE"/>
<path d="M342 122.226L340.685 124L338 119.39L338.857 119L342 122.226" fill="#FAE6DE"/>
<path d="M349.071 132C349.071 132 350.627 129.07 349.712 127C349.712 127 349.836 128.827 348 131.237L349.071 132" fill="#1D3B54"/>
<path d="M342.524 105.018C343.948 104.884 347.144 105.44 347.811 109.118C347.811 109.118 347.745 110.121 347.535 110.916C347.326 111.712 348.155 113.989 347.974 114.112C347.792 114.234 347.025 114.416 347.025 114.416C347.025 114.416 346.315 116.98 345.408 116.999C344.503 117.019 341.041 116.486 339.276 113.42C337.509 110.354 336.778 105.558 342.524 105.018" fill="#EEA886"/>
<path d="M347.99 109.078C347.99 109.078 345.565 110.87 343.095 111.325C340.624 111.778 339.284 116 339.284 116C339.284 116 335.139 109.879 338.017 105.975C340.887 102.082 348.306 104.381 347.99 109.078Z" fill="#754836"/>
<path d="M341.889 110.778C341.847 110.296 341.178 109.596 340.29 110.295C339.401 110.991 340.772 113.237 341.519 112.98C342.264 112.724 341.933 111.277 341.889 110.778Z" fill="#EEA886"/>
<path d="M344 116.859C343.932 117.193 343.863 117.585 343.806 118C341.309 116.681 340 115 340 115C341.445 116.099 344 116.859 344 116.859Z" fill="#A77860"/>
<path d="M345 136.559L336.951 151L328 145.649L335.701 131L345 136.559" fill="#E8734D"/>
<path d="M341.543 146C341.543 146 341.193 146.002 341.038 145.913C341.038 145.913 340.768 145.725 340.57 145.604C340.507 145.566 340.451 145.535 340.413 145.519C340.255 145.454 339.893 145.367 339.551 145.082C339.21 144.798 338 143.115 338 143.115L338.572 142.07L338.99 141C338.99 141 341.531 141.199 341.876 141.419C341.909 141.441 341.942 141.465 341.971 141.488C342.246 141.709 342.374 142.012 342.508 142.15C342.557 142.198 343.015 142.737 343 142.967C342.977 143.285 342.855 143.496 342.694 143.601C342.694 143.601 342.63 144.221 342.374 144.512C342.374 144.512 342.329 145.087 341.927 145.338C341.927 145.338 341.826 145.917 341.543 146" fill="#EEA886"/>
<path d="M336.039 119.015C336.039 119.015 333.352 118.656 331.941 121.5C330.53 124.344 330.536 125.557 330.348 126.947C330.17 128.258 329.367 131.838 329.285 132.207C329.204 132.578 327.385 136.986 328.218 138.528C329.057 140.077 337.578 144.636 337.524 144.978C337.469 145.319 339 141.53 339 141.53C339 141.53 335.552 139.516 334.987 138.896C334.07 137.888 332.135 136.801 332.533 135.552C333 134.084 334.403 129.13 334.728 128.403C335.053 127.679 338.115 119.938 336.039 119.015" fill="#285173"/>
<path d="M336 126C335.882 128.323 334.391 131 334.391 131C334.261 130.672 334.13 130.361 334 130.066C334.838 128.311 336 126 336 126" fill="#1D3B54"/>
<path d="M364.887 52.1731C364.887 52.1731 365.92 52.5784 366.413 52.0509C366.788 51.6488 367.443 50.9079 367.545 50.6929C367.64 50.4934 368.201 49.7076 368.31 50.116C368.419 50.5243 367.781 52.3386 367.495 52.5598C367.21 52.781 368.738 53.1445 368.962 53.4415C369.185 53.7369 368.397 56.3401 367.378 55.9627C366.361 55.5868 365.616 54.5211 365.441 54.4345C365.148 54.2875 364 53.8034 364 53.8034L364.887 52.1731" fill="#EEA886"/>
<path d="M368.388 53C368.388 53 371.586 54.5825 371.717 54.8937C371.849 55.203 371.758 55.3979 371.454 55.2638C371.148 55.1297 368.322 53.8369 368.322 53.8369C368.322 53.8369 371.815 56.4422 371.973 56.6676C372.064 56.7999 371.91 57.1879 371.741 57.1343C371.572 57.0788 367.974 54.7274 367.974 54.7274C367.974 54.7274 371.232 57.1647 371.312 57.4007C371.383 57.6064 371.163 57.9229 370.91 57.7619C370.657 57.5992 367.517 55.5338 367.517 55.5338C367.517 55.5338 369.744 57.474 369.75 57.7297C369.757 57.9515 369.609 58.2215 369.037 57.6975C368.465 57.1736 367 56.1025 367 56.1025L368.388 53Z" fill="#EEA886"/>
<path d="M343.42 38.2408C343.698 38.5952 346.105 41.6721 347.873 43.7798V43.7861C348.124 44.0872 348.366 44.3616 348.582 44.6078C348.997 45.0909 349.337 45.4578 349.545 45.6382C350.622 46.5823 351.779 48.1536 353.333 49.2906C354.492 50.1406 364.759 54 364.897 54C364.98 53.9733 366 51.7731 366 51.7731C366 51.7731 357.059 46.9429 356.143 46.576C354.72 46.0004 354.186 45.1238 353.687 44.6549C353.188 44.1938 346.826 35.545 346.507 35.0557C346.507 35.0557 344.614 31.7389 342.753 33.5314C340.888 35.3239 343.025 37.7327 343.42 38.2408" fill="#EDDAD3"/>
<path d="M348 38V44.0733C348.201 44.4128 348.395 44.7223 348.569 45C348.569 45 349.325 43.2438 348.835 41.1693C348.351 39.0947 348 38 348 38" fill="#C2B2AD"/>
<path d="M357.426 86.6328C357.426 86.6328 359.495 89.9516 360.368 90.4933C361.553 91.2283 360.81 91.973 360.248 91.973C359.684 91.9746 356.808 92.1695 356.175 91.4888C355.542 90.8081 355.228 88.7692 354.639 88.2355C354.049 87.7034 353.441 85.5829 354.926 85.0668C356.238 84.6114 357.426 86.6328 357.426 86.6328" fill="#E55353"/>
<path d="M356.493 85.1061C356.493 85.1061 358.568 88.9577 358.926 89.5263C359.284 90.0948 358.253 90.0948 357.614 89.824C356.975 89.5548 355.367 86.7912 355.136 86.2891C354.861 85.6889 355.088 85 355.088 85L356.493 85.1061Z" fill="#EEA886"/>
<path d="M354 88L354.655 91.9872L355 92L354.893 89.1323L354 88Z" fill="#E55353"/>
<path d="M337.941 86.6232C337.941 86.6232 339.711 89.9479 340.459 90.4906C341.474 91.2269 340.838 91.9729 340.356 91.9729C339.873 91.9745 337.413 92.1698 336.871 91.4879C336.327 90.806 336.058 88.7634 335.554 88.2287C335.049 87.6957 334.511 85.517 335.799 85.0544C336.93 84.651 337.941 86.6232 337.941 86.6232" fill="#E55353"/>
<path d="M337.003 85.114C337.003 85.114 339.461 88.9577 339.908 89.5263C340.356 90.0948 339.067 90.0948 338.268 89.824C337.469 89.5548 335.461 86.7912 335.17 86.2891C334.827 85.6889 335.109 85 335.109 85L337.003 85.114Z" fill="#EEA886"/>
<path d="M329 56.781L347.2 64.9072C347.2 64.9072 349.232 65.5555 349.46 67.766C350.171 74.6646 355.438 85.6094 355.438 85.6094C357.127 86.4202 356.998 85.7172 356.998 85.7172C355.934 82.3676 354.637 68.5624 354.174 63.012C354.077 61.8359 354.016 61.0315 354.003 60.7741C353.993 60.5987 353.798 60.3687 353.461 60.1016C350.964 58.1163 340.687 54.009 340.687 54.009C332.97 53.816 329 56.781 329 56.781" fill="#EEA886"/>
<path d="M327.064 59.305C327.639 64.2166 332.968 64.3674 332.968 64.3674H341.662C341.662 64.3674 339.378 69.3347 338.498 73.5233C337.562 77.971 335.355 85.8367 335.355 85.8367C335.355 85.8367 335.499 86.1039 337.072 85.9547C337.072 85.9547 343.896 72.6594 346.509 69.3167C347.071 68.597 348.681 64.6937 348.959 62.3641C349.053 61.5805 348.994 60.9756 348.696 60.7297C348.394 60.4821 347.701 60.0182 346.775 59.4477C344.054 57.7689 339.324 55.1853 336.688 54.605C333.16 53.8312 330.003 53 330.003 53C330.003 53 326.488 54.3918 327.064 59.305Z" fill="#EEA886"/>
<path d="M340.951 63.9933H333.392C333.392 63.9933 327.633 64.3555 327.075 59.7387C326.516 55.1219 329.271 53 329.271 53C329.271 53 331.838 53.6503 335.049 54.3853C336.658 54.0617 338.597 53.8506 340.86 53.9046C340.86 53.9046 350.451 55.7337 354 60.2118C354 60.2118 348.368 57.5228 340.951 63.9933" fill="#E55353"/>
<path d="M345.086 30.344C345.137 30.8968 345.207 31.4495 345.278 31.9824C345.299 32.149 345.328 32.3124 345.365 32.4741C345.584 33.4327 346.063 34.3187 346.704 34.9622H346.706C347.615 35.8729 348.856 36.3003 350.16 35.7657C352.544 34.7906 353 26.3347 353 26.3347C351.86 23.2262 347.649 23.6734 346.138 25.0775C344.946 26.1846 344.891 28.2701 345.086 30.344" fill="#EEA886"/>
<path d="M346.156 34.8015C346.156 34.8015 347.426 37.3477 347.63 39.7154C347.746 41.0641 348.525 42.6394 347.397 43.9832C346.27 45.3286 344.827 45.1598 344.544 45.798C344.263 46.4361 343.516 47.5115 343.086 47.8652C342.654 48.2172 342.14 51.4658 341.991 51.805C341.842 52.1458 342.799 53.922 335.746 53.9976C328.693 54.0731 329.002 52.3628 329.002 52.3628C329.002 52.3628 330.893 50.2795 333.08 46.3542C333.753 45.1422 335.384 36.9844 336.204 35.8511C337.025 34.7163 341.517 28.4553 346.156 34.8015" fill="#EDDAD3"/>
<path d="M342 32.4387C342 32.4387 343.504 39.4187 345.178 39.9671C346.9 40.5307 345.382 33.6725 345.382 33.6725C345.382 33.6725 343.658 30.9662 342 32.4387Z" fill="#EEA886"/>
<path d="M351.835 27.3922C351.835 27.3922 353.073 29.9308 353.083 31C353.083 31 353.957 29.4085 353.975 28.0659C353.992 26.7294 354.315 24.5276 352.063 23.205C349.813 21.8824 351.835 27.3922 351.835 27.3922Z" fill="#754836"/>
<path d="M351.247 56.18C351.247 56.18 352.172 56.7813 352.829 57.1514C353.339 57.4371 354.432 58.5637 354.603 59.1088C354.774 59.6523 354.851 62.5018 354.976 62.7776C355.101 63.0535 354.712 63.1179 354.462 62.7082C354.462 62.7082 353.801 63.3657 353.238 62.4324C352.675 61.4991 352.558 60.3262 352.243 59.8852C351.928 59.4425 350 57.001 350 57.001C350 57.001 350.786 55.4912 351.247 56.18" fill="#EEA886"/>
<path d="M354.57 59.0011C354.57 59.0011 355.12 59.5939 355.239 59.7885C355.357 59.9817 355.861 60.7333 355.984 60.9132C356.108 61.0919 355.514 61.0839 354.444 60.0042C353.376 58.9257 354.57 59.0011 354.57 59.0011Z" fill="#EEA886"/>
<path d="M352 56.2187L350.73 58L347 56.8666L348.672 55L352 56.2187" fill="#F5E1DA"/>
<path d="M340.259 39.1828C340.259 39.1828 340.651 35.6112 338.167 36.0349C335.685 36.4603 336.002 39.4584 336.025 40.0574C336.05 40.6563 336.339 47.7263 336.652 49.0246C336.965 50.3229 337.384 52.8718 338.559 53.5966C339.736 54.3198 350.826 57.9759 350.905 57.9997C350.983 58.0252 352 56.0961 352 56.0961C352 56.0961 344.44 52.6471 343.552 52.3222C342.663 51.9972 340.598 51.0477 340.468 50.4233C340.338 49.7988 340.236 39.7324 340.259 39.1828" fill="#F5E1DA"/>
<path d="M344.021 34.1473C344.299 35.7948 346.392 36.464 346.41 35.6603C346.413 35.569 346.603 35.3257 346.746 35.1447C346.803 35.0743 346.852 35.0119 346.881 34.9766C346.989 34.8277 347.146 34.682 347.327 34.5412C348.001 34.0208 349 33.595 349 33.595L346.243 29C346.243 29 345.935 29.4307 345.549 30.0599C344.832 31.2254 343.842 33.0762 344.021 34.1473" fill="#EEA886"/>
<path d="M351.506 27.4668C351.506 27.4668 350.645 29.5976 348.759 29.3907C346.875 29.1823 345.612 29.8246 345.506 30.5874C345.399 31.3517 344.453 35.493 342.79 35.5995C341.125 35.7061 339.557 33.4857 338.706 34.0848C337.853 34.6823 337.253 37.4725 335.938 36.9306C334.622 36.3886 334.48 33.918 336.891 32.4974C339.303 31.0753 341.135 30.8159 341.674 29.3351C342.212 27.8543 343.501 23.8412 345.172 22.8453C346.411 22.1072 347.92 21.4726 350.641 22.6615C353.362 23.8505 352.982 26.4894 352.982 26.4894L351.506 27.4668" fill="#754836"/>
<path d="M346.612 35C346.65 34.93 346.683 34.8679 346.702 34.8329C346.774 34.6849 346.879 34.54 347 34.4C347 34.4 346.226 33.3432 346.016 32C346.016 32 345.845 33.087 346.612 35Z" fill="#A77860"/>
<path d="M450 194.292C450 194.292 450.304 196.548 450.343 196.888C450.381 197.227 453.73 196.688 453.73 196.688L454 194.001C454 194.001 450.42 193.974 450 194.292Z" fill="#5C544D"/>
<path d="M427 194.292C427 194.292 427.304 196.548 427.343 196.888C427.38 197.227 430.728 196.688 430.728 196.688L431 194.001C431 194.001 427.42 193.974 427 194.292Z" fill="#5C544D"/>
<path d="M448.66 142C448.66 142 450.326 147.022 450.106 151.348C449.887 155.678 450.967 160.413 451.409 164.933C451.903 169.973 453.918 181.905 453.991 184.6C454.064 187.296 453.678 195.905 453.678 195.905L449.643 196C449.643 196 446.255 175.14 445.377 173.013C444.499 170.883 440.148 155.71 440.002 154.008C439.856 152.306 448.66 142 448.66 142" fill="#33373B"/>
<path d="M431.929 142.484C431.929 142.484 429.698 154.437 429.404 157.107C429.11 159.775 428.913 170.022 428.766 171.692C428.619 173.36 427.785 193.521 427 196H432.192C432.192 196 436.176 181.343 436.176 174.408C436.176 167.474 439.255 159.332 441.242 154.757C443.23 150.181 447.779 150.072 449 141.584C449 141.584 433.584 139.793 431.929 142.484" fill="#3C4145"/>
<path d="M442.4 102.391C442.4 102.391 438.246 100.795 436.33 104.049C434.413 107.304 434.598 113.817 436.693 114.618C438.786 115.42 441.933 115.001 443.006 112.965C444.077 110.928 445.045 107.985 444.998 106.018C444.951 104.051 443.491 102.959 442.4 102.391Z" fill="#E4C1B0"/>
<path d="M437.128 113.825C437.128 113.825 437.305 114.913 437.011 115.45C436.716 115.987 442.555 116 442.555 116C442.555 116 443.028 113.084 443.927 110.62C444.826 108.157 437.128 113.825 437.128 113.825Z" fill="#DBB19C"/>
<path d="M443.584 110.594C443.584 110.594 443.237 111.173 441.824 110.948C440.411 110.723 438.686 108.818 438.095 108.61C437.505 108.4 437.499 108.049 437.499 108.049L437.131 108.596L436.503 108.635C436.503 108.635 437.074 106.931 436.212 106.237C435.351 105.542 437.107 100.72 441.641 102.325C441.641 102.325 445.124 103.298 444.997 105.303C444.871 107.31 444.363 109.595 443.584 110.594" fill="#866D57"/>
<path d="M437 115.83C437 115.83 437.016 114.587 437.468 114.467C437.919 114.347 442.447 113.803 443 114.075V115.525C443 115.525 441.933 116.346 437 115.83" fill="#E2D2CA"/>
<path d="M437.156 107.529C437.265 107.286 438.445 106.59 438.897 107.335C439.347 108.079 438.213 109.08 437.581 108.995C436.949 108.909 436.875 108.145 437.156 107.529Z" fill="#E4C1B0"/>
<path d="M436.907 115.252C436.907 115.252 434.408 116.175 431.515 117.436C431.515 117.436 428.184 118.712 427.824 122.485C427.632 124.488 425.554 135.116 425.164 136.016C424.776 136.916 420.167 151.364 420.005 151.663C419.843 151.963 423.765 153.634 424.025 153.501C424.286 153.367 428.487 140.323 428.909 139.358C428.909 139.358 431.328 131.536 431.393 130.37C431.393 130.37 431.462 133.694 431.592 134.626C431.722 135.559 429.442 153.67 429.507 154.17C429.572 154.669 439.871 155.304 443.995 154.837C448.117 154.371 451.445 153.398 451.445 153.398C451.445 153.398 448.2 139.105 448.3 137.52C448.517 134.068 449.641 127.564 449.641 127.564L453.002 134.068L448.699 145.427L449.684 148.879C449.684 148.879 457.681 136.48 457.941 135.349C458.2 134.216 457.548 132.773 457.126 131.84C456.704 130.907 453.933 123.808 453.283 122.809C452.634 121.81 451.537 117.807 448.885 116.694C446.668 115.763 442.947 115 442.947 115L436.907 115.252" fill="#495054"/>
<path d="M431.509 158L412 153.162L415.489 140L435 144.838L431.509 158" fill="#D6D6D6"/>
<path d="M417.828 155C417.828 155 417.249 155.622 417.038 155.8C416.826 155.977 417.557 156.088 417.871 155.909C418.185 155.73 417.828 155 417.828 155Z" fill="#C98462"/>
<path d="M422.444 157.926C422.444 157.926 422.802 157.552 422.878 157.312C422.878 157.312 422.983 156.864 423.077 156.549C423.109 156.451 423.138 156.365 423.161 156.311C423.262 156.087 423.552 155.626 423.644 155.019C423.737 154.414 424 151.693 424 151.693L422.364 151.279L421.051 151C421.051 151 418.213 153.85 418.061 154.405C418.046 154.46 418.034 154.514 418.027 154.566C417.943 155.047 418.084 155.441 418.068 155.699C418.062 155.794 418.077 156.739 418.295 156.916C418.599 157.163 418.909 157.21 419.163 157.127C419.163 157.127 419.778 157.582 420.292 157.555C420.292 157.555 420.844 157.994 421.474 157.775C421.474 157.775 422.085 158.157 422.444 157.926" fill="#DE9D7D"/>
<path d="M428 141.565C428 141.565 424.647 151.914 424.032 153C424.032 153 421.573 152.473 420 151.169L423.68 140L428 141.565" fill="#495054"/>
<path d="M207 71.5254L205.255 77.5293H172L173.745 71.5254H207ZM191.399 112L172.616 88.8125L172.513 84.4648H181.853C184.283 84.4648 186.352 84.1198 188.063 83.4297C189.774 82.7223 191.082 81.6699 191.989 80.2725C192.896 78.8577 193.349 77.0807 193.349 74.9414C193.349 71.7842 192.408 69.3084 190.526 67.5142C188.645 65.7026 185.754 64.7969 181.853 64.7969H172L173.745 59H181.853C186.027 59 189.449 59.6987 192.117 61.0962C194.803 62.4764 196.787 64.3742 198.07 66.7896C199.37 69.1877 200.021 71.9049 200.021 74.9414C200.021 77.6846 199.422 80.2121 198.224 82.5239C197.044 84.8185 195.145 86.6646 192.528 88.062C189.928 89.4595 186.489 90.1582 182.213 90.1582H182.059L199.405 111.586V112H191.399ZM207 59L205.255 65.0039L179.082 64.7969L180.827 59H207Z" fill="#FFC155"/>
<path d="M759.971 45.7412C759.971 45.7412 757.166 46.8337 752.009 52.0837C746.872 57.3144 745.795 60.1758 745.787 60.1967C745.662 62.6892 745.584 65.6042 745.584 69.0003C745.584 79.1334 746.276 84.9824 746.858 88.1111C747.232 90.1211 748.772 91.4987 750.77 91.7181C753.466 92.0143 758.224 92.3337 766.209 92.3337C774.194 92.3337 778.952 92.0143 781.648 91.7181C783.646 91.4987 785.186 90.1211 785.56 88.1111C786.142 84.9824 786.834 79.1334 786.834 69.0003C786.834 58.8672 786.142 53.0183 785.56 49.8896C785.186 47.8796 783.646 46.502 781.648 46.2825C778.952 45.9863 774.194 45.667 766.209 45.667C763.86 45.667 761.791 45.6947 759.971 45.7412Z" fill="url(#paint2_linear_2945_63656)"/>
<path d="M745.785 60.1977C749.085 61.0426 752.98 61.0987 756.345 60.0522C757.768 59.6097 758.877 58.4814 759.357 57.0481C760.553 53.4772 760.848 49.1065 759.969 45.7422C759.969 45.7422 757.164 46.8347 752.008 52.0847C746.851 57.3347 745.785 60.1977 745.785 60.1977Z" fill="#2088CE"/>
<rect x="751.834" y="77" width="16.6667" height="1.67164" rx="0.835821" fill="white"/>
<rect x="751.834" y="80.3438" width="20.8333" height="1.67164" rx="0.835821" fill="white"/>
<rect x="751.834" y="83.6865" width="15" height="1.67164" rx="0.835821" fill="white"/>
<path d="M817.455 57.3691H825.453V68.1211C824.33 68.4922 823.168 68.7803 821.967 68.9854C820.766 69.1904 819.418 69.293 817.924 69.293C815.746 69.293 813.9 68.8633 812.387 68.0039C810.883 67.1348 809.74 65.8799 808.959 64.2393C808.178 62.5889 807.787 60.6016 807.787 58.2773C807.787 56.041 808.222 54.1025 809.091 52.4619C809.96 50.8115 811.225 49.5371 812.885 48.6387C814.545 47.7305 816.557 47.2764 818.92 47.2764C820.082 47.2764 821.205 47.3936 822.289 47.6279C823.383 47.8525 824.384 48.165 825.292 48.5654L824.062 51.4658C823.339 51.124 822.528 50.8359 821.63 50.6016C820.731 50.3672 819.799 50.25 818.832 50.25C817.299 50.25 815.976 50.582 814.862 51.2461C813.759 51.9102 812.909 52.8477 812.313 54.0586C811.718 55.2598 811.42 56.6807 811.42 58.3213C811.42 59.9131 811.659 61.3096 812.138 62.5107C812.616 63.7119 813.363 64.6494 814.379 65.3232C815.404 65.9873 816.728 66.3193 818.349 66.3193C819.159 66.3193 819.848 66.2754 820.414 66.1875C820.98 66.0996 821.503 66.002 821.981 65.8945V60.3721H817.455V57.3691ZM844.584 60.8555C844.584 62.2031 844.408 63.3994 844.057 64.4443C843.705 65.4893 843.192 66.373 842.519 67.0957C841.845 67.8086 841.034 68.3555 840.087 68.7363C839.14 69.1074 838.07 69.293 836.879 69.293C835.766 69.293 834.745 69.1074 833.817 68.7363C832.89 68.3555 832.084 67.8086 831.4 67.0957C830.727 66.373 830.204 65.4893 829.833 64.4443C829.462 63.3994 829.276 62.2031 829.276 60.8555C829.276 59.0684 829.584 57.5547 830.199 56.3145C830.824 55.0645 831.713 54.1123 832.865 53.458C834.018 52.8037 835.39 52.4766 836.981 52.4766C838.476 52.4766 839.794 52.8037 840.937 53.458C842.079 54.1123 842.973 55.0645 843.617 56.3145C844.262 57.5645 844.584 59.0781 844.584 60.8555ZM832.821 60.8555C832.821 62.0371 832.963 63.0479 833.246 63.8877C833.539 64.7275 833.988 65.3721 834.594 65.8213C835.199 66.2607 835.98 66.4805 836.938 66.4805C837.895 66.4805 838.676 66.2607 839.281 65.8213C839.887 65.3721 840.331 64.7275 840.614 63.8877C840.897 63.0479 841.039 62.0371 841.039 60.8555C841.039 59.6738 840.897 58.6729 840.614 57.8525C840.331 57.0225 839.887 56.3926 839.281 55.9629C838.676 55.5234 837.89 55.3037 836.923 55.3037C835.497 55.3037 834.457 55.7822 833.803 56.7393C833.148 57.6963 832.821 59.0684 832.821 60.8555ZM848.891 47.584H855.263C858.026 47.584 860.111 47.9844 861.518 48.7852C862.924 49.5859 863.627 50.9678 863.627 52.9307C863.627 53.751 863.48 54.4932 863.188 55.1572C862.904 55.8115 862.489 56.3535 861.942 56.7832C861.396 57.2031 860.722 57.4863 859.921 57.6328V57.7793C860.751 57.9258 861.488 58.1846 862.133 58.5557C862.787 58.9268 863.3 59.459 863.671 60.1523C864.052 60.8457 864.242 61.7441 864.242 62.8477C864.242 64.1562 863.93 65.2695 863.305 66.1875C862.689 67.1055 861.806 67.8037 860.653 68.2822C859.511 68.7607 858.153 69 856.581 69H848.891V47.584ZM852.406 56.417H855.775C857.367 56.417 858.471 56.1582 859.086 55.6406C859.701 55.123 860.009 54.3662 860.009 53.3701C860.009 52.3545 859.643 51.6221 858.91 51.1729C858.188 50.7236 857.035 50.499 855.453 50.499H852.406V56.417ZM852.406 59.2588V66.0557H856.112C857.753 66.0557 858.905 65.7383 859.569 65.1035C860.233 64.4688 860.565 63.6094 860.565 62.5254C860.565 61.8613 860.414 61.2852 860.111 60.7969C859.818 60.3086 859.335 59.9326 858.661 59.6689C857.987 59.3955 857.079 59.2588 855.937 59.2588H852.406ZM871.757 52.7842V69H868.314V52.7842H871.757ZM870.058 46.5732C870.585 46.5732 871.039 46.7148 871.42 46.998C871.811 47.2812 872.006 47.7695 872.006 48.4629C872.006 49.1465 871.811 49.6348 871.42 49.9277C871.039 50.2109 870.585 50.3525 870.058 50.3525C869.511 50.3525 869.047 50.2109 868.666 49.9277C868.295 49.6348 868.109 49.1465 868.109 48.4629C868.109 47.7695 868.295 47.2812 868.666 46.998C869.047 46.7148 869.511 46.5732 870.058 46.5732ZM887.548 69H875.229V66.876L883.417 55.4355H875.727V52.7842H887.313V55.1279L879.286 66.3486H887.548V69ZM898.827 69H895.297V50.5723H889.027V47.584H905.082V50.5723H898.827V69ZM914.472 52.4766C915.917 52.4766 917.157 52.7744 918.192 53.3701C919.228 53.9658 920.023 54.8105 920.58 55.9043C921.137 56.998 921.415 58.3066 921.415 59.8301V61.6758H910.59C910.629 63.248 911.049 64.459 911.85 65.3086C912.66 66.1582 913.793 66.583 915.248 66.583C916.283 66.583 917.211 66.4854 918.031 66.29C918.861 66.085 919.716 65.7871 920.595 65.3965V68.1943C919.784 68.5752 918.959 68.8535 918.119 69.0293C917.279 69.2051 916.273 69.293 915.102 69.293C913.51 69.293 912.108 68.9854 910.897 68.3701C909.696 67.7451 908.754 66.8174 908.07 65.5869C907.396 64.3564 907.06 62.8281 907.06 61.002C907.06 59.1855 907.367 57.6426 907.982 56.373C908.598 55.1035 909.462 54.1367 910.575 53.4727C911.688 52.8086 912.987 52.4766 914.472 52.4766ZM914.472 55.0693C913.388 55.0693 912.509 55.4209 911.835 56.124C911.171 56.8271 910.78 57.8574 910.663 59.2148H918.046C918.036 58.4043 917.899 57.6865 917.636 57.0615C917.382 56.4365 916.991 55.9482 916.464 55.5967C915.946 55.2451 915.282 55.0693 914.472 55.0693ZM933.749 52.4766C935.575 52.4766 936.996 52.9502 938.012 53.8975C939.037 54.835 939.55 56.3438 939.55 58.4238V69H936.107V59.0684C936.107 57.8086 935.849 56.8662 935.331 56.2412C934.813 55.6064 934.013 55.2891 932.929 55.2891C931.356 55.2891 930.263 55.7725 929.647 56.7393C929.042 57.7061 928.739 59.1074 928.739 60.9434V69H925.297V52.7842H927.978L928.461 54.9814H928.651C929.003 54.415 929.438 53.9512 929.955 53.5898C930.482 53.2188 931.068 52.9404 931.713 52.7549C932.367 52.5693 933.046 52.4766 933.749 52.4766ZM949.818 69.293C947.885 69.293 946.332 68.5898 945.16 67.1836C943.998 65.7676 943.417 63.6826 943.417 60.9287C943.417 58.1455 944.008 56.041 945.189 54.6152C946.381 53.1895 947.948 52.4766 949.892 52.4766C950.712 52.4766 951.43 52.5889 952.045 52.8135C952.66 53.0283 953.188 53.3213 953.627 53.6924C954.076 54.0635 954.457 54.4785 954.77 54.9375H954.931C954.882 54.6348 954.823 54.2002 954.755 53.6338C954.696 53.0576 954.667 52.5254 954.667 52.0371V46.207H958.124V69H955.429L954.813 66.7881H954.667C954.374 67.2568 954.003 67.6816 953.554 68.0625C953.114 68.4336 952.587 68.7314 951.972 68.9561C951.366 69.1807 950.648 69.293 949.818 69.293ZM950.785 66.4951C952.26 66.4951 953.3 66.0703 953.905 65.2207C954.511 64.3711 954.823 63.0967 954.843 61.3975V60.9434C954.843 59.127 954.55 57.7354 953.964 56.7686C953.378 55.792 952.309 55.3037 950.756 55.3037C949.516 55.3037 948.568 55.8066 947.914 56.8125C947.27 57.8086 946.947 59.2002 946.947 60.9873C946.947 62.7744 947.27 64.1416 947.914 65.0889C948.568 66.0264 949.525 66.4951 950.785 66.4951ZM969.521 52.4766C970.966 52.4766 972.206 52.7744 973.241 53.3701C974.276 53.9658 975.072 54.8105 975.629 55.9043C976.186 56.998 976.464 58.3066 976.464 59.8301V61.6758H965.639C965.678 63.248 966.098 64.459 966.898 65.3086C967.709 66.1582 968.842 66.583 970.297 66.583C971.332 66.583 972.26 66.4854 973.08 66.29C973.91 66.085 974.765 65.7871 975.644 65.3965V68.1943C974.833 68.5752 974.008 68.8535 973.168 69.0293C972.328 69.2051 971.322 69.293 970.15 69.293C968.559 69.293 967.157 68.9854 965.946 68.3701C964.745 67.7451 963.803 66.8174 963.119 65.5869C962.445 64.3564 962.108 62.8281 962.108 61.002C962.108 59.1855 962.416 57.6426 963.031 56.373C963.646 55.1035 964.511 54.1367 965.624 53.4727C966.737 52.8086 968.036 52.4766 969.521 52.4766ZM969.521 55.0693C968.437 55.0693 967.558 55.4209 966.884 56.124C966.22 56.8271 965.829 57.8574 965.712 59.2148H973.095C973.085 58.4043 972.948 57.6865 972.685 57.0615C972.431 56.4365 972.04 55.9482 971.513 55.5967C970.995 55.2451 970.331 55.0693 969.521 55.0693ZM988.563 52.4766C988.837 52.4766 989.135 52.4912 989.457 52.5205C989.779 52.5498 990.058 52.5889 990.292 52.6377L989.97 55.8604C989.765 55.8018 989.511 55.7578 989.208 55.7285C988.915 55.6992 988.651 55.6846 988.417 55.6846C987.802 55.6846 987.216 55.7871 986.659 55.9922C986.103 56.1875 985.609 56.4902 985.18 56.9004C984.75 57.3008 984.413 57.8037 984.169 58.4092C983.925 59.0146 983.803 59.7178 983.803 60.5186V69H980.346V52.7842H983.041L983.51 55.6406H983.671C983.993 55.0645 984.394 54.5371 984.872 54.0586C985.351 53.5801 985.897 53.1992 986.513 52.916C987.138 52.623 987.821 52.4766 988.563 52.4766Z" fill="#2088CE"/>
<path d="M813.636 100.246L812.405 97.0742H808.399L807.176 100.246H806L809.91 90.2109H810.956L814.839 100.246H813.636ZM812.057 96.042L810.888 92.8906C810.86 92.8086 810.815 92.6742 810.751 92.4873C810.692 92.3005 810.63 92.1068 810.566 91.9062C810.503 91.7057 810.45 91.5439 810.409 91.4209C810.364 91.6077 810.313 91.7946 810.259 91.9814C810.209 92.1637 810.159 92.3346 810.108 92.4941C810.058 92.6491 810.015 92.7812 809.979 92.8906L808.789 96.042H812.057ZM819.057 100.383C818.382 100.383 817.787 100.244 817.272 99.9658C816.757 99.6878 816.356 99.264 816.069 98.6943C815.782 98.1247 815.639 97.4069 815.639 96.541C815.639 95.6341 815.789 94.8936 816.09 94.3193C816.395 93.7406 816.814 93.3122 817.348 93.0342C817.881 92.7562 818.487 92.6172 819.166 92.6172C819.54 92.6172 819.9 92.6559 820.246 92.7334C820.597 92.8063 820.884 92.8997 821.107 93.0137L820.766 93.9639C820.538 93.8727 820.273 93.7907 819.973 93.7178C819.676 93.6449 819.398 93.6084 819.139 93.6084C818.619 93.6084 818.186 93.7201 817.84 93.9434C817.498 94.1667 817.241 94.4948 817.067 94.9277C816.899 95.3607 816.814 95.8939 816.814 96.5273C816.814 97.1335 816.896 97.6507 817.061 98.0791C817.229 98.5075 817.478 98.8356 817.806 99.0635C818.138 99.2868 818.553 99.3984 819.05 99.3984C819.446 99.3984 819.804 99.3574 820.123 99.2754C820.442 99.1888 820.731 99.0885 820.991 98.9746V99.9863C820.741 100.114 820.46 100.212 820.15 100.28C819.845 100.349 819.48 100.383 819.057 100.383ZM825.77 100.383C825.095 100.383 824.5 100.244 823.985 99.9658C823.47 99.6878 823.069 99.264 822.782 98.6943C822.495 98.1247 822.352 97.4069 822.352 96.541C822.352 95.6341 822.502 94.8936 822.803 94.3193C823.108 93.7406 823.527 93.3122 824.061 93.0342C824.594 92.7562 825.2 92.6172 825.879 92.6172C826.253 92.6172 826.613 92.6559 826.959 92.7334C827.31 92.8063 827.597 92.8997 827.82 93.0137L827.479 93.9639C827.251 93.8727 826.986 93.7907 826.686 93.7178C826.389 93.6449 826.111 93.6084 825.852 93.6084C825.332 93.6084 824.899 93.7201 824.553 93.9434C824.211 94.1667 823.953 94.4948 823.78 94.9277C823.612 95.3607 823.527 95.8939 823.527 96.5273C823.527 97.1335 823.609 97.6507 823.773 98.0791C823.942 98.5075 824.19 98.8356 824.519 99.0635C824.851 99.2868 825.266 99.3984 825.763 99.3984C826.159 99.3984 826.517 99.3574 826.836 99.2754C827.155 99.1888 827.444 99.0885 827.704 98.9746V99.9863C827.453 100.114 827.173 100.212 826.863 100.28C826.558 100.349 826.193 100.383 825.77 100.383ZM832.366 92.6172C833.004 92.6172 833.551 92.7585 834.007 93.041C834.463 93.3236 834.811 93.7201 835.053 94.2305C835.294 94.7363 835.415 95.3288 835.415 96.0078V96.7119H830.24C830.254 97.5915 830.473 98.2614 830.896 98.7217C831.32 99.182 831.917 99.4121 832.688 99.4121C833.161 99.4121 833.581 99.3688 833.945 99.2822C834.31 99.1956 834.688 99.068 835.08 98.8994V99.8975C834.702 100.066 834.326 100.189 833.952 100.267C833.583 100.344 833.146 100.383 832.64 100.383C831.92 100.383 831.291 100.237 830.753 99.9453C830.22 99.6491 829.805 99.2161 829.509 98.6465C829.213 98.0768 829.064 97.3796 829.064 96.5547C829.064 95.748 829.199 95.0508 829.468 94.4629C829.741 93.8704 830.124 93.4147 830.616 93.0957C831.113 92.7767 831.696 92.6172 832.366 92.6172ZM832.353 93.5469C831.746 93.5469 831.263 93.7451 830.903 94.1416C830.543 94.5381 830.329 95.0918 830.261 95.8027H834.226C834.221 95.3561 834.15 94.9642 834.014 94.627C833.882 94.2852 833.679 94.0208 833.405 93.834C833.132 93.6426 832.781 93.5469 832.353 93.5469ZM842.189 98.1953C842.189 98.6738 842.069 99.0771 841.827 99.4053C841.59 99.7288 841.248 99.9727 840.802 100.137C840.36 100.301 839.831 100.383 839.216 100.383C838.692 100.383 838.238 100.342 837.855 100.26C837.473 100.178 837.138 100.062 836.851 99.9111V98.8652C837.156 99.0156 837.521 99.1523 837.944 99.2754C838.368 99.3984 838.801 99.46 839.243 99.46C839.89 99.46 840.36 99.3551 840.651 99.1455C840.943 98.9359 841.089 98.651 841.089 98.291C841.089 98.0859 841.03 97.9059 840.911 97.751C840.797 97.5915 840.604 97.4388 840.33 97.293C840.057 97.1426 839.678 96.9785 839.195 96.8008C838.717 96.6185 838.302 96.4385 837.951 96.2607C837.605 96.0785 837.336 95.8574 837.145 95.5977C836.958 95.3379 836.864 95.0007 836.864 94.5859C836.864 93.9525 837.119 93.4671 837.63 93.1299C838.145 92.7881 838.819 92.6172 839.653 92.6172C840.104 92.6172 840.526 92.6628 840.918 92.7539C841.314 92.8405 841.684 92.959 842.025 93.1094L841.643 94.0186C841.333 93.8864 841.002 93.7747 840.651 93.6836C840.3 93.5924 839.943 93.5469 839.578 93.5469C839.054 93.5469 838.651 93.6335 838.368 93.8066C838.09 93.9798 837.951 94.2168 837.951 94.5176C837.951 94.75 838.015 94.9414 838.143 95.0918C838.275 95.2422 838.484 95.3835 838.771 95.5156C839.059 95.6478 839.437 95.8027 839.906 95.9805C840.376 96.1536 840.781 96.3337 841.123 96.5205C841.465 96.7028 841.727 96.9261 841.909 97.1904C842.096 97.4502 842.189 97.7852 842.189 98.1953ZM848.861 98.1953C848.861 98.6738 848.741 99.0771 848.499 99.4053C848.262 99.7288 847.92 99.9727 847.474 100.137C847.032 100.301 846.503 100.383 845.888 100.383C845.364 100.383 844.91 100.342 844.527 100.26C844.145 100.178 843.81 100.062 843.522 99.9111V98.8652C843.828 99.0156 844.192 99.1523 844.616 99.2754C845.04 99.3984 845.473 99.46 845.915 99.46C846.562 99.46 847.032 99.3551 847.323 99.1455C847.615 98.9359 847.761 98.651 847.761 98.291C847.761 98.0859 847.701 97.9059 847.583 97.751C847.469 97.5915 847.275 97.4388 847.002 97.293C846.729 97.1426 846.35 96.9785 845.867 96.8008C845.389 96.6185 844.974 96.4385 844.623 96.2607C844.277 96.0785 844.008 95.8574 843.816 95.5977C843.63 95.3379 843.536 95.0007 843.536 94.5859C843.536 93.9525 843.791 93.4671 844.302 93.1299C844.817 92.7881 845.491 92.6172 846.325 92.6172C846.776 92.6172 847.198 92.6628 847.59 92.7539C847.986 92.8405 848.355 92.959 848.697 93.1094L848.314 94.0186C848.005 93.8864 847.674 93.7747 847.323 93.6836C846.972 93.5924 846.615 93.5469 846.25 93.5469C845.726 93.5469 845.323 93.6335 845.04 93.8066C844.762 93.9798 844.623 94.2168 844.623 94.5176C844.623 94.75 844.687 94.9414 844.814 95.0918C844.947 95.2422 845.156 95.3835 845.443 95.5156C845.73 95.6478 846.109 95.8027 846.578 95.9805C847.048 96.1536 847.453 96.3337 847.795 96.5205C848.137 96.7028 848.399 96.9261 848.581 97.1904C848.768 97.4502 848.861 97.7852 848.861 98.1953ZM857.126 92.6309C858.019 92.6309 858.682 92.8314 859.115 93.2324C859.548 93.6335 859.765 94.2738 859.765 95.1533V100.246H858.938L858.719 99.1387H858.664C858.454 99.4121 858.236 99.6423 858.008 99.8291C857.78 100.011 857.516 100.15 857.215 100.246C856.919 100.337 856.554 100.383 856.121 100.383C855.665 100.383 855.26 100.303 854.904 100.144C854.553 99.984 854.275 99.7425 854.07 99.4189C853.87 99.0954 853.77 98.6852 853.77 98.1885C853.77 97.4411 854.066 96.8669 854.658 96.4658C855.251 96.0648 856.153 95.846 857.365 95.8096L858.657 95.7549V95.2969C858.657 94.6497 858.518 94.1963 858.24 93.9365C857.962 93.6768 857.57 93.5469 857.064 93.5469C856.673 93.5469 856.299 93.6038 855.943 93.7178C855.588 93.8317 855.251 93.9661 854.932 94.1211L854.583 93.2598C854.92 93.0866 855.308 92.9385 855.745 92.8154C856.183 92.6924 856.643 92.6309 857.126 92.6309ZM858.644 96.5547L857.502 96.6025C856.568 96.639 855.909 96.7917 855.526 97.0605C855.144 97.3294 854.952 97.71 854.952 98.2021C854.952 98.6305 855.082 98.9473 855.342 99.1523C855.602 99.3574 855.946 99.46 856.374 99.46C857.039 99.46 857.584 99.2754 858.008 98.9062C858.432 98.5371 858.644 97.9834 858.644 97.2451V96.5547ZM865.65 92.6172C866.539 92.6172 867.211 92.8359 867.667 93.2734C868.123 93.7064 868.351 94.4036 868.351 95.3652V100.246H867.229V95.4404C867.229 94.8161 867.086 94.349 866.799 94.0391C866.516 93.7292 866.081 93.5742 865.493 93.5742C864.664 93.5742 864.08 93.8089 863.743 94.2783C863.406 94.7477 863.237 95.429 863.237 96.3223V100.246H862.103V92.7539H863.019L863.189 93.834H863.251C863.41 93.5697 863.613 93.3486 863.859 93.1709C864.105 92.9886 864.381 92.8519 864.687 92.7607C864.992 92.665 865.313 92.6172 865.65 92.6172ZM873.354 100.383C872.407 100.383 871.655 100.059 871.099 99.4121C870.547 98.765 870.271 97.8034 870.271 96.5273C870.271 95.2376 870.554 94.2646 871.119 93.6084C871.684 92.9476 872.436 92.6172 873.375 92.6172C873.771 92.6172 874.118 92.6696 874.414 92.7744C874.71 92.8792 874.965 93.0205 875.18 93.1982C875.394 93.3714 875.574 93.5697 875.72 93.793H875.802C875.784 93.6517 875.765 93.458 875.747 93.2119C875.729 92.9658 875.72 92.7653 875.72 92.6104V89.6094H876.854V100.246H875.938L875.768 99.1797H875.72C875.578 99.403 875.398 99.6058 875.18 99.7881C874.965 99.9704 874.708 100.116 874.407 100.226C874.111 100.33 873.76 100.383 873.354 100.383ZM873.532 99.4395C874.334 99.4395 874.902 99.2116 875.234 98.7559C875.567 98.3001 875.733 97.6234 875.733 96.7256V96.5205C875.733 95.568 875.574 94.8366 875.255 94.3262C874.94 93.8158 874.366 93.5605 873.532 93.5605C872.835 93.5605 872.313 93.8294 871.967 94.3672C871.62 94.9004 871.447 95.6296 871.447 96.5547C871.447 97.4753 871.618 98.1862 871.96 98.6875C872.306 99.1888 872.83 99.4395 873.532 99.4395ZM885.7 92.6309C886.593 92.6309 887.257 92.8314 887.689 93.2324C888.122 93.6335 888.339 94.2738 888.339 95.1533V100.246H887.512L887.293 99.1387H887.238C887.029 99.4121 886.81 99.6423 886.582 99.8291C886.354 100.011 886.09 100.15 885.789 100.246C885.493 100.337 885.128 100.383 884.695 100.383C884.24 100.383 883.834 100.303 883.479 100.144C883.128 99.984 882.85 99.7425 882.645 99.4189C882.444 99.0954 882.344 98.6852 882.344 98.1885C882.344 97.4411 882.64 96.8669 883.232 96.4658C883.825 96.0648 884.727 95.846 885.939 95.8096L887.231 95.7549V95.2969C887.231 94.6497 887.092 94.1963 886.814 93.9365C886.536 93.6768 886.145 93.5469 885.639 93.5469C885.247 93.5469 884.873 93.6038 884.518 93.7178C884.162 93.8317 883.825 93.9661 883.506 94.1211L883.157 93.2598C883.494 93.0866 883.882 92.9385 884.319 92.8154C884.757 92.6924 885.217 92.6309 885.7 92.6309ZM887.218 96.5547L886.076 96.6025C885.142 96.639 884.483 96.7917 884.101 97.0605C883.718 97.3294 883.526 97.71 883.526 98.2021C883.526 98.6305 883.656 98.9473 883.916 99.1523C884.176 99.3574 884.52 99.46 884.948 99.46C885.614 99.46 886.158 99.2754 886.582 98.9062C887.006 98.5371 887.218 97.9834 887.218 97.2451V96.5547ZM894.197 92.6172C895.132 92.6172 895.877 92.9385 896.433 93.5811C896.989 94.2236 897.267 95.1898 897.267 96.4795C897.267 97.3317 897.139 98.0472 896.884 98.626C896.629 99.2048 896.269 99.6423 895.804 99.9385C895.343 100.235 894.799 100.383 894.17 100.383C893.773 100.383 893.425 100.33 893.124 100.226C892.823 100.121 892.566 99.9795 892.352 99.8018C892.137 99.624 891.96 99.4303 891.818 99.2207H891.736C891.75 99.3984 891.766 99.6126 891.784 99.8633C891.807 100.114 891.818 100.333 891.818 100.52V103.596H890.677V92.7539H891.613L891.764 93.8613H891.818C891.964 93.6335 892.142 93.4261 892.352 93.2393C892.561 93.0479 892.816 92.8975 893.117 92.7881C893.423 92.6742 893.783 92.6172 894.197 92.6172ZM893.999 93.5742C893.479 93.5742 893.06 93.6745 892.741 93.875C892.427 94.0755 892.197 94.3763 892.051 94.7773C891.905 95.1738 891.827 95.6729 891.818 96.2744V96.4932C891.818 97.1266 891.887 97.6621 892.023 98.0996C892.165 98.5371 892.395 98.8698 892.714 99.0977C893.037 99.3255 893.47 99.4395 894.013 99.4395C894.478 99.4395 894.865 99.3141 895.175 99.0635C895.485 98.8128 895.715 98.4642 895.865 98.0176C896.02 97.5664 896.098 97.0492 896.098 96.4658C896.098 95.5817 895.924 94.8799 895.578 94.3604C895.236 93.8363 894.71 93.5742 893.999 93.5742ZM902.77 92.6172C903.704 92.6172 904.449 92.9385 905.005 93.5811C905.561 94.2236 905.839 95.1898 905.839 96.4795C905.839 97.3317 905.711 98.0472 905.456 98.626C905.201 99.2048 904.841 99.6423 904.376 99.9385C903.916 100.235 903.371 100.383 902.742 100.383C902.346 100.383 901.997 100.33 901.696 100.226C901.396 100.121 901.138 99.9795 900.924 99.8018C900.71 99.624 900.532 99.4303 900.391 99.2207H900.309C900.322 99.3984 900.338 99.6126 900.356 99.8633C900.379 100.114 900.391 100.333 900.391 100.52V103.596H899.249V92.7539H900.186L900.336 93.8613H900.391C900.536 93.6335 900.714 93.4261 900.924 93.2393C901.133 93.0479 901.389 92.8975 901.689 92.7881C901.995 92.6742 902.355 92.6172 902.77 92.6172ZM902.571 93.5742C902.052 93.5742 901.632 93.6745 901.313 93.875C900.999 94.0755 900.769 94.3763 900.623 94.7773C900.477 95.1738 900.4 95.6729 900.391 96.2744V96.4932C900.391 97.1266 900.459 97.6621 900.596 98.0996C900.737 98.5371 900.967 98.8698 901.286 99.0977C901.61 99.3255 902.043 99.4395 902.585 99.4395C903.05 99.4395 903.437 99.3141 903.747 99.0635C904.057 98.8128 904.287 98.4642 904.438 98.0176C904.592 97.5664 904.67 97.0492 904.67 96.4658C904.67 95.5817 904.497 94.8799 904.15 94.3604C903.809 93.8363 903.282 93.5742 902.571 93.5742ZM908.963 100.246H907.821V89.6094H908.963V100.246ZM910.18 92.7539H911.396L913.051 97.1016C913.146 97.3568 913.235 97.6029 913.317 97.8398C913.399 98.0723 913.472 98.2956 913.536 98.5098C913.6 98.724 913.65 98.9313 913.687 99.1318H913.734C913.798 98.904 913.889 98.6055 914.008 98.2363C914.126 97.8626 914.254 97.4821 914.391 97.0947L915.956 92.7539H917.18L913.919 101.347C913.746 101.807 913.543 102.208 913.311 102.55C913.083 102.892 912.805 103.154 912.477 103.336C912.148 103.523 911.752 103.616 911.287 103.616C911.073 103.616 910.884 103.603 910.72 103.575C910.556 103.552 910.414 103.525 910.296 103.493V102.584C910.396 102.607 910.517 102.627 910.658 102.646C910.804 102.664 910.954 102.673 911.109 102.673C911.392 102.673 911.636 102.618 911.841 102.509C912.05 102.404 912.23 102.249 912.381 102.044C912.531 101.839 912.661 101.595 912.771 101.312L913.181 100.26L910.18 92.7539ZM925.349 93.6426H923.482V100.246H922.348V93.6426H921.021V93.0957L922.348 92.7197V92.2207C922.348 91.5918 922.441 91.0814 922.628 90.6895C922.815 90.293 923.086 90.0013 923.441 89.8145C923.797 89.6276 924.23 89.5342 924.74 89.5342C925.027 89.5342 925.289 89.5592 925.526 89.6094C925.768 89.6595 925.98 89.7165 926.162 89.7803L925.868 90.6758C925.713 90.6257 925.538 90.5801 925.342 90.5391C925.15 90.4935 924.954 90.4707 924.754 90.4707C924.321 90.4707 924 90.612 923.79 90.8945C923.585 91.1725 923.482 91.61 923.482 92.207V92.7539H925.349V93.6426ZM933.189 96.4863C933.189 97.1016 933.11 97.6507 932.95 98.1338C932.791 98.6169 932.561 99.0247 932.26 99.3574C931.959 99.6901 931.594 99.9453 931.166 100.123C930.742 100.296 930.261 100.383 929.724 100.383C929.222 100.383 928.762 100.296 928.343 100.123C927.928 99.9453 927.568 99.6901 927.263 99.3574C926.962 99.0247 926.727 98.6169 926.559 98.1338C926.395 97.6507 926.312 97.1016 926.312 96.4863C926.312 95.666 926.451 94.9688 926.729 94.3945C927.007 93.8158 927.404 93.376 927.919 93.0752C928.438 92.7699 929.056 92.6172 929.771 92.6172C930.455 92.6172 931.052 92.7699 931.562 93.0752C932.077 93.3805 932.476 93.8226 932.759 94.4014C933.046 94.9756 933.189 95.6706 933.189 96.4863ZM927.488 96.4863C927.488 97.0879 927.568 97.6097 927.728 98.0518C927.887 98.4938 928.133 98.8356 928.466 99.0771C928.799 99.3187 929.227 99.4395 929.751 99.4395C930.271 99.4395 930.697 99.3187 931.029 99.0771C931.367 98.8356 931.615 98.4938 931.774 98.0518C931.934 97.6097 932.014 97.0879 932.014 96.4863C932.014 95.8893 931.934 95.3743 931.774 94.9414C931.615 94.5039 931.369 94.1667 931.036 93.9297C930.703 93.6927 930.273 93.5742 929.744 93.5742C928.965 93.5742 928.393 93.8317 928.028 94.3467C927.668 94.8617 927.488 95.5749 927.488 96.4863ZM938.556 92.6172C938.706 92.6172 938.863 92.6263 939.027 92.6445C939.191 92.6582 939.337 92.6787 939.465 92.7061L939.321 93.7588C939.198 93.7269 939.062 93.7018 938.911 93.6836C938.761 93.6654 938.619 93.6562 938.487 93.6562C938.187 93.6562 937.902 93.7178 937.633 93.8408C937.368 93.9593 937.136 94.1325 936.936 94.3604C936.735 94.5837 936.578 94.8548 936.464 95.1738C936.35 95.4883 936.293 95.8392 936.293 96.2266V100.246H935.151V92.7539H936.095L936.218 94.1348H936.266C936.421 93.8568 936.607 93.6038 936.826 93.376C937.045 93.1436 937.298 92.959 937.585 92.8223C937.877 92.6855 938.2 92.6172 938.556 92.6172ZM946.937 99.4531C947.123 99.4531 947.315 99.4372 947.511 99.4053C947.707 99.3734 947.866 99.3346 947.989 99.2891V100.171C947.857 100.23 947.673 100.28 947.436 100.321C947.203 100.362 946.975 100.383 946.752 100.383C946.355 100.383 945.995 100.314 945.672 100.178C945.348 100.036 945.089 99.7995 944.893 99.4668C944.701 99.1341 944.605 98.6738 944.605 98.0859V93.6426H943.539V93.0889L944.612 92.6445L945.063 91.0176H945.747V92.7539H947.941V93.6426H945.747V98.0518C945.747 98.5212 945.854 98.8721 946.068 99.1045C946.287 99.3369 946.576 99.4531 946.937 99.4531ZM952.392 92.6172C953.03 92.6172 953.576 92.7585 954.032 93.041C954.488 93.3236 954.837 93.7201 955.078 94.2305C955.32 94.7363 955.44 95.3288 955.44 96.0078V96.7119H950.266C950.279 97.5915 950.498 98.2614 950.922 98.7217C951.346 99.182 951.943 99.4121 952.713 99.4121C953.187 99.4121 953.606 99.3688 953.971 99.2822C954.335 99.1956 954.714 99.068 955.105 98.8994V99.8975C954.727 100.066 954.351 100.189 953.978 100.267C953.608 100.344 953.171 100.383 952.665 100.383C951.945 100.383 951.316 100.237 950.778 99.9453C950.245 99.6491 949.83 99.2161 949.534 98.6465C949.238 98.0768 949.09 97.3796 949.09 96.5547C949.09 95.748 949.224 95.0508 949.493 94.4629C949.767 93.8704 950.149 93.4147 950.642 93.0957C951.138 92.7767 951.722 92.6172 952.392 92.6172ZM952.378 93.5469C951.772 93.5469 951.289 93.7451 950.929 94.1416C950.569 94.5381 950.354 95.0918 950.286 95.8027H954.251C954.246 95.3561 954.176 94.9642 954.039 94.627C953.907 94.2852 953.704 94.0208 953.431 93.834C953.157 93.6426 952.806 93.5469 952.378 93.5469ZM960.916 92.6172C961.805 92.6172 962.477 92.8359 962.933 93.2734C963.388 93.7064 963.616 94.4036 963.616 95.3652V100.246H962.495V95.4404C962.495 94.8161 962.352 94.349 962.064 94.0391C961.782 93.7292 961.347 93.5742 960.759 93.5742C959.929 93.5742 959.346 93.8089 959.009 94.2783C958.672 94.7477 958.503 95.429 958.503 96.3223V100.246H957.368V92.7539H958.284L958.455 93.834H958.517C958.676 93.5697 958.879 93.3486 959.125 93.1709C959.371 92.9886 959.647 92.8519 959.952 92.7607C960.257 92.665 960.579 92.6172 960.916 92.6172ZM968.62 100.383C967.672 100.383 966.92 100.059 966.364 99.4121C965.813 98.765 965.537 97.8034 965.537 96.5273C965.537 95.2376 965.82 94.2646 966.385 93.6084C966.95 92.9476 967.702 92.6172 968.641 92.6172C969.037 92.6172 969.383 92.6696 969.68 92.7744C969.976 92.8792 970.231 93.0205 970.445 93.1982C970.66 93.3714 970.84 93.5697 970.985 93.793H971.067C971.049 93.6517 971.031 93.458 971.013 93.2119C970.994 92.9658 970.985 92.7653 970.985 92.6104V89.6094H972.12V100.246H971.204L971.033 99.1797H970.985C970.844 99.403 970.664 99.6058 970.445 99.7881C970.231 99.9704 969.974 100.116 969.673 100.226C969.377 100.33 969.026 100.383 968.62 100.383ZM968.798 99.4395C969.6 99.4395 970.167 99.2116 970.5 98.7559C970.833 98.3001 970.999 97.6234 970.999 96.7256V96.5205C970.999 95.568 970.84 94.8366 970.521 94.3262C970.206 93.8158 969.632 93.5605 968.798 93.5605C968.101 93.5605 967.579 93.8294 967.232 94.3672C966.886 94.9004 966.713 95.6296 966.713 96.5547C966.713 97.4753 966.884 98.1862 967.226 98.6875C967.572 99.1888 968.096 99.4395 968.798 99.4395ZM977.411 92.6172C978.049 92.6172 978.596 92.7585 979.052 93.041C979.507 93.3236 979.856 93.7201 980.098 94.2305C980.339 94.7363 980.46 95.3288 980.46 96.0078V96.7119H975.285C975.299 97.5915 975.518 98.2614 975.941 98.7217C976.365 99.182 976.962 99.4121 977.732 99.4121C978.206 99.4121 978.626 99.3688 978.99 99.2822C979.355 99.1956 979.733 99.068 980.125 98.8994V99.8975C979.747 100.066 979.371 100.189 978.997 100.267C978.628 100.344 978.19 100.383 977.685 100.383C976.965 100.383 976.336 100.237 975.798 99.9453C975.265 99.6491 974.85 99.2161 974.554 98.6465C974.257 98.0768 974.109 97.3796 974.109 96.5547C974.109 95.748 974.244 95.0508 974.513 94.4629C974.786 93.8704 975.169 93.4147 975.661 93.0957C976.158 92.7767 976.741 92.6172 977.411 92.6172ZM977.397 93.5469C976.791 93.5469 976.308 93.7451 975.948 94.1416C975.588 94.5381 975.374 95.0918 975.306 95.8027H979.271C979.266 95.3561 979.195 94.9642 979.059 94.627C978.926 94.2852 978.724 94.0208 978.45 93.834C978.177 93.6426 977.826 93.5469 977.397 93.5469ZM985.792 92.6172C985.942 92.6172 986.1 92.6263 986.264 92.6445C986.428 92.6582 986.574 92.6787 986.701 92.7061L986.558 93.7588C986.435 93.7269 986.298 93.7018 986.147 93.6836C985.997 93.6654 985.856 93.6562 985.724 93.6562C985.423 93.6562 985.138 93.7178 984.869 93.8408C984.605 93.9593 984.372 94.1325 984.172 94.3604C983.971 94.5837 983.814 94.8548 983.7 95.1738C983.586 95.4883 983.529 95.8392 983.529 96.2266V100.246H982.388V92.7539H983.331L983.454 94.1348H983.502C983.657 93.8568 983.844 93.6038 984.062 93.376C984.281 93.1436 984.534 92.959 984.821 92.8223C985.113 92.6855 985.437 92.6172 985.792 92.6172ZM992.963 98.1953C992.963 98.6738 992.842 99.0771 992.601 99.4053C992.364 99.7288 992.022 99.9727 991.575 100.137C991.133 100.301 990.604 100.383 989.989 100.383C989.465 100.383 989.012 100.342 988.629 100.26C988.246 100.178 987.911 100.062 987.624 99.9111V98.8652C987.929 99.0156 988.294 99.1523 988.718 99.2754C989.142 99.3984 989.575 99.46 990.017 99.46C990.664 99.46 991.133 99.3551 991.425 99.1455C991.716 98.9359 991.862 98.651 991.862 98.291C991.862 98.0859 991.803 97.9059 991.685 97.751C991.571 97.5915 991.377 97.4388 991.104 97.293C990.83 97.1426 990.452 96.9785 989.969 96.8008C989.49 96.6185 989.076 96.4385 988.725 96.2607C988.378 96.0785 988.109 95.8574 987.918 95.5977C987.731 95.3379 987.638 95.0007 987.638 94.5859C987.638 93.9525 987.893 93.4671 988.403 93.1299C988.918 92.7881 989.593 92.6172 990.427 92.6172C990.878 92.6172 991.299 92.6628 991.691 92.7539C992.088 92.8405 992.457 92.959 992.799 93.1094L992.416 94.0186C992.106 93.8864 991.776 93.7747 991.425 93.6836C991.074 93.5924 990.716 93.5469 990.352 93.5469C989.827 93.5469 989.424 93.6335 989.142 93.8066C988.864 93.9798 988.725 94.2168 988.725 94.5176C988.725 94.75 988.788 94.9414 988.916 95.0918C989.048 95.2422 989.258 95.3835 989.545 95.5156C989.832 95.6478 990.21 95.8027 990.68 95.9805C991.149 96.1536 991.555 96.3337 991.896 96.5205C992.238 96.7028 992.5 96.9261 992.683 97.1904C992.869 97.4502 992.963 97.7852 992.963 98.1953ZM1004.88 96.4863C1004.88 97.1016 1004.81 97.6507 1004.65 98.1338C1004.49 98.6169 1004.26 99.0247 1003.96 99.3574C1003.65 99.6901 1003.29 99.9453 1002.86 100.123C1002.44 100.296 1001.96 100.383 1001.42 100.383C1000.92 100.383 1000.46 100.296 1000.04 100.123C999.623 99.9453 999.263 99.6901 998.958 99.3574C998.657 99.0247 998.423 98.6169 998.254 98.1338C998.09 97.6507 998.008 97.1016 998.008 96.4863C998.008 95.666 998.147 94.9688 998.425 94.3945C998.703 93.8158 999.099 93.376 999.614 93.0752C1000.13 92.7699 1000.75 92.6172 1001.47 92.6172C1002.15 92.6172 1002.75 92.7699 1003.26 93.0752C1003.77 93.3805 1004.17 93.8226 1004.45 94.4014C1004.74 94.9756 1004.88 95.6706 1004.88 96.4863ZM999.184 96.4863C999.184 97.0879 999.263 97.6097 999.423 98.0518C999.582 98.4938 999.828 98.8356 1000.16 99.0771C1000.49 99.3187 1000.92 99.4395 1001.45 99.4395C1001.97 99.4395 1002.39 99.3187 1002.72 99.0771C1003.06 98.8356 1003.31 98.4938 1003.47 98.0518C1003.63 97.6097 1003.71 97.0879 1003.71 96.4863C1003.71 95.8893 1003.63 95.3743 1003.47 94.9414C1003.31 94.5039 1003.06 94.1667 1002.73 93.9297C1002.4 93.6927 1001.97 93.5742 1001.44 93.5742C1000.66 93.5742 1000.09 93.8317 999.724 94.3467C999.364 94.8617 999.184 95.5749 999.184 96.4863ZM1010.18 93.6426H1008.32V100.246H1007.18V93.6426H1005.86V93.0957L1007.18 92.7197V92.2207C1007.18 91.5918 1007.28 91.0814 1007.46 90.6895C1007.65 90.293 1007.92 90.0013 1008.28 89.8145C1008.63 89.6276 1009.06 89.5342 1009.57 89.5342C1009.86 89.5342 1010.12 89.5592 1010.36 89.6094C1010.6 89.6595 1010.81 89.7165 1011 89.7803L1010.7 90.6758C1010.55 90.6257 1010.37 90.5801 1010.18 90.5391C1009.98 90.4935 1009.79 90.4707 1009.59 90.4707C1009.15 90.4707 1008.83 90.612 1008.62 90.8945C1008.42 91.1725 1008.32 91.61 1008.32 92.207V92.7539H1010.18V93.6426ZM1014.02 92.7539H1015.23L1016.89 97.1016C1016.98 97.3568 1017.07 97.6029 1017.16 97.8398C1017.24 98.0723 1017.31 98.2956 1017.37 98.5098C1017.44 98.724 1017.49 98.9313 1017.52 99.1318H1017.57C1017.64 98.904 1017.73 98.6055 1017.85 98.2363C1017.96 97.8626 1018.09 97.4821 1018.23 97.0947L1019.79 92.7539H1021.02L1017.76 101.347C1017.58 101.807 1017.38 102.208 1017.15 102.55C1016.92 102.892 1016.64 103.154 1016.31 103.336C1015.99 103.523 1015.59 103.616 1015.12 103.616C1014.91 103.616 1014.72 103.603 1014.56 103.575C1014.39 103.552 1014.25 103.525 1014.13 103.493V102.584C1014.23 102.607 1014.35 102.627 1014.5 102.646C1014.64 102.664 1014.79 102.673 1014.95 102.673C1015.23 102.673 1015.47 102.618 1015.68 102.509C1015.89 102.404 1016.07 102.249 1016.22 102.044C1016.37 101.839 1016.5 101.595 1016.61 101.312L1017.02 100.26L1014.02 92.7539ZM1028.67 96.4863C1028.67 97.1016 1028.59 97.6507 1028.43 98.1338C1028.28 98.6169 1028.04 99.0247 1027.74 99.3574C1027.44 99.6901 1027.08 99.9453 1026.65 100.123C1026.23 100.296 1025.75 100.383 1025.21 100.383C1024.71 100.383 1024.25 100.296 1023.83 100.123C1023.41 99.9453 1023.05 99.6901 1022.75 99.3574C1022.45 99.0247 1022.21 98.6169 1022.04 98.1338C1021.88 97.6507 1021.8 97.1016 1021.8 96.4863C1021.8 95.666 1021.94 94.9688 1022.21 94.3945C1022.49 93.8158 1022.89 93.376 1023.4 93.0752C1023.92 92.7699 1024.54 92.6172 1025.26 92.6172C1025.94 92.6172 1026.54 92.7699 1027.05 93.0752C1027.56 93.3805 1027.96 93.8226 1028.24 94.4014C1028.53 94.9756 1028.67 95.6706 1028.67 96.4863ZM1022.97 96.4863C1022.97 97.0879 1023.05 97.6097 1023.21 98.0518C1023.37 98.4938 1023.62 98.8356 1023.95 99.0771C1024.28 99.3187 1024.71 99.4395 1025.24 99.4395C1025.75 99.4395 1026.18 99.3187 1026.51 99.0771C1026.85 98.8356 1027.1 98.4938 1027.26 98.0518C1027.42 97.6097 1027.5 97.0879 1027.5 96.4863C1027.5 95.8893 1027.42 95.3743 1027.26 94.9414C1027.1 94.5039 1026.85 94.1667 1026.52 93.9297C1026.19 93.6927 1025.76 93.5742 1025.23 93.5742C1024.45 93.5742 1023.88 93.8317 1023.51 94.3467C1023.15 94.8617 1022.97 95.5749 1022.97 96.4863ZM1036.82 92.7539V100.246H1035.89L1035.73 99.1934H1035.67C1035.51 99.4531 1035.31 99.6719 1035.07 99.8496C1034.82 100.027 1034.54 100.16 1034.23 100.246C1033.93 100.337 1033.6 100.383 1033.25 100.383C1032.66 100.383 1032.16 100.287 1031.76 100.096C1031.36 99.9043 1031.06 99.6081 1030.85 99.207C1030.65 98.806 1030.55 98.291 1030.55 97.6621V92.7539H1031.7V97.5801C1031.7 98.2044 1031.84 98.6715 1032.13 98.9814C1032.41 99.2868 1032.84 99.4395 1033.42 99.4395C1033.97 99.4395 1034.42 99.3346 1034.74 99.125C1035.08 98.9154 1035.32 98.6077 1035.46 98.2021C1035.61 97.792 1035.68 97.2907 1035.68 96.6982V92.7539H1036.82ZM1042.63 92.6172C1042.78 92.6172 1042.93 92.6263 1043.1 92.6445C1043.26 92.6582 1043.41 92.6787 1043.54 92.7061L1043.39 93.7588C1043.27 93.7269 1043.13 93.7018 1042.98 93.6836C1042.83 93.6654 1042.69 93.6562 1042.56 93.6562C1042.26 93.6562 1041.97 93.7178 1041.7 93.8408C1041.44 93.9593 1041.21 94.1325 1041.01 94.3604C1040.81 94.5837 1040.65 94.8548 1040.53 95.1738C1040.42 95.4883 1040.36 95.8392 1040.36 96.2266V100.246H1039.22V92.7539H1040.17L1040.29 94.1348H1040.34C1040.49 93.8568 1040.68 93.6038 1040.9 93.376C1041.12 93.1436 1041.37 92.959 1041.66 92.8223C1041.95 92.6855 1042.27 92.6172 1042.63 92.6172ZM1051.59 100.383C1050.91 100.383 1050.32 100.244 1049.8 99.9658C1049.29 99.6878 1048.89 99.264 1048.6 98.6943C1048.31 98.1247 1048.17 97.4069 1048.17 96.541C1048.17 95.6341 1048.32 94.8936 1048.62 94.3193C1048.93 93.7406 1049.35 93.3122 1049.88 93.0342C1050.41 92.7562 1051.02 92.6172 1051.7 92.6172C1052.07 92.6172 1052.43 92.6559 1052.78 92.7334C1053.13 92.8063 1053.42 92.8997 1053.64 93.0137L1053.3 93.9639C1053.07 93.8727 1052.8 93.7907 1052.5 93.7178C1052.21 93.6449 1051.93 93.6084 1051.67 93.6084C1051.15 93.6084 1050.72 93.7201 1050.37 93.9434C1050.03 94.1667 1049.77 94.4948 1049.6 94.9277C1049.43 95.3607 1049.35 95.8939 1049.35 96.5273C1049.35 97.1335 1049.43 97.6507 1049.59 98.0791C1049.76 98.5075 1050.01 98.8356 1050.34 99.0635C1050.67 99.2868 1051.08 99.3984 1051.58 99.3984C1051.98 99.3984 1052.34 99.3574 1052.65 99.2754C1052.97 99.1888 1053.26 99.0885 1053.52 98.9746V99.9863C1053.27 100.114 1052.99 100.212 1052.68 100.28C1052.38 100.349 1052.01 100.383 1051.59 100.383ZM1056.43 89.6094V92.7881C1056.43 92.9704 1056.43 93.1549 1056.42 93.3418C1056.41 93.5241 1056.4 93.6927 1056.37 93.8477H1056.45C1056.6 93.5833 1056.8 93.3623 1057.04 93.1846C1057.28 93.0023 1057.55 92.8656 1057.86 92.7744C1058.16 92.6787 1058.49 92.6309 1058.83 92.6309C1059.43 92.6309 1059.93 92.7266 1060.33 92.918C1060.74 93.1094 1061.04 93.4056 1061.24 93.8066C1061.45 94.2077 1061.55 94.7272 1061.55 95.3652V100.246H1060.43V95.4404C1060.43 94.8161 1060.28 94.349 1060 94.0391C1059.71 93.7292 1059.28 93.5742 1058.69 93.5742C1058.13 93.5742 1057.69 93.6813 1057.36 93.8955C1057.03 94.1051 1056.79 94.415 1056.65 94.8252C1056.51 95.2354 1056.43 95.7367 1056.43 96.3291V100.246H1055.3V89.6094H1056.43ZM1070.35 96.4863C1070.35 97.1016 1070.27 97.6507 1070.11 98.1338C1069.95 98.6169 1069.72 99.0247 1069.42 99.3574C1069.12 99.6901 1068.75 99.9453 1068.32 100.123C1067.9 100.296 1067.42 100.383 1066.88 100.383C1066.38 100.383 1065.92 100.296 1065.5 100.123C1065.08 99.9453 1064.72 99.6901 1064.42 99.3574C1064.12 99.0247 1063.88 98.6169 1063.71 98.1338C1063.55 97.6507 1063.47 97.1016 1063.47 96.4863C1063.47 95.666 1063.61 94.9688 1063.89 94.3945C1064.16 93.8158 1064.56 93.376 1065.08 93.0752C1065.59 92.7699 1066.21 92.6172 1066.93 92.6172C1067.61 92.6172 1068.21 92.7699 1068.72 93.0752C1069.23 93.3805 1069.63 93.8226 1069.92 94.4014C1070.2 94.9756 1070.35 95.6706 1070.35 96.4863ZM1064.64 96.4863C1064.64 97.0879 1064.72 97.6097 1064.88 98.0518C1065.04 98.4938 1065.29 98.8356 1065.62 99.0771C1065.95 99.3187 1066.38 99.4395 1066.91 99.4395C1067.43 99.4395 1067.85 99.3187 1068.19 99.0771C1068.52 98.8356 1068.77 98.4938 1068.93 98.0518C1069.09 97.6097 1069.17 97.0879 1069.17 96.4863C1069.17 95.8893 1069.09 95.3743 1068.93 94.9414C1068.77 94.5039 1068.53 94.1667 1068.19 93.9297C1067.86 93.6927 1067.43 93.5742 1066.9 93.5742C1066.12 93.5742 1065.55 93.8317 1065.18 94.3467C1064.82 94.8617 1064.64 95.5749 1064.64 96.4863ZM1073.44 92.7539V100.246H1072.31V92.7539H1073.44ZM1072.89 89.9512C1073.08 89.9512 1073.24 90.0127 1073.37 90.1357C1073.5 90.2542 1073.57 90.4411 1073.57 90.6963C1073.57 90.9469 1073.5 91.1338 1073.37 91.2568C1073.24 91.3799 1073.08 91.4414 1072.89 91.4414C1072.69 91.4414 1072.53 91.3799 1072.4 91.2568C1072.27 91.1338 1072.21 90.9469 1072.21 90.6963C1072.21 90.4411 1072.27 90.2542 1072.4 90.1357C1072.53 90.0127 1072.69 89.9512 1072.89 89.9512ZM1078.85 100.383C1078.18 100.383 1077.58 100.244 1077.07 99.9658C1076.55 99.6878 1076.15 99.264 1075.86 98.6943C1075.58 98.1247 1075.43 97.4069 1075.43 96.541C1075.43 95.6341 1075.58 94.8936 1075.88 94.3193C1076.19 93.7406 1076.61 93.3122 1077.14 93.0342C1077.67 92.7562 1078.28 92.6172 1078.96 92.6172C1079.33 92.6172 1079.69 92.6559 1080.04 92.7334C1080.39 92.8063 1080.68 92.8997 1080.9 93.0137L1080.56 93.9639C1080.33 93.8727 1080.07 93.7907 1079.77 93.7178C1079.47 93.6449 1079.19 93.6084 1078.93 93.6084C1078.41 93.6084 1077.98 93.7201 1077.63 93.9434C1077.29 94.1667 1077.03 94.4948 1076.86 94.9277C1076.69 95.3607 1076.61 95.8939 1076.61 96.5273C1076.61 97.1335 1076.69 97.6507 1076.85 98.0791C1077.02 98.5075 1077.27 98.8356 1077.6 99.0635C1077.93 99.2868 1078.35 99.3984 1078.84 99.3984C1079.24 99.3984 1079.6 99.3574 1079.92 99.2754C1080.24 99.1888 1080.52 99.0885 1080.78 98.9746V99.9863C1080.53 100.114 1080.25 100.212 1079.94 100.28C1079.64 100.349 1079.27 100.383 1078.85 100.383ZM1085.45 92.6172C1086.08 92.6172 1086.63 92.7585 1087.09 93.041C1087.54 93.3236 1087.89 93.7201 1088.13 94.2305C1088.37 94.7363 1088.5 95.3288 1088.5 96.0078V96.7119H1083.32C1083.33 97.5915 1083.55 98.2614 1083.98 98.7217C1084.4 99.182 1085 99.4121 1085.77 99.4121C1086.24 99.4121 1086.66 99.3688 1087.03 99.2822C1087.39 99.1956 1087.77 99.068 1088.16 98.8994V99.8975C1087.78 100.066 1087.41 100.189 1087.03 100.267C1086.66 100.344 1086.23 100.383 1085.72 100.383C1085 100.383 1084.37 100.237 1083.83 99.9453C1083.3 99.6491 1082.89 99.2161 1082.59 98.6465C1082.29 98.0768 1082.14 97.3796 1082.14 96.5547C1082.14 95.748 1082.28 95.0508 1082.55 94.4629C1082.82 93.8704 1083.2 93.4147 1083.7 93.0957C1084.19 92.7767 1084.78 92.6172 1085.45 92.6172ZM1085.43 93.5469C1084.83 93.5469 1084.34 93.7451 1083.98 94.1416C1083.62 94.5381 1083.41 95.0918 1083.34 95.8027H1087.31C1087.3 95.3561 1087.23 94.9642 1087.09 94.627C1086.96 94.2852 1086.76 94.0208 1086.49 93.834C1086.21 93.6426 1085.86 93.5469 1085.43 93.5469ZM808.331 109.609V112.788C808.331 112.97 808.326 113.155 808.317 113.342C808.308 113.524 808.292 113.693 808.27 113.848H808.345C808.5 113.583 808.696 113.362 808.933 113.185C809.174 113.002 809.448 112.866 809.753 112.774C810.058 112.679 810.382 112.631 810.724 112.631C811.325 112.631 811.826 112.727 812.228 112.918C812.633 113.109 812.936 113.406 813.137 113.807C813.342 114.208 813.444 114.727 813.444 115.365V120.246H812.323V115.44C812.323 114.816 812.18 114.349 811.893 114.039C811.61 113.729 811.175 113.574 810.587 113.574C810.031 113.574 809.587 113.681 809.254 113.896C808.926 114.105 808.689 114.415 808.543 114.825C808.402 115.235 808.331 115.737 808.331 116.329V120.246H807.196V109.609H808.331ZM818.585 112.631C819.478 112.631 820.141 112.831 820.574 113.232C821.007 113.633 821.224 114.274 821.224 115.153V120.246H820.396L820.178 119.139H820.123C819.913 119.412 819.695 119.642 819.467 119.829C819.239 120.011 818.975 120.15 818.674 120.246C818.378 120.337 818.013 120.383 817.58 120.383C817.124 120.383 816.719 120.303 816.363 120.144C816.012 119.984 815.734 119.743 815.529 119.419C815.329 119.095 815.229 118.685 815.229 118.188C815.229 117.441 815.525 116.867 816.117 116.466C816.71 116.065 817.612 115.846 818.824 115.81L820.116 115.755V115.297C820.116 114.65 819.977 114.196 819.699 113.937C819.421 113.677 819.029 113.547 818.523 113.547C818.132 113.547 817.758 113.604 817.402 113.718C817.047 113.832 816.71 113.966 816.391 114.121L816.042 113.26C816.379 113.087 816.767 112.938 817.204 112.815C817.642 112.692 818.102 112.631 818.585 112.631ZM820.103 116.555L818.961 116.603C818.027 116.639 817.368 116.792 816.985 117.061C816.603 117.329 816.411 117.71 816.411 118.202C816.411 118.631 816.541 118.947 816.801 119.152C817.061 119.357 817.405 119.46 817.833 119.46C818.498 119.46 819.043 119.275 819.467 118.906C819.891 118.537 820.103 117.983 820.103 117.245V116.555ZM828.408 118.195C828.408 118.674 828.287 119.077 828.046 119.405C827.809 119.729 827.467 119.973 827.021 120.137C826.578 120.301 826.05 120.383 825.435 120.383C824.91 120.383 824.457 120.342 824.074 120.26C823.691 120.178 823.356 120.062 823.069 119.911V118.865C823.375 119.016 823.739 119.152 824.163 119.275C824.587 119.398 825.02 119.46 825.462 119.46C826.109 119.46 826.578 119.355 826.87 119.146C827.162 118.936 827.308 118.651 827.308 118.291C827.308 118.086 827.248 117.906 827.13 117.751C827.016 117.591 826.822 117.439 826.549 117.293C826.275 117.143 825.897 116.979 825.414 116.801C824.936 116.618 824.521 116.438 824.17 116.261C823.824 116.078 823.555 115.857 823.363 115.598C823.176 115.338 823.083 115.001 823.083 114.586C823.083 113.952 823.338 113.467 823.849 113.13C824.364 112.788 825.038 112.617 825.872 112.617C826.323 112.617 826.745 112.663 827.137 112.754C827.533 112.84 827.902 112.959 828.244 113.109L827.861 114.019C827.551 113.886 827.221 113.775 826.87 113.684C826.519 113.592 826.161 113.547 825.797 113.547C825.273 113.547 824.869 113.633 824.587 113.807C824.309 113.98 824.17 114.217 824.17 114.518C824.17 114.75 824.234 114.941 824.361 115.092C824.493 115.242 824.703 115.383 824.99 115.516C825.277 115.648 825.656 115.803 826.125 115.98C826.594 116.154 827 116.334 827.342 116.521C827.684 116.703 827.946 116.926 828.128 117.19C828.315 117.45 828.408 117.785 828.408 118.195ZM835.08 118.195C835.08 118.674 834.959 119.077 834.718 119.405C834.481 119.729 834.139 119.973 833.692 120.137C833.25 120.301 832.722 120.383 832.106 120.383C831.582 120.383 831.129 120.342 830.746 120.26C830.363 120.178 830.028 120.062 829.741 119.911V118.865C830.047 119.016 830.411 119.152 830.835 119.275C831.259 119.398 831.692 119.46 832.134 119.46C832.781 119.46 833.25 119.355 833.542 119.146C833.834 118.936 833.979 118.651 833.979 118.291C833.979 118.086 833.92 117.906 833.802 117.751C833.688 117.591 833.494 117.439 833.221 117.293C832.947 117.143 832.569 116.979 832.086 116.801C831.607 116.618 831.193 116.438 830.842 116.261C830.495 116.078 830.227 115.857 830.035 115.598C829.848 115.338 829.755 115.001 829.755 114.586C829.755 113.952 830.01 113.467 830.521 113.13C831.035 112.788 831.71 112.617 832.544 112.617C832.995 112.617 833.417 112.663 833.809 112.754C834.205 112.84 834.574 112.959 834.916 113.109L834.533 114.019C834.223 113.886 833.893 113.775 833.542 113.684C833.191 113.592 832.833 113.547 832.469 113.547C831.945 113.547 831.541 113.633 831.259 113.807C830.981 113.98 830.842 114.217 830.842 114.518C830.842 114.75 830.906 114.941 831.033 115.092C831.165 115.242 831.375 115.383 831.662 115.516C831.949 115.648 832.327 115.803 832.797 115.98C833.266 116.154 833.672 116.334 834.014 116.521C834.355 116.703 834.618 116.926 834.8 117.19C834.987 117.45 835.08 117.785 835.08 118.195ZM838.047 120.246H836.905V109.609H838.047V120.246ZM843.331 112.617C843.969 112.617 844.516 112.758 844.972 113.041C845.427 113.324 845.776 113.72 846.018 114.23C846.259 114.736 846.38 115.329 846.38 116.008V116.712H841.205C841.219 117.591 841.438 118.261 841.861 118.722C842.285 119.182 842.882 119.412 843.652 119.412C844.126 119.412 844.546 119.369 844.91 119.282C845.275 119.196 845.653 119.068 846.045 118.899V119.897C845.667 120.066 845.291 120.189 844.917 120.267C844.548 120.344 844.11 120.383 843.604 120.383C842.884 120.383 842.256 120.237 841.718 119.945C841.185 119.649 840.77 119.216 840.474 118.646C840.177 118.077 840.029 117.38 840.029 116.555C840.029 115.748 840.164 115.051 840.433 114.463C840.706 113.87 841.089 113.415 841.581 113.096C842.078 112.777 842.661 112.617 843.331 112.617ZM843.317 113.547C842.711 113.547 842.228 113.745 841.868 114.142C841.508 114.538 841.294 115.092 841.226 115.803H845.19C845.186 115.356 845.115 114.964 844.979 114.627C844.846 114.285 844.644 114.021 844.37 113.834C844.097 113.643 843.746 113.547 843.317 113.547ZM847.672 116.992V115.98H851.062V116.992H847.672ZM856.155 113.643H854.289V120.246H853.154V113.643H851.828V113.096L853.154 112.72V112.221C853.154 111.592 853.248 111.081 853.435 110.689C853.621 110.293 853.893 110.001 854.248 109.814C854.604 109.628 855.036 109.534 855.547 109.534C855.834 109.534 856.096 109.559 856.333 109.609C856.575 109.66 856.786 109.716 856.969 109.78L856.675 110.676C856.52 110.626 856.344 110.58 856.148 110.539C855.957 110.493 855.761 110.471 855.561 110.471C855.128 110.471 854.806 110.612 854.597 110.895C854.392 111.173 854.289 111.61 854.289 112.207V112.754H856.155V113.643ZM860.94 112.617C861.091 112.617 861.248 112.626 861.412 112.645C861.576 112.658 861.722 112.679 861.85 112.706L861.706 113.759C861.583 113.727 861.446 113.702 861.296 113.684C861.146 113.665 861.004 113.656 860.872 113.656C860.571 113.656 860.286 113.718 860.018 113.841C859.753 113.959 859.521 114.132 859.32 114.36C859.12 114.584 858.963 114.855 858.849 115.174C858.735 115.488 858.678 115.839 858.678 116.227V120.246H857.536V112.754H858.479L858.603 114.135H858.65C858.805 113.857 858.992 113.604 859.211 113.376C859.43 113.144 859.683 112.959 859.97 112.822C860.261 112.686 860.585 112.617 860.94 112.617ZM866.149 112.617C866.787 112.617 867.334 112.758 867.79 113.041C868.246 113.324 868.594 113.72 868.836 114.23C869.077 114.736 869.198 115.329 869.198 116.008V116.712H864.023C864.037 117.591 864.256 118.261 864.68 118.722C865.104 119.182 865.701 119.412 866.471 119.412C866.945 119.412 867.364 119.369 867.729 119.282C868.093 119.196 868.471 119.068 868.863 118.899V119.897C868.485 120.066 868.109 120.189 867.735 120.267C867.366 120.344 866.929 120.383 866.423 120.383C865.703 120.383 865.074 120.237 864.536 119.945C864.003 119.649 863.588 119.216 863.292 118.646C862.996 118.077 862.848 117.38 862.848 116.555C862.848 115.748 862.982 115.051 863.251 114.463C863.524 113.87 863.907 113.415 864.399 113.096C864.896 112.777 865.479 112.617 866.149 112.617ZM866.136 113.547C865.53 113.547 865.047 113.745 864.687 114.142C864.326 114.538 864.112 115.092 864.044 115.803H868.009C868.004 115.356 867.934 114.964 867.797 114.627C867.665 114.285 867.462 114.021 867.188 113.834C866.915 113.643 866.564 113.547 866.136 113.547ZM874.011 112.617C874.649 112.617 875.196 112.758 875.651 113.041C876.107 113.324 876.456 113.72 876.697 114.23C876.939 114.736 877.06 115.329 877.06 116.008V116.712H871.885C871.898 117.591 872.117 118.261 872.541 118.722C872.965 119.182 873.562 119.412 874.332 119.412C874.806 119.412 875.225 119.369 875.59 119.282C875.954 119.196 876.333 119.068 876.725 118.899V119.897C876.346 120.066 875.97 120.189 875.597 120.267C875.228 120.344 874.79 120.383 874.284 120.383C873.564 120.383 872.935 120.237 872.397 119.945C871.864 119.649 871.45 119.216 871.153 118.646C870.857 118.077 870.709 117.38 870.709 116.555C870.709 115.748 870.843 115.051 871.112 114.463C871.386 113.87 871.769 113.415 872.261 113.096C872.757 112.777 873.341 112.617 874.011 112.617ZM873.997 113.547C873.391 113.547 872.908 113.745 872.548 114.142C872.188 114.538 871.974 115.092 871.905 115.803H875.87C875.866 115.356 875.795 114.964 875.658 114.627C875.526 114.285 875.323 114.021 875.05 113.834C874.776 113.643 874.425 113.547 873.997 113.547Z" fill="#7D7C7C"/>
<path d="M807.312 153V143.006H808.953V151.605H813.198V153H807.312ZM817.778 145.289C818.453 145.289 819.032 145.428 819.515 145.706C819.998 145.984 820.369 146.378 820.629 146.889C820.889 147.399 821.019 148.01 821.019 148.721V149.582H815.967C815.985 150.316 816.181 150.881 816.555 151.277C816.933 151.674 817.462 151.872 818.141 151.872C818.624 151.872 819.057 151.826 819.439 151.735C819.827 151.64 820.226 151.501 820.636 151.318V152.624C820.257 152.802 819.872 152.932 819.48 153.014C819.089 153.096 818.619 153.137 818.072 153.137C817.329 153.137 816.675 152.993 816.11 152.706C815.55 152.414 815.11 151.981 814.791 151.407C814.477 150.833 814.319 150.12 814.319 149.268C814.319 148.42 814.463 147.7 814.75 147.107C815.037 146.515 815.44 146.064 815.96 145.754C816.479 145.444 817.086 145.289 817.778 145.289ZM817.778 146.499C817.272 146.499 816.862 146.663 816.548 146.991C816.238 147.319 816.056 147.8 816.001 148.434H819.446C819.442 148.055 819.378 147.72 819.255 147.429C819.136 147.137 818.954 146.909 818.708 146.745C818.466 146.581 818.157 146.499 817.778 146.499ZM825.797 145.289C826.754 145.289 827.476 145.501 827.964 145.925C828.456 146.349 828.702 147.009 828.702 147.907V153H827.561L827.253 151.927H827.198C826.984 152.2 826.763 152.426 826.535 152.604C826.307 152.781 826.043 152.913 825.742 153C825.446 153.091 825.084 153.137 824.655 153.137C824.204 153.137 823.801 153.055 823.445 152.891C823.09 152.722 822.81 152.467 822.604 152.125C822.399 151.783 822.297 151.35 822.297 150.826C822.297 150.047 822.586 149.461 823.165 149.069C823.748 148.677 824.628 148.461 825.804 148.42L827.116 148.372V147.976C827.116 147.451 826.993 147.078 826.747 146.854C826.506 146.631 826.164 146.52 825.722 146.52C825.343 146.52 824.977 146.574 824.621 146.684C824.266 146.793 823.919 146.927 823.582 147.087L823.062 145.952C823.432 145.756 823.851 145.597 824.32 145.474C824.794 145.351 825.286 145.289 825.797 145.289ZM827.109 149.384L826.132 149.418C825.33 149.445 824.767 149.582 824.443 149.828C824.12 150.074 823.958 150.411 823.958 150.84C823.958 151.214 824.07 151.487 824.293 151.66C824.516 151.829 824.81 151.913 825.175 151.913C825.731 151.913 826.191 151.756 826.556 151.441C826.925 151.122 827.109 150.655 827.109 150.04V149.384ZM834.786 145.289C834.914 145.289 835.053 145.296 835.203 145.31C835.354 145.323 835.483 145.341 835.593 145.364L835.442 146.868C835.347 146.841 835.228 146.82 835.087 146.807C834.95 146.793 834.827 146.786 834.718 146.786C834.431 146.786 834.157 146.834 833.897 146.93C833.638 147.021 833.408 147.162 833.207 147.354C833.007 147.54 832.849 147.775 832.735 148.058C832.621 148.34 832.564 148.668 832.564 149.042V153H830.951V145.433H832.209L832.428 146.766H832.503C832.653 146.497 832.84 146.251 833.063 146.027C833.287 145.804 833.542 145.626 833.829 145.494C834.121 145.357 834.44 145.289 834.786 145.289ZM840.938 145.289C841.791 145.289 842.454 145.51 842.928 145.952C843.406 146.39 843.646 147.094 843.646 148.064V153H842.039V148.365C842.039 147.777 841.918 147.338 841.677 147.046C841.435 146.75 841.062 146.602 840.556 146.602C839.822 146.602 839.312 146.827 839.024 147.278C838.742 147.729 838.601 148.383 838.601 149.24V153H836.994V145.433H838.245L838.471 146.458H838.56C838.724 146.194 838.926 145.977 839.168 145.809C839.414 145.635 839.688 145.506 839.988 145.419C840.294 145.332 840.61 145.289 840.938 145.289ZM854.009 153L851.131 144.653H851.069C851.083 144.84 851.099 145.095 851.117 145.419C851.135 145.743 851.151 146.089 851.165 146.458C851.179 146.827 851.186 147.18 851.186 147.518V153H849.695V143.006H851.999L854.768 150.983H854.809L857.673 143.006H859.97V153H858.404V147.436C858.404 147.13 858.409 146.8 858.418 146.444C858.432 146.089 858.445 145.752 858.459 145.433C858.477 145.114 858.491 144.858 858.5 144.667H858.445L855.458 153H854.009ZM869.137 149.199C869.137 149.828 869.055 150.386 868.891 150.874C868.727 151.362 868.487 151.774 868.173 152.111C867.858 152.444 867.48 152.699 867.038 152.877C866.596 153.05 866.097 153.137 865.541 153.137C865.021 153.137 864.545 153.05 864.112 152.877C863.679 152.699 863.303 152.444 862.984 152.111C862.67 151.774 862.426 151.362 862.253 150.874C862.08 150.386 861.993 149.828 861.993 149.199C861.993 148.365 862.137 147.659 862.424 147.08C862.715 146.497 863.13 146.052 863.668 145.747C864.206 145.442 864.846 145.289 865.589 145.289C866.286 145.289 866.901 145.442 867.435 145.747C867.968 146.052 868.385 146.497 868.686 147.08C868.986 147.663 869.137 148.37 869.137 149.199ZM863.647 149.199C863.647 149.751 863.714 150.222 863.846 150.614C863.982 151.006 864.192 151.307 864.475 151.517C864.757 151.722 865.122 151.824 865.568 151.824C866.015 151.824 866.38 151.722 866.662 151.517C866.945 151.307 867.152 151.006 867.284 150.614C867.416 150.222 867.482 149.751 867.482 149.199C867.482 148.648 867.416 148.181 867.284 147.798C867.152 147.41 866.945 147.117 866.662 146.916C866.38 146.711 866.013 146.608 865.562 146.608C864.896 146.608 864.411 146.832 864.105 147.278C863.8 147.725 863.647 148.365 863.647 149.199ZM874.817 145.289C874.945 145.289 875.084 145.296 875.234 145.31C875.385 145.323 875.515 145.341 875.624 145.364L875.474 146.868C875.378 146.841 875.259 146.82 875.118 146.807C874.981 146.793 874.858 146.786 874.749 146.786C874.462 146.786 874.188 146.834 873.929 146.93C873.669 147.021 873.439 147.162 873.238 147.354C873.038 147.54 872.881 147.775 872.767 148.058C872.653 148.34 872.596 148.668 872.596 149.042V153H870.982V145.433H872.24L872.459 146.766H872.534C872.685 146.497 872.871 146.251 873.095 146.027C873.318 145.804 873.573 145.626 873.86 145.494C874.152 145.357 874.471 145.289 874.817 145.289ZM880.04 145.289C880.715 145.289 881.293 145.428 881.776 145.706C882.259 145.984 882.631 146.378 882.891 146.889C883.15 147.399 883.28 148.01 883.28 148.721V149.582H878.229C878.247 150.316 878.443 150.881 878.816 151.277C879.195 151.674 879.723 151.872 880.402 151.872C880.885 151.872 881.318 151.826 881.701 151.735C882.089 151.64 882.487 151.501 882.897 151.318V152.624C882.519 152.802 882.134 152.932 881.742 153.014C881.35 153.096 880.881 153.137 880.334 153.137C879.591 153.137 878.937 152.993 878.372 152.706C877.812 152.414 877.372 151.981 877.053 151.407C876.738 150.833 876.581 150.12 876.581 149.268C876.581 148.42 876.725 147.7 877.012 147.107C877.299 146.515 877.702 146.064 878.222 145.754C878.741 145.444 879.347 145.289 880.04 145.289ZM880.04 146.499C879.534 146.499 879.124 146.663 878.81 146.991C878.5 147.319 878.317 147.8 878.263 148.434H881.708C881.703 148.055 881.64 147.72 881.517 147.429C881.398 147.137 881.216 146.909 880.97 146.745C880.728 146.581 880.418 146.499 880.04 146.499Z" fill="#1890FF"/>
</g>
<defs>
<linearGradient id="paint0_linear_2945_63656" x1="97.9994" y1="180.5" x2="830.862" y2="140.006" gradientUnits="userSpaceOnUse">
<stop stop-color="#E5F2FA"/>
<stop offset="1" stop-color="#ECF4FF" stop-opacity="0"/>
</linearGradient>
<linearGradient id="paint1_linear_2945_63656" x1="533.822" y1="-196.925" x2="288.458" y2="157.106" gradientUnits="userSpaceOnUse">
<stop stop-color="#545E94"/>
<stop offset="1" stop-color="#5A9AA9"/>
</linearGradient>
<linearGradient id="paint2_linear_2945_63656" x1="766.209" y1="45.667" x2="766.209" y2="92.3337" gradientUnits="userSpaceOnUse">
<stop stop-color="#65B8DC"/>
<stop offset="1" stop-color="#93CEA3"/>
</linearGradient>
<clipPath id="clip0_2945_63656">
<rect width="1204" height="196" fill="white"/>
</clipPath>
</defs>
</svg>
