<svg width="18" height="28" viewBox="0 0 18 28" fill="none" xmlns="http://www.w3.org/2000/svg">
<path fill-rule="evenodd" clip-rule="evenodd" d="M18 0H0V28L9 23.2L18 28V0ZM3.48796 12.2316C3.21845 12.2316 2.99998 12.4401 2.99998 12.6973V17.2393C2.99998 17.4965 3.21845 17.7049 3.48796 17.7049H5.01445C5.28395 17.7049 5.50244 17.4965 5.50244 17.2393V12.6973C5.50244 12.4401 5.28395 12.2316 5.01445 12.2316H3.48796ZM11.5954 7.25633C11.5122 6.57479 10.8631 5.98528 10.128 6.04251C10.1279 6.04251 10.1277 6.04252 10.1276 6.04252L10.1277 6.04253C10.1278 6.04252 10.1279 6.04252 10.128 6.04251C10.1485 6.04189 10.1352 6.04629 10.1078 6.05532C10.0462 6.07563 9.9137 6.11935 9.93678 6.18189C9.92438 6.29134 9.91314 6.4014 9.90188 6.51171C9.8411 7.10708 9.77958 7.70966 9.52964 8.2633C9.4076 8.62654 9.11827 8.85977 8.82789 9.09385C8.62292 9.25907 8.41744 9.42471 8.2699 9.63679C8.16352 9.84887 8.06434 10.0651 7.96507 10.2815C7.70824 10.8414 7.45084 11.4025 7.06668 11.8964C6.82603 12.231 6.45939 12.5417 6.00444 12.48L6.02034 17.3622C6.35668 17.4277 6.69466 17.4861 7.03264 17.5445C7.23632 17.5797 7.43999 17.6149 7.6433 17.6516C8.67942 17.8847 9.74479 17.9152 10.8049 17.9455C10.8977 17.9482 10.9905 17.9509 11.0832 17.9537C11.2195 17.9506 11.358 17.9512 11.4974 17.9518C12.0613 17.9543 12.6397 17.9568 13.1483 17.7145C13.1655 17.7027 13.183 17.6908 13.2007 17.6787C13.5547 17.4373 14.0027 17.1318 13.9471 16.6711C13.8551 16.3235 14.0874 16.098 14.3179 15.8743C14.4068 15.788 14.4954 15.7021 14.565 15.6095C14.7385 15.3878 14.6348 15.1625 14.5318 14.9385C14.4303 14.7177 14.3294 14.4984 14.4953 14.2853C14.8581 13.9942 15.0696 13.5491 14.6802 13.184C14.3982 12.9197 14.5577 12.6875 14.7217 12.4487C14.8182 12.3082 14.9163 12.1655 14.9269 12.0125C14.8089 11.5625 14.5128 11.0989 14.0611 10.8966C13.542 10.776 13.0039 10.7746 12.4692 10.7732C12.3113 10.7728 12.1538 10.7724 11.997 10.7689C11.8228 10.7531 11.6383 10.7634 11.4547 10.7737C11.1954 10.7882 10.9377 10.8027 10.7124 10.7432C10.6206 10.3336 10.8166 9.94622 11.0026 9.57862C11.0406 9.50368 11.0781 9.42957 11.1126 9.35626C11.4959 8.72622 11.7454 7.98898 11.5954 7.25633Z" fill="#13C2C2"/>
</svg>
